<svg xmlns="http://www.w3.org/2000/svg" version="1.1" xmlns:xlink="http://www.w3.org/1999/xlink" width="512" height="512" x="0" y="0" viewBox="0 0 682.667 682.667" style="enable-background:new 0 0 512 512" xml:space="preserve"><g><defs><clipPath id="a" clipPathUnits="userSpaceOnUse"><path d="M0 512h512V0H0Z" fill="#3265ab" opacity="1" data-original="#000000"></path></clipPath></defs><g clip-path="url(#a)" transform="matrix(1.33333 0 0 -1.33333 0 682.667)"><path d="M0 0v29.999c0 8.25 6.746 15 14.992 15h330.016c8.245 0 14.992-6.751 14.992-15v-270c0-8.248-6.748-15-14.992-15H14.992c-8.244 0-14.992 6.75-14.992 15V-15" style="stroke-width:15;stroke-linecap:butt;stroke-linejoin:miter;stroke-miterlimit:22.926;stroke-dasharray:none;stroke-opacity:1" transform="translate(144.5 436)" fill="none" stroke="#3265ab" stroke-width="15" stroke-linecap="butt" stroke-linejoin="miter" stroke-miterlimit="22.926" stroke-dasharray="none" stroke-opacity="" data-original="#000000" opacity="1"></path><path d="M174.5 210.999h300v240h-300z" style="stroke-width:15;stroke-linecap:butt;stroke-linejoin:miter;stroke-miterlimit:22.926;stroke-dasharray:none;stroke-opacity:1" fill="none" stroke="#3265ab" stroke-width="15" stroke-linecap="butt" stroke-linejoin="miter" stroke-miterlimit="22.926" stroke-dasharray="none" stroke-opacity="" data-original="#000000" opacity="1"></path><path d="M0 0v-15c0-8.251-6.75-15.001-15-15.001S-30-23.251-30-15V0" style="stroke-width:15;stroke-linecap:butt;stroke-linejoin:miter;stroke-miterlimit:22.926;stroke-dasharray:none;stroke-opacity:1" transform="translate(75 211)" fill="none" stroke="#3265ab" stroke-width="15" stroke-linecap="butt" stroke-linejoin="miter" stroke-miterlimit="22.926" stroke-dasharray="none" stroke-opacity="" data-original="#000000" opacity="1"></path><path d="M0 0h30c8.25 0 15 6.749 15 14.999v51.07c13.424 7.81 22.5 22.361 22.5 38.929 0 24.75-20.249 45-45 45h-15c-24.75 0-45-20.25-45-45 0-16.568 9.075-31.119 22.5-38.929v-51.07C-15 6.753-8.25 0 0 0Z" style="stroke-width:15;stroke-linecap:butt;stroke-linejoin:miter;stroke-miterlimit:22.926;stroke-dasharray:none;stroke-opacity:1" transform="translate(45 211)" fill="none" stroke="#3265ab" stroke-width="15" stroke-linecap="butt" stroke-linejoin="miter" stroke-miterlimit="22.926" stroke-dasharray="none" stroke-opacity="" data-original="#000000" opacity="1"></path><path d="M0 0c-7.144 15.457-22.812 26.252-40.881 26.252h-15.001c-18.069 0-33.737-10.794-40.881-26.252" style="stroke-width:15;stroke-linecap:butt;stroke-linejoin:miter;stroke-miterlimit:22.926;stroke-dasharray:none;stroke-opacity:1" transform="translate(108.382 297.247)" fill="none" stroke="#3265ab" stroke-width="15" stroke-linecap="butt" stroke-linejoin="miter" stroke-miterlimit="22.926" stroke-dasharray="none" stroke-opacity="" data-original="#000000" opacity="1"></path><path d="M0 0h37.5v74.999c0 8.25-6.762 15-15 15h-270.001c-8.238 0-15-6.762-15-15V0H-45m15 0h15" style="stroke-width:15;stroke-linecap:butt;stroke-linejoin:miter;stroke-miterlimit:22.926;stroke-dasharray:none;stroke-opacity:1" transform="translate(437 31.001)" fill="none" stroke="#3265ab" stroke-width="15" stroke-linecap="butt" stroke-linejoin="miter" stroke-miterlimit="22.926" stroke-dasharray="none" stroke-opacity="" data-original="#000000" opacity="1"></path><path d="M0 0c0-33 27-59.999 60-59.999M-45.004 0c0-33-27-59.999-59.999-59.999" style="stroke-width:15;stroke-linecap:butt;stroke-linejoin:miter;stroke-miterlimit:22.926;stroke-dasharray:none;stroke-opacity:1" transform="translate(347.002 180.999)" fill="none" stroke="#3265ab" stroke-width="15" stroke-linecap="butt" stroke-linejoin="miter" stroke-miterlimit="22.926" stroke-dasharray="none" stroke-opacity="" data-original="#000000" opacity="1"></path><path d="M0 0c8.284 0 15-6.716 15-15 0-8.284-6.716-15-15-15-8.285 0-15 6.716-15 15C-15-6.716-8.285 0 0 0zm-97.499 0H-52.5v-30h-44.999c-8.25 0-15 6.75-15 15s6.75 15 15 15zM97.499 0h-45v-30h45c8.249 0 15 6.75 15 15s-6.75 15-15 15z" style="stroke-width:15;stroke-linecap:butt;stroke-linejoin:miter;stroke-miterlimit:22.926;stroke-dasharray:none;stroke-opacity:1" transform="translate(324.5 91)" fill="none" stroke="#3265ab" stroke-width="15" stroke-linecap="butt" stroke-linejoin="miter" stroke-miterlimit="22.926" stroke-dasharray="none" stroke-opacity="" data-original="#000000" opacity="1"></path><path d="M0 0h-54.5c-32.999 0-59.999 27-59.999 60v52.499" style="stroke-width:15;stroke-linecap:butt;stroke-linejoin:miter;stroke-miterlimit:22.926;stroke-dasharray:none;stroke-opacity:1" transform="translate(174.5 68.5)" fill="none" stroke="#3265ab" stroke-width="15" stroke-linecap="butt" stroke-linejoin="miter" stroke-miterlimit="22.926" stroke-dasharray="none" stroke-opacity="" data-original="#000000" opacity="1"></path><path d="m0 0-77.344-77.344c28.791-28.791 68.566-46.598 112.5-46.598s83.709 17.807 112.5 46.598L70.312 0c-8.997-8.997-21.427-14.563-35.156-14.563S8.997-8.997 0 0Z" style="stroke-width:15;stroke-linecap:butt;stroke-linejoin:miter;stroke-miterlimit:22.926;stroke-dasharray:none;stroke-opacity:1" transform="translate(289.344 392.97)" fill="none" stroke="#3265ab" stroke-width="15" stroke-linecap="butt" stroke-linejoin="miter" stroke-miterlimit="22.926" stroke-dasharray="none" stroke-opacity="" data-original="#000000" opacity="1"></path><path d="M0 0c9.797 0 18.129-6.261 21.218-15h16.283c8.25 0 14.999-6.75 14.999-15s-6.749-15-14.999-15H0c-12.426 0-22.5 10.074-22.5 22.5C-22.5-10.073-12.426 0 0 0Z" style="stroke-width:15;stroke-linecap:butt;stroke-linejoin:miter;stroke-miterlimit:22.926;stroke-dasharray:none;stroke-opacity:1" transform="translate(309.5 345.999)" fill="none" stroke="#3265ab" stroke-width="15" stroke-linecap="butt" stroke-linejoin="miter" stroke-miterlimit="22.926" stroke-dasharray="none" stroke-opacity="" data-original="#000000" opacity="1"></path><path d="M0 0v15m0 15.001v15" style="stroke-width:15;stroke-linecap:butt;stroke-linejoin:miter;stroke-miterlimit:2.613;stroke-dasharray:none;stroke-opacity:1" transform="translate(444.5 383.499)" fill="none" stroke="#3265ab" stroke-width="15" stroke-linecap="butt" stroke-linejoin="miter" stroke-miterlimit="2.613" stroke-dasharray="none" stroke-opacity="" data-original="#000000" opacity="1"></path><path d="M0 0a60.249 60.249 0 0 1-34.172 0m57.22 23.049c-25.202 12.555-55.067 12.555-80.268 0" style="stroke-width:15;stroke-linecap:butt;stroke-linejoin:miter;stroke-miterlimit:22.926;stroke-dasharray:none;stroke-opacity:1" transform="translate(77.086 396.024)" fill="none" stroke="#3265ab" stroke-width="15" stroke-linecap="butt" stroke-linejoin="miter" stroke-miterlimit="22.926" stroke-dasharray="none" stroke-opacity="" data-original="#000000" opacity="1"></path></g></g></svg>