<svg xmlns="http://www.w3.org/2000/svg" version="1.1" xmlns:xlink="http://www.w3.org/1999/xlink" width="512" height="512" x="0" y="0" viewBox="0 0 512 512" style="enable-background:new 0 0 512 512" xml:space="preserve" class=""><g><path d="m269.255 229.78-39.475 39.475M229.532 190.058l-39.474 39.474M421.644 378.901 501 458.257 458.257 501l-79.356-79.356" style="stroke-width:22;stroke-linejoin:round;stroke-miterlimit:10;" fill="none" stroke="#3265ab" stroke-width="22" stroke-linejoin="round" stroke-miterlimit="10" data-original="#33cccc" opacity="1"></path><path d="M381 99h64M413 67v64M55 425h64M87 393v64" style="stroke-width:22;stroke-linecap:round;stroke-linejoin:round;stroke-miterlimit:10;" fill="none" stroke="#3265ab" stroke-width="22" stroke-linecap="round" stroke-linejoin="round" stroke-miterlimit="10" data-original="#33cccc" opacity="1"></path><path d="m209.919 170.445 78.948 78.948c10.901 10.9 10.901 28.574 0 39.474-10.9 10.901-28.574 10.901-39.474 0l-78.948-78.948c-10.9-10.9-10.9-28.574 0-39.474 10.9-10.901 28.573-10.901 39.474 0zM429.328 371.216l-55.268-76.849-79.693 79.693 76.849 55.268z" style="stroke-width:22;stroke-linejoin:round;stroke-miterlimit:10;" fill="none" stroke="#3265ab" stroke-width="22" stroke-linejoin="round" stroke-miterlimit="10" data-original="#000000" opacity="1"></path><path d="m153.949 35.526 217.436 217.436c12.173 12.173 12.173 31.909 0 44.081l-74.341 74.341c-12.173 12.173-31.909 12.173-44.081 0L35.526 153.949c-32.701-32.701-32.701-85.721 0-118.422 32.702-32.702 85.721-32.702 118.423-.001zM35.526 153.949 153.949 35.526" style="stroke-width:22;stroke-linejoin:round;stroke-miterlimit:10;" fill="none" stroke="#3265ab" stroke-width="22" stroke-linejoin="round" stroke-miterlimit="10" data-original="#000000" opacity="1"></path></g></svg>