<svg xmlns="http://www.w3.org/2000/svg" version="1.1" xmlns:xlink="http://www.w3.org/1999/xlink" width="512" height="512" x="0" y="0" viewBox="0 0 512 512" style="enable-background:new 0 0 512 512" xml:space="preserve"><g><g fill="none"><path d="M246.474 105.437c-6.002 0-12.545 1.994-19.444 5.93a6.824 6.824 0 0 1-6.74 0c-6.899-3.936-13.438-5.93-19.439-5.93-9.978 0-18.202 5.721-22.569 15.693-4.608 10.522-4.454 26.343 6.271 37.965l39.108 42.364 39.108-42.364c10.732-11.622 10.891-27.442 6.282-37.961-4.364-9.977-12.597-15.697-22.577-15.697z" fill="" opacity="1"></path><path d="M348 408.095V243.618l-24-28.949v161.022c0 9.134-6.731 16.309-15.221 16.309H146.598c-8.481 0-15.598-7.175-15.598-16.309V74.26c0-9.139 7.116-16.26 15.598-16.26h35.754c.149-9 7.104-17 15.634-17h59.41c8.533 0 15.491 8 15.642 17h35.742c8.489 0 15.22 7.121 15.22 16.26v46.654c3 .138 6.051 1.031 8.607 2.743L348 133.754V41.856C348 32.354 339.825 25 330.312 25H125.065C115.563 25 108 32.354 108 41.856v366.238c0 9.51 7.563 16.905 17.065 16.905h205.246C339.825 425 348 417.604 348 408.095zM63.531 97.896c-7.854 8.391-10.709 21.868.486 33.06L94 161.047V93.744c-11-7.733-23.277-3.528-30.469 4.152zM92.374 178.586c-11.579-11.583-25.204-8.236-33.653.218-8.451 8.45-11.853 22.157-.273 33.736L94 248.207v-68.381c0-.314-1.11-.726-1.626-1.24zM56.553 263.817c-8.436 8.449-11.824 22.153-.262 33.72L94 335.354v-69.893c-1-.188-2.729-.823-3.826-1.917-11.574-11.539-25.184-8.177-33.621.273z" fill="" opacity="1"></path><path d="M311 125.578V74.26c0-1.78-1.513-3.26-2.221-3.26h-42.546c-3.759 0-7.233-2.749-7.233-6.508v-6.504c0-1.958-.794-2.988-1.604-2.988h-59.41c-.808 0-1.985 1.03-1.985 2.988v6.504c0 3.759-3.087 6.508-6.845 6.508h-42.558c-.704 0-1.598 1.479-1.598 3.26v301.432c0 1.776.894 3.309 1.598 3.309H308.78c.708 0 2.221-1.532 2.221-3.309V197.827l-3.367-3.896c-18.51-22.908-14.6-49.65-1.275-64.232 1.449-1.586 2.641-2.954 4.641-4.121zM267.218 306H252.49l-15.036 47.178c-.906 2.832-3.537 4.925-6.477 4.925-.143 0-.285-.017-.427-.024-3.113-.193-5.692-2.505-6.267-5.567l-13.723-73.535-4.067 21.67c-.601 3.22-3.414 5.354-6.689 5.354h-19.696c-3.759 0-6.805-2.742-6.805-6.5s3.046-6.5 6.805-6.5h14.043l9.721-52.131c.601-3.221 3.413-5.652 6.689-5.652a6.816 6.816 0 0 1 6.689 5.567l15.459 82.816 8.332-25.974c.901-2.82 3.521-4.627 6.479-4.627h19.696c3.759 0 6.805 2.742 6.805 6.5s-3.044 6.5-6.803 6.5zm5.551-137.672-44.109 47.78a6.805 6.805 0 0 1-10 0l-44.109-47.78c-12.9-13.977-16.409-35.137-8.738-52.657 6.539-14.93 19.637-23.843 35.038-23.843 7.342 0 15.001 1.985 22.81 5.906 7.813-3.921 15.472-5.906 22.814-5.906 15.408 0 28.51 8.913 35.045 23.847 7.669 17.516 4.153 38.677-8.751 52.653z" fill="" opacity="1"></path><path d="m419.289 198.126-94.385-63.167c-2.235-1.496-6.144.964-8.826 3.898-7.604 8.319-13.367 27.543 1.923 46.467l41.66 51.506c1.019 1.26 1.51 3.17 1.509 4.17H361v167.095C361 425.109 347.33 439 330.312 439H208.899c.086 0 .181.056.266.09L315.9 481.647c26.148 9.799 40.833 7.339 58.065-9.851 21.714-21.654 53.401-53.409 74.735-74.838 13.724-13.791 17.402-29.068 11.92-49.529z" fill="" opacity="1"></path></g><path d="m473.755 343.857-42.021-151.789c-.436-1.571-1.506-2.936-2.859-3.842L361 142.861V41.856C361 24.85 347.33 11 330.312 11H125.065C108.059 11 94 24.85 94 41.856v36.503c-15-5.846-30.492-.3-40.352 10.24-11.931 12.746-16.73 34.453.803 51.981l17.284 17.256c-8.557 1.092-16.542 5.281-22.599 11.342-13.221 13.217-17.534 35.663-.211 52.982l20.678 20.678c-8.564 1.092-16.57 5.293-22.631 11.365-13.197 13.217-17.61 35.651-.308 52.954L94 354.603v53.492C94 425.109 108.059 439 125.065 439h56.886c8.15 6 15.965 10.253 22.17 12.733l106.87 42.62c10.729 4.02 20.824 6.641 30.686 6.641 14.056 0 27.641-5.336 41.902-19.558 21.722-21.662 53.425-53.435 74.767-74.876 17.078-17.156 22.122-37.649 15.409-62.703zM94 335.354l-37.709-37.816c-11.563-11.566-8.174-25.271.262-33.72 8.438-8.45 22.047-11.813 33.621-.273 1.098 1.094 2.826 1.729 3.826 1.917zm0-87.147L58.447 212.54c-11.579-11.579-8.178-25.286.273-33.736 8.449-8.454 22.074-11.801 33.653-.218.517.514 1.627.926 1.627 1.24zm0-87.16-29.982-30.091c-11.195-11.191-8.34-24.669-.486-33.06C70.723 90.216 83 86.011 94 93.744zm254 247.048c0 9.51-8.175 16.905-17.688 16.905H125.066c-9.503 0-17.065-7.396-17.065-16.905V41.856C108 32.354 115.563 25 125.065 25h205.246C339.825 25 348 32.354 348 41.856v91.897l-15.393-10.097c-2.557-1.712-5.607-2.605-8.607-2.743V74.26c0-9.139-6.731-16.26-15.221-16.26h-35.742c-.15-9-7.108-17-15.642-17h-59.41c-8.529 0-15.484 8-15.634 17h-35.754C138.116 58 131 65.121 131 74.26v301.432c0 9.134 7.116 16.309 15.598 16.309H308.78c8.489 0 15.221-7.175 15.221-16.309V214.669l24 28.949m-40.368-49.687 3.367 3.896v177.864c0 1.776-1.513 3.309-2.221 3.309H146.598c-.704 0-1.598-1.532-1.598-3.309V74.26c0-1.78.894-3.26 1.598-3.26h42.558c3.758 0 6.845-2.749 6.845-6.508v-6.504c0-1.958 1.178-2.988 1.985-2.988h59.41c.811 0 1.604 1.03 1.604 2.988v6.504c0 3.759 3.475 6.508 7.233 6.508h42.546c.708 0 2.221 1.479 2.221 3.26v51.318c-2 1.167-3.192 2.535-4.643 4.12-13.324 14.582-17.234 41.324 1.276 64.233zm141.068 203.028c-21.334 21.429-53.021 53.184-74.735 74.838-17.232 17.189-31.917 19.649-58.065 9.851L209.165 439.09c-.085-.034-.18-.09-.266-.09h121.412C347.33 439 361 425.109 361 408.095V241h.17c.001-1-.49-2.91-1.509-4.17l-41.66-51.506c-15.29-18.924-9.526-38.147-1.923-46.467 2.683-2.935 6.591-5.395 8.826-3.898l94.385 63.167 41.332 149.304c5.483 20.461 1.804 35.738-11.92 49.529z" fill="#3265ab" opacity="1" data-original="#000000"></path><path d="M246.474 91.828c-7.343 0-15.002 1.985-22.814 5.906-7.809-3.921-15.468-5.906-22.81-5.906-15.401 0-28.499 8.913-35.038 23.843-7.671 17.521-4.162 38.681 8.738 52.657l44.109 47.78a6.805 6.805 0 0 0 10 0l44.109-47.78c12.904-13.977 16.421-35.137 8.75-52.653-6.535-14.934-19.636-23.847-35.044-23.847zM267.218 293h-19.696c-2.959 0-5.578 1.807-6.479 4.627l-8.332 25.974-15.459-82.816a6.816 6.816 0 0 0-6.689-5.567c-3.276 0-6.089 2.432-6.689 5.652L194.151 293h-14.043c-3.759 0-6.805 2.742-6.805 6.5s3.046 6.5 6.805 6.5h19.696c3.275 0 6.089-2.135 6.689-5.354l4.067-21.67 13.723 73.535c.574 3.063 3.153 5.374 6.267 5.567.142.008.284.024.427.024 2.939 0 5.57-2.093 6.477-4.925L252.49 306h14.728c3.759 0 6.805-2.742 6.805-6.5s-3.046-6.5-6.805-6.5z" fill="#3265ab" opacity="1" data-original="#000000"></path></g></svg>