<svg xmlns="http://www.w3.org/2000/svg" version="1.1" xmlns:xlink="http://www.w3.org/1999/xlink" width="512" height="512" x="0" y="0" viewBox="0 0 512 512" style="enable-background:new 0 0 512 512" xml:space="preserve"><g><path d="M227.322 356.462a66.332 66.332 0 0 1 4.241-2.032c-12.03-6.812-14.328-23.115-16.718-40.154-1.147-8.183-2.335-16.646-4.711-23.712-3.516-11.295-8.96-22.429-14.226-33.195-11.067-22.632-22.513-46.035-16.272-71.829l.402-1.666-1.584-.653c-13.27-5.475-23.058-15.115-33.421-25.321-8.056-7.933-16.385-16.136-26.456-22.116-17.921-14.928-53.423-10.898-65.958 2.948-5.025 5.551-10.842 17.406 6.667 34.438l.198.169c3.861 2.884 7.89 5.65 11.785 8.325 5.245 3.602 10.633 7.333 15.677 11.368.935-.999 2.23-1.65 3.584-1.543.352.028.685.088 1.017.149-.161-.149-.312-.305-.483-.446-5.612-4.64-11.671-8.801-17.531-12.825-3.827-2.629-7.784-5.347-11.551-8.155-11.273-11.01-13.487-20.966-6.398-28.796 11.341-12.527 44.569-15.919 60.546-2.465l.271.191c9.714 5.738 17.904 13.806 25.826 21.607 9.8 9.65 19.921 19.618 33.144 25.5-5.725 26.521 5.796 50.079 16.945 72.877 5.199 10.631 10.574 21.624 14.013 32.67 2.272 6.758 3.381 14.664 4.556 23.035 2.216 15.805 4.652 33.127 16.437 41.631zM463.444 151.895c-.248-6.829-3.173-12.552-8.69-17.01-10.264-8.292-26.892-9.958-38.022-8.005-20.896 2.421-35.228 16.447-49.086 30.012-11.438 11.194-23.265 22.77-38.578 27.327l-1.822.542.449 1.848c8.747 35.999-11.233 69.984-28.861 99.97a1737.609 1737.609 0 0 0-4.22 7.202c-4.053 6.068-7.128 13.485-10.008 20.878a8.478 8.478 0 0 1 4.276.056c2.713-6.903 5.474-13.361 9.091-18.761l.066-.107c1.394-2.396 2.812-4.809 4.242-7.241 17.722-30.144 37.771-64.243 29.72-101.119 15.373-5.157 27.094-16.628 38.442-27.735 14.007-13.709 27.236-26.658 46.804-28.902l.121-.018c10.601-1.878 25.977-.02 34.872 7.166 4.56 3.684 6.983 8.386 7.204 13.978-.404 12.347-10.633 19.085-20.525 25.602-2.487 1.64-5.06 3.334-7.383 5.062l-.513.371c-3.74 2.707-7.581 5.518-11.072 8.744 1.468.194 2.857.778 4.178 1.614 2.926-2.531 6.118-4.859 9.238-7.117l.534-.388c2.253-1.676 4.664-3.265 7.218-4.946 10.262-6.761 21.892-14.423 22.324-28.89l.002-.066z" fill="#3265ab" opacity="1" data-original="#000000"></path><path d="M480.01 132.297c-14.25-19.862-48.077-31.192-72.454-24.285-19.308 3.124-31.315 17.056-42.927 30.53-11.507 13.354-22.389 25.98-39.878 29.182-13.753-14.264-32.625-23.076-54.657-25.508-19.984-2.207-42.031.996-62.005 8.988-9.838 3.532-14.8 8.038-18.423 11.328-5.894 5.349-7.672 6.965-26.069-6.081-6.923-5.08-12.395-11.954-17.686-18.601-6.324-7.945-12.865-16.162-22.107-21.722-28.419-15.842-57.092-10.377-74.452.019-15.43 9.241-24.493 23.514-24.244 38.179.208 12.227 6.733 30.276 36.642 46.835l1.23.686c3.667 2.047 7.997 4.461 12.555 5.835-.162-1.363.162-2.786.971-3.864-4.026-1.248-8.019-3.477-11.576-5.463l-1.242-.692c-28.237-15.634-34.391-32.232-34.58-43.403-.225-13.218 8.111-26.182 22.3-34.68 16.398-9.822 43.52-14.969 70.392.011 8.567 5.154 14.598 12.73 20.982 20.752 5.455 6.853 11.096 13.938 18.475 19.354 20.03 14.202 23.631 12.58 31.1 5.798 3.562-3.234 7.995-7.261 17.152-10.55 35.386-14.159 84.074-14.611 113.07 16.3l.727.774 1.048-.168c19.539-3.116 31.622-17.138 43.307-30.696 11.68-13.554 22.712-26.355 40.645-29.21l.235-.053c22.54-6.444 55.057 4.391 68.221 22.737 5.928 8.263 10.569 21.617-.947 38.345-13.374 16.008-27.316 26.303-41.496 30.687l.176.188a4.902 4.902 0 0 1 1.391 3.509c14.817-4.687 29.283-15.383 43.058-31.891l.11-.145c10.066-14.573 10.407-29.853.956-43.025z" fill="#3265ab" opacity="1" data-original="#000000"></path><path d="M128.724 254.238c-.499 0-.982-.011-1.452-.029-24.399-.97-53.78-24.987-54.203-44.309-.172-7.846 4.432-21.418 37.188-24.159l.164-.007h.073c21.168 0 45.136 14.335 47.001 37.539l.015.182-.019.181c-2.669 26.255-18.554 30.602-28.767 30.602zm-18.215-64.504c-21.809 1.841-33.685 8.97-33.441 20.078.377 17.24 28.147 39.517 50.363 40.4 10.593.418 23.668-3.896 26.062-26.799-1.793-20.815-23.654-33.671-42.984-33.679zM387.792 254.289c-8.365 0-16.898-3.069-23.444-8.896-8.701-7.744-11.591-18.526-7.738-28.853 5.702-18.159 24.57-30.824 45.92-30.824h.076l.07.001c28.517 1.051 34.784 13.338 35.982 20.569 2.633 15.893-13.752 35.909-36.542 44.662-4.41 2.249-9.338 3.341-14.324 3.341zm14.748-64.572c-16.589 0-36.37 9.633-42.129 28.071l-.037.106c-3.328 8.863-.91 17.797 6.634 24.511 9.269 8.251 22.993 10.281 33.377 4.937l.201-.09c20.801-7.952 36.429-26.413 34.126-40.312-1.724-10.4-13.139-16.517-32.147-17.224l-.025.001zM281.711 213.209l-.048-.24c-1.8-6.795-6.821-11.154-13.432-11.662-7.522-.566-14.942 3.925-18.112 10.966-.384.579-.706 1.219-1.004 1.869-3.459-6.552-10.932-11.666-18.006-11.728h-.125c-6.07 0-10.46 3.824-12.053 10.51l-.04.219c-1.726 13.998 5.057 25.659 11.616 36.936 3.673 6.315 7.471 12.845 9.603 19.599 4.81 19.17 4.201 39.658 3.612 59.473-.143 4.826-.287 9.731-.356 14.648a54.652 54.652 0 0 1 4.057-2.955c.077-3.88.182-7.75.296-11.567.599-20.11 1.217-40.904-3.744-60.631l-.031-.112c-2.263-7.199-6.186-13.943-9.979-20.465-6.494-11.165-12.629-21.711-11.117-34.323 1.176-4.798 3.986-7.33 8.138-7.33h.089c10.249 0 10.053 8.981 15.666 14.617 2.624 2.634 4.811-2.496 5.627-4.359.369-.844.748-1.711 1.142-2.272l.196-.349c2.454-5.61 8.3-9.227 14.219-8.757 4.872.374 8.452 3.499 9.84 8.58 1.474 11.136-4.483 21.785-10.244 32.085-1.737 3.104-3.378 6.039-4.842 9.012-9.431 15.578-9.674 33.498-9.909 50.828-.066 4.927-.136 10.021-.428 14.996-.115 6.536-.706 12.348-1.288 17.963 1.364-.677 2.76-1.25 4.192-1.661.515-5.06.991-10.324 1.092-16.15.294-4.983.364-10.123.432-15.094.229-16.823.464-34.219 9.374-48.882l.086-.157c1.427-2.904 3.057-5.818 4.782-8.903 6.103-10.913 12.415-22.197 10.699-34.704z" fill="#3265ab" opacity="1" data-original="#000000"></path><path d="M269.124 354.918a5.525 5.525 0 0 1-.953-1.509c-1.565 1.422-6.883 3.243-9.071 3.992-2.403.822-4.322 1.479-5.519 2.195-6.308 2.718-9.585 7.787-13.054 13.152-3.885 6.01-7.901 12.224-16.807 16.267l-.172.089c-23.141 13.344-42.114 16.367-56.331 9.018a8.76 8.76 0 0 1-1.105-.713 8.082 8.082 0 0 1 1.019-.772c5.652-3.608 11.437-7.498 17.031-11.26 9.334-6.277 18.985-12.768 28.333-18.162l12.477-7.927a32221.592 32221.592 0 0 1 31.85-20.227l.144-.101c.802-.613 1.403-.842 1.835-.916-.418-.973-.582-2.044-.168-3.058l.054-.133c.123-.302.263-.577.409-.841-1.476.007-2.98.582-4.487 1.715a34036.273 34036.273 0 0 0-31.782 20.185l-12.368 7.859c-9.454 5.459-19.15 11.979-28.528 18.286-5.574 3.748-11.339 7.625-16.981 11.228-1.466.974-3.14 2.34-3.069 4.281.071 1.925 1.746 3.122 3.438 4.074 5.652 2.923 11.921 4.382 18.785 4.382 12.018-.001 25.856-4.478 41.361-13.405 9.911-4.529 14.433-11.523 18.423-17.696 3.287-5.085 6.126-9.478 11.394-11.7l.298-.156c.778-.496 2.831-1.199 4.817-1.879 4.568-1.564 8.198-2.918 10.285-4.728-.562-.461-1.042-.963-1.558-1.54z" fill="#3265ab" opacity="1" data-original="#000000"></path><path d="M217.926 373.722c-19.148 11.187-35.604 22.815-37.372 19.348-1.819-3.567 9.18-8.208 11.835-10.667 9.729-5.156 21.498-14.381 44.483-26.632 1.132-.603 2.495-.422 3.179.48 1.06 1.398-.635 2.929-2.073 3.853-1.818 1.17-9.852 7.658-20.052 13.618zM275.598 361.774c-4.3 0-6.895-3.335-8.225-5.045-2.701-3.472-4.771-7.333-6.773-11.067-1.422-2.651-2.892-5.393-4.545-7.896-.993-1.503-.967-2.865-.77-3.743.593-2.644 3.424-4.362 5.297-5.499 28.773-17.616 59.624-36.438 90.219-54.691 4.549-2.708 9.333-4.244 14.221-4.566 7.142-.469 13.678 3.791 15.883 10.364 3.174 9.458-5.03 16.284-8.973 19.564-6.721 5.592-14.246 10.207-21.523 14.67l-2.232 1.37a902.91 902.91 0 0 0-37.351 24.283 816.93 816.93 0 0 1-3.21 2.189c-4.701 3.198-9.562 6.506-14.014 10.064-.607.484-1.219.985-1.838 1.491-4.085 3.341-8.715 7.128-14.282 8.307a8.97 8.97 0 0 1-1.884.205zm90.498-88.543c-.269 0-.539.009-.811.027-4.253.279-8.437 1.629-12.437 4.011-30.576 18.241-61.414 37.056-90.185 54.671-1.061.644-3.256 1.976-3.477 2.959-.018.079-.059.264.205.662 1.755 2.656 3.269 5.479 4.732 8.21 2.012 3.753 3.912 7.298 6.404 10.501 2.31 2.969 3.903 3.855 6.121 3.385 4.617-.978 8.666-4.288 12.58-7.49a221.79 221.79 0 0 1 1.873-1.52c4.571-3.654 9.497-7.006 14.261-10.246 1.068-.728 2.136-1.453 3.198-2.182a906.953 906.953 0 0 1 37.518-24.39l2.236-1.373c7.157-4.39 14.558-8.929 21.057-14.335 6.027-5.016 9.65-9.522 7.738-15.218-1.542-4.605-6.002-7.672-11.013-7.672z" fill="#3265ab" opacity="1" data-original="#000000"></path></g></svg>