<svg xmlns="http://www.w3.org/2000/svg" version="1.1" xmlns:xlink="http://www.w3.org/1999/xlink" width="512" height="512" x="0" y="0" viewBox="0 0 512 512" style="enable-background:new 0 0 512 512" xml:space="preserve" class=""><g><path d="M291.923 441.26c-6.085-30.906-26.44-51.822-26.44-51.822M280.476 504.5c6.823-11.537 10.587-22.765 12.195-33.4M241.833 7.5c8.095 3.482 16.173 7.587 23.667 12.26 33.789 21.068 34.834 69.734 2.181 92.523-14.954 10.437-32.735 18.25-50.838 23.303" style="stroke-width:15;stroke-linecap:round;stroke-linejoin:round;stroke-miterlimit:10;" fill="none" stroke="#3265ab" stroke-width="15" stroke-linecap="round" stroke-linejoin="round" stroke-miterlimit="10" data-original="#000000" opacity="1"></path><path d="M318.79 278.264c5.879 34.079-4.977 69.899-31.632 94.5-17.738 16.371-40.181 28.665-65.472 38.492M241.417 126.849h0c-6.907 25.093 1.961 51.765 22.278 68.032 14.553 11.652 26.953 24.886 37.079 39.791" style="stroke-width:15;stroke-linecap:round;stroke-linejoin:round;stroke-miterlimit:10;" fill="none" stroke="#3265ab" stroke-width="15" stroke-linecap="round" stroke-linejoin="round" stroke-miterlimit="10" data-original="#000000" opacity="1"></path><path d="M202.2 387.145s51.66 58.227 23.515 117.355M79.679 267.194c-5.409 16.648-8.677 34.886-8.598 55.548-4.738 67.523 63.413 103.706 63.413 181.758M115.337 7.5c-7.631 39.573-10.572 76.851-5.172 112.427 6.219 40.973-.786 82.719-19.198 119.846" style="stroke-width:15;stroke-linecap:round;stroke-linejoin:round;stroke-miterlimit:10;" fill="none" stroke="#3265ab" stroke-width="15" stroke-linecap="round" stroke-linejoin="round" stroke-miterlimit="10" data-original="#000000" opacity="1"></path><path d="M134.494 278.265s2.811 2.864 8.264 7.251" style="stroke-width:15;stroke-linecap:round;stroke-linejoin:round;" fill="none" stroke="#3265ab" stroke-width="15" stroke-linecap="round" stroke-linejoin="round" data-original="#000000" opacity="1"></path><path d="M159.556 297.48c22.264 14.106 58.791 31.099 107.278 32.826" style="stroke-width:15;stroke-linecap:round;stroke-linejoin:round;stroke-dasharray:20.6358,20.6358;" fill="none" stroke="#3265ab" stroke-width="15" stroke-linecap="round" stroke-linejoin="round" stroke-dasharray="20.6358,20.6358" data-original="#000000" opacity="1"></path><path d="M277.157 330.437a232.12 232.12 0 0 0 10.996-.369" style="stroke-width:15;stroke-linecap:round;stroke-linejoin:round;" fill="none" stroke="#3265ab" stroke-width="15" stroke-linecap="round" stroke-linejoin="round" data-original="#000000" opacity="1"></path><path d="m339.697 229.814 12.06-14.935-19.385-15.654-74.829 92.668h0a67.85 67.85 0 0 0 68.579-23.361l9.938-12.307a10.267 10.267 0 0 0 2.253-7.189l-.868-12.033a10.263 10.263 0 0 1 2.252-7.189zM413.347 118.777l-3.086 3.821" style="stroke-width:15;stroke-linecap:round;stroke-linejoin:round;stroke-miterlimit:10;" fill="none" stroke="#3265ab" stroke-width="15" stroke-linecap="round" stroke-linejoin="round" stroke-miterlimit="10" data-original="#000000" opacity="1"></path><path d="m358.551 145.038-31.086 43.206a5.783 5.783 0 0 0 1.061 7.877l27.075 21.863a5.784 5.784 0 0 0 7.924-.622l70.136-77.6c11.177-12.367 9.669-31.584-3.299-42.056h0c-12.969-10.472-32.072-7.899-41.808 5.632l-12.842 17.849" style="stroke-width:15;stroke-linecap:round;stroke-linejoin:round;stroke-miterlimit:10;" fill="none" stroke="#3265ab" stroke-width="15" stroke-linecap="round" stroke-linejoin="round" stroke-miterlimit="10" data-original="#000000" opacity="1"></path></g></svg>