<svg xmlns="http://www.w3.org/2000/svg" version="1.1" xmlns:xlink="http://www.w3.org/1999/xlink" width="512" height="512" x="0" y="0" viewBox="0 0 512 512" style="enable-background:new 0 0 512 512" xml:space="preserve"><g><path d="M256.343 328.321v27.506M212.933 339.953l5.945 10.297M181.155 371.731l10.297 5.945M181.155 458.549l10.297-5.944M212.933 490.327l5.945-10.297M299.752 490.327l-5.945-10.297M331.53 458.549l-10.297-5.944M331.53 371.731l-10.297 5.945M299.752 339.953l-5.945 10.297M169.524 415.14h27.505M256.343 501.959v-27.506M343.162 415.14h-27.506" style="stroke-width:15;stroke-linecap:round;stroke-linejoin:round;stroke-miterlimit:10;" fill="none" stroke="#3265ab" stroke-width="15" stroke-linecap="round" stroke-linejoin="round" stroke-miterlimit="10" data-original="#000000" opacity="1"></path><circle cx="256.343" cy="415.14" r="17.461" style="stroke-width:15;stroke-linecap:round;stroke-linejoin:round;stroke-miterlimit:10;" fill="none" stroke="#3265ab" stroke-width="15" stroke-linecap="round" stroke-linejoin="round" stroke-miterlimit="10" data-original="#000000" opacity="1"></circle><path d="m242.167 400.965-23.229-23.23M242.548 428.934l-13.525 13.526M172.081 175.328l-1.81 1.127a48.69 48.69 0 0 1-25.732 7.355h-18.323M114.314 211.164h28.371a64.72 64.72 0 0 1 22.348 3.981l6.123 2.253M340.604 175.328l1.81 1.127a48.69 48.69 0 0 0 25.732 7.355h17.637M399.232 211.164H370a64.72 64.72 0 0 0-22.348 3.981l-6.123 2.253M270.31 76.803a152.017 152.017 0 0 0-59.859 6.45h0a53.502 53.502 0 0 1-52.724-11.956l-6.981-6.538M361.94 64.759l-6.981 6.538a53.503 53.503 0 0 1-50.362 12.645M182.447 244.83a132.575 132.575 0 0 1-9.031-48.092v-41.37M204.264 341.974a93.915 93.915 0 0 1 1.946-12.503l3.472-15.393a41.815 41.815 0 0 0-6.686-33.396l-3.642-5.134M308.421 341.974a93.915 93.915 0 0 0-1.946-12.503l-3.472-15.393a41.815 41.815 0 0 1 6.686-33.396l5.136-7.24a132.571 132.571 0 0 0 24.444-76.705v-42.29" style="stroke-width:15;stroke-linecap:round;stroke-linejoin:round;stroke-miterlimit:10;" fill="none" stroke="#3265ab" stroke-width="15" stroke-linecap="round" stroke-linejoin="round" stroke-miterlimit="10" data-original="#000000" opacity="1"></path><path d="M456.358 124.586c3.489-5.529 7.551-11.961 11.544-18.276 8.658-13.695 9.543-31.17 2.327-45.666-4.931-9.906-13.826-17.268-24.345-20.703l-2.857-.933c-13.103-4.276-27.54-.433-36.776 9.801a77.017 77.017 0 0 0-13.623 21.249l-3.163 7.366a257.118 257.118 0 0 1-45.767 71.263l-4.313 4.762-13.295 14.679a64.326 64.326 0 0 0-16.647 42.722v0a81.68 81.68 0 0 1-23.341 56.586l-6.542 6.676a35.239 35.239 0 0 0-10.071 24.66v0a30.023 30.023 0 0 0 5.427 17.221l.003.004a19.725 19.725 0 0 1 3.558 11.996M500.812 105.978a75.658 75.658 0 0 1-7.734 16.248c-3.501 5.538-7.055 11.165-10.229 16.193" style="stroke-width:15;stroke-linecap:round;stroke-linejoin:round;stroke-miterlimit:10;" fill="none" stroke="#3265ab" stroke-width="15" stroke-linecap="round" stroke-linejoin="round" stroke-miterlimit="10" data-original="#000000" opacity="1"></path><path d="M29.573 138.001c-3.106-4.921-6.561-10.39-9.965-15.775C5.346 99.67 3.951 70.854 15.966 47.025c8.368-16.598 23.303-29.428 40.974-35.198l3.472-1.133c24.273-7.929 51.018-.801 68.131 18.156a106.75 106.75 0 0 1 18.881 29.452l3.163 7.365a228.326 228.326 0 0 0 9.939 20.304c14.456 26.162 39.308 44.991 68.243 52.485h0a109.969 109.969 0 0 0 55.147 0h0c28.935-7.494 53.788-26.324 68.243-52.485a228.466 228.466 0 0 0 9.939-20.304l3.163-7.365a106.713 106.713 0 0 1 18.881-29.452C401.255 9.892 428 2.764 452.273 10.693l3.472 1.133c17.672 5.77 32.606 18.6 40.974 35.198a75.903 75.903 0 0 1 7.438 24.078" style="stroke-width:15;stroke-linecap:round;stroke-linejoin:round;stroke-miterlimit:10;" fill="none" stroke="#3265ab" stroke-width="15" stroke-linecap="round" stroke-linejoin="round" stroke-miterlimit="10" data-original="#000000" opacity="1"></path><path d="M112.698 56.728a77.143 77.143 0 0 0-6.263-7.92c-9.236-10.234-23.673-14.077-36.776-9.801l-2.857.933c-10.519 3.435-19.413 10.797-24.345 20.703-7.216 14.496-6.332 31.972 2.327 45.666 3.978 6.292 8.024 12.699 11.504 18.214M234.209 327.992a19.725 19.725 0 0 1 3.558-11.996l.003-.004a30.025 30.025 0 0 0 5.427-17.221v0a35.243 35.243 0 0 0-10.071-24.66l-6.542-6.676a81.68 81.68 0 0 1-23.341-56.586v0a64.328 64.328 0 0 0-16.647-42.722l-13.296-14.68-4.313-4.762a257.008 257.008 0 0 1-40.863-60.528M29.318 141.198c9.548-13.11 25.102-18.584 37.363-14.078 3.528 1.297 7.247 2.027 11.006 2.024 7.474-.007 15.444 2.491 22.451 7.594s11.829 11.923 14.115 19.039c1.15 3.579 2.986 6.894 5.302 9.855 8.05 10.287 7.611 26.771-1.937 39.88-9.548 13.11-25.102 18.584-37.363 14.078-3.528-1.297-7.247-2.027-11.006-2.024-7.474.007-15.444-2.491-22.451-7.594s-11.829-11.923-14.115-19.039c-1.15-3.579-2.986-6.894-5.302-9.855-8.05-10.287-7.612-26.771 1.937-39.88zM483.368 141.198c-9.548-13.11-25.102-18.584-37.363-14.078-3.528 1.297-7.247 2.027-11.006 2.024-7.474-.007-15.444 2.491-22.451 7.594s-11.829 11.923-14.115 19.039c-1.15 3.579-2.986 6.894-5.302 9.855-8.05 10.287-7.611 26.771 1.937 39.88 9.548 13.11 25.102 18.584 37.363 14.078 3.528-1.297 7.247-2.027 11.006-2.024 7.474.007 15.444-2.491 22.451-7.594s11.829-11.923 14.115-19.039c1.15-3.579 2.986-6.894 5.302-9.855 8.05-10.287 7.611-26.771-1.937-39.88z" style="stroke-width:15;stroke-linecap:round;stroke-linejoin:round;stroke-miterlimit:10;" fill="none" stroke="#3265ab" stroke-width="15" stroke-linecap="round" stroke-linejoin="round" stroke-miterlimit="10" data-original="#000000" opacity="1"></path><circle cx="256.343" cy="415.14" r="89.36" style="stroke-width:15;stroke-linecap:round;stroke-linejoin:round;stroke-miterlimit:10;" fill="none" stroke="#3265ab" stroke-width="15" stroke-linecap="round" stroke-linejoin="round" stroke-miterlimit="10" data-original="#000000" opacity="1"></circle></g></svg>