<svg xmlns="http://www.w3.org/2000/svg" version="1.1" xmlns:xlink="http://www.w3.org/1999/xlink" width="512" height="512" x="0" y="0" viewBox="0 0 333.966 271.876" style="enable-background:new 0 0 512 512" xml:space="preserve"><g><path d="M23.549 126.908h-2a4 4 0 0 0-4 4V246.24a15.604 15.604 0 0 0-3.582 9.97c0 8.652 7.015 15.666 15.667 15.666 8.653 0 15.666-7.014 15.666-15.666s-7.013-15.666-15.666-15.666c-.709 0-1.401.063-2.085.155V130.908a4 4 0 0 0-4-4zm6.085 121.802c4.142 0 7.5 3.357 7.5 7.5s-3.358 7.5-7.5 7.5-7.5-3.357-7.5-7.5 3.358-7.5 7.5-7.5z" fill="#3265ab" opacity="1" data-original="#000000"></path><path d="M67.318 177.892H35.261a4 4 0 0 0-4 4v32.498a4 4 0 0 0 4 4h58.695c.483 3.088 1.87 5.394 5.298 6.302.345.091.783.137 1.327.137 2.943 0 8.991-1.328 20.296-3.869 3.564-.801 7.451-1.675 11.562-2.569H240.7v-14.038l-3.026.274c-11.936 1.084-25.463 2.322-40.683 2.116-25.112-.292-56.199 6.665-76.772 11.29-9.565 2.151-18.603 4.18-20.197 3.76-3.578-.947-3.533-4.237-3.089-11.59.384-6.361.91-15.073-2.554-24.478-1.403-3.809-3.364-8.028-5.609-12.349 4.616-.024 10.747-.554 18.225-1.202 22.063-1.914 52.283-4.535 77.559 2.778 1.768.511 3.496.767 5.182.767 3.549 0 6.908-1.132 10.031-3.388 8.282-5.984 14.002-19.351 17.941-34.216 8.138.567 16.157 1.472 22.992 3.333v-3.09c-6.752-1.753-14.446-2.638-22.238-3.197 5.625-22.811 7.268-48.178 7.644-55.574h1.76a2.084 2.084 0 0 0 0-4.168h-.75V73.75h3.583a4 4 0 0 0 4-4v-32a4 4 0 0 0-4-4h-1.396c.26-1.228.396-2.552.396-3.875 0-.685-.039-1.369-.109-2.041h14.11v218.743a63.742 63.742 0 0 0-3 .222c-15.37 1.503-19.728 8.042-20.221 8.874l-.419.708v3.826a5.918 5.918 0 0 0-3.305 5.307 5.923 5.923 0 0 0 5.924 5.924 5.923 5.923 0 0 0 3.381-10.785v-2.382c1.238-1.257 5.218-4.388 14.641-5.432a55.998 55.998 0 0 1 3-.243v7.118c0 .268.036.527.094.777a5.936 5.936 0 0 0-2.792 5.022 5.923 5.923 0 1 0 11.846 0c0-.713-.133-1.394-.364-2.028a5.936 5.936 0 0 0-1.975-2.68c.114-.346.191-.708.191-1.092v-7.13c1.056.055 2.056.134 3 .234 9.632 1.027 13.651 4.221 14.85 5.438v2.259a5.915 5.915 0 0 0-2.754 4.998 5.923 5.923 0 0 0 5.924 5.924 5.923 5.923 0 0 0 2.83-11.129v-3.928l-.419-.708c-.495-.835-4.892-7.429-20.431-8.893a64.219 64.219 0 0 0-3-.211V27.834h11.776c-.07.672-.109 1.357-.109 2.041 0 1.323.136 2.647.396 3.875h-1.396a4 4 0 0 0-4 4v32a4 4 0 0 0 4 4h3.583v1.666h-.75a2.084 2.084 0 0 0 0 4.168h6.334a2.084 2.084 0 0 0 0-4.168h-.75V73.75h3.583a4 4 0 0 0 4-4v-32a4 4 0 0 0-4-4h-1.395c.26-1.228.396-2.552.396-3.875 0-1.016-.082-2.032-.236-3.007 4.058-1.778 6.902-5.828 6.902-10.534a1.5 1.5 0 1 0-3 0c0 3.307-1.902 6.172-4.667 7.576-.831-2.157-2.172-3.66-4-3.66-2.079 0-3.528 1.945-4.313 4.584H250.7V3.5a3.5 3.5 0 1 0-7 0v21.334h-14.687c-.785-2.639-2.234-4.584-4.313-4.584-1.463 0-2.613.966-3.441 2.456a8.475 8.475 0 0 1-2.893-6.372 1.5 1.5 0 1 0-3 0c0 3.841 1.9 7.24 4.802 9.329a18.71 18.71 0 0 0-.468 4.212c0 1.323.136 2.647.396 3.875H218.7a4 4 0 0 0-4 4v32a4 4 0 0 0 4 4h3.583v1.666h-.75a2.084 2.084 0 0 0 0 4.168h1.562c-.409 7.44-2.152 32.919-7.706 55.368-3.304-.205-6.605-.365-9.837-.522-13.659-.662-26.561-1.287-32.818-4.98-9.651-5.698-32.76-4.83-54.09-3.23-1.47.11-2.92.223-4.351.336-1.264.1-2.509.2-3.733.299-5.458-6.249-10.287-12.637-14.387-17.793-5.493-8.303-16.547-12.983-23.423-8.065-6.879 4.918-11.201 16.861-3.628 29.672.208.346.411.669.617 1.009a34.074 34.074 0 0 0-2.567 1.552c-.208-.343-.414-.67-.623-1.019-3.054-5.166-4.367-10.316-4.39-15.055l-8.86-11.796a25.352 25.352 0 0 1-14-6.92c-4.89-4.741-7.642-11.103-7.746-17.913-.02-1.29.056-2.566.224-3.822l-4.829-6.429c-1.569-2.089-4.274-2.708-6.04-1.381L1.437 83.518c-1.766 1.327-1.926 4.096-.357 6.186zM275.367 41.466V69.75a2.004 2.004 0 0 1-2 2.002h-11.999a2.004 2.004 0 0 1-2.002-2.002V41.466s1.495.892 7 .99v3.128h-2.5v1.168h2.5v3.166h-2.5v1.166h2.5v3.166h-2.5v1.168h2.5v3.166h-2.5v1.166h2.5v3.166h-2.5v1.168h2.5V67h2v-2.916h2.5v-1.168h-2.5V59.75h2.5v-1.166h-2.5v-3.166h2.5V54.25h-2.5v-3.166h2.5v-1.166h-2.5v-3.166h2.5v-1.168h-2.5v-3.128c5.507-.098 7.001-.99 7.001-.99zm-6-11.591c0 1.556-.201 2.849-.479 3.875h-3.043c-.277-1.025-.479-2.319-.479-3.875 0-.747.058-1.414.136-2.041h2.03c.572 0 1.13-.056 1.679-.137.091.664.156 1.376.156 2.178zm-2-6.625c.234 0 .688.537 1.105 1.529a8.562 8.562 0 0 1-.939.055h-1.297c.424-1.031.892-1.584 1.131-1.584zm-42.667 0c.232 0 .682.531 1.096 1.509a8.452 8.452 0 0 1-1.968-.496c.344-.663.681-1.013.872-1.013zm-2 6.625c0-1.033.091-1.947.231-2.749 1.139.417 2.358.659 3.631.693.08.632.138 1.303.138 2.056 0 1.556-.201 2.849-.479 3.875h-3.043c-.277-1.025-.478-2.319-.478-3.875zm-6 39.875V50.918s1.495.892 7 .99v2.342h-2.5v1.168h2.5v3.166h-2.5v1.166h2.5v3.166h-2.5v1.168h2.5V67h2v-2.916h2.5v-1.168h-2.5V59.75h2.5v-1.166h-2.5v-3.166h2.5V54.25h-2.5v-2.342c5.507-.098 7.001-.99 7.001-.99V69.75a2.004 2.004 0 0 1-2 2.002h-11.999a2.004 2.004 0 0 1-2.002-2.002zm-18.69 100.146c-3.873 2.797-8.001 3.507-12.622 2.171-25.813-7.468-56.352-4.819-78.652-2.885-8 .694-14.952 1.293-19.567 1.179-7.714-14.217-17.786-28.762-20.692-32.884 2.574-2.11 10.1-7.423 19.67-6.411 4.175.44 12.525-.238 23.098-1.096 3.076-.25 6.308-.512 9.623-.76 20.868-1.564 43.404-2.453 52.34 2.822 6.896 4.071 20.158 4.714 34.198 5.394 3.032.147 6.127.297 9.225.484-3.745 14.067-9.073 26.532-16.621 31.986zM316.216 240.698v-68.544a4 4 0 0 0-4-4h-2a4 4 0 0 0-4 4v74.086a15.604 15.604 0 0 0-3.582 9.97c0 8.652 7.015 15.666 15.667 15.666 8.653 0 15.666-7.014 15.666-15.666s-7.013-15.666-15.666-15.666c-.709 0-1.402.063-2.085.154zm9.584 15.512c0 4.143-3.358 7.5-7.5 7.5s-7.5-3.357-7.5-7.5 3.358-7.5 7.5-7.5 7.5 3.357 7.5 7.5z" fill="#3265ab" opacity="1" data-original="#000000"></path><circle cx="57.049" cy="80.134" r="22.5" transform="rotate(-45.9 57.031 80.127)" fill="#3265ab" opacity="1" data-original="#000000"></circle><path d="M253.7 147.577c.966.8 1.842 1.665 2.606 2.608 13.967 17.241 27.167 45.669 25.222 54.318-.185.82-.473 1.28-.729 1.545-7.47-2.959-16.463-3.301-27.1-2.704v15.045h44.516a4 4 0 0 0 4-4v-32.498a4 4 0 0 0-4-4H276.97c-5.004-10.457-11.78-21.505-18.334-29.595-1.375-1.698-3.043-3.168-4.937-4.453v3.734z" fill="#3265ab" opacity="1" data-original="#000000"></path></g></svg>