<svg xmlns="http://www.w3.org/2000/svg" version="1.1" xmlns:xlink="http://www.w3.org/1999/xlink" width="512" height="512" x="0" y="0" viewBox="0 0 7111 7111" style="enable-background:new 0 0 512 512" xml:space="preserve" fill-rule="evenodd"><g><path d="M4794 1460c-4 0-7-1-11-1-874-111-1580-112-2455 0-50 6-94-33-94-83V777c0-1035 2643-1035 2643 0v599c0 46-38 84-83 84zm-1238-251c368 0 737 23 1154 73V777c0-399-581-608-1154-608-574 0-1155 208-1155 608v505c417-50 787-73 1155-73zM6413 7109H698c-46 0-83-37-83-83V5431c0-925 752-1677 1678-1677h140c110 0 110 166 0 166h-140c-834 0-1512 678-1512 1511v1511h5549V5431c0-833-678-1511-1511-1511h-139c-110 0-110-166 0-166h139c925 0 1677 752 1677 1677v1595c0 46-37 83-83 83z" fill="#3265ab" opacity="1" data-original="#000000"></path><path d="M3935 4925c-32 0-61-18-75-47l-380-797c-17-36-6-80 27-103l914-649c43-29 101-14 124 32l210 440c14 28 10 61-8 86l-745 1005c-16 21-41 33-67 33zm-274-852 289 608 633-853-146-306z" fill="#3265ab" opacity="1" data-original="#000000"></path><path d="M3176 4925c-26 0-51-12-67-34l-743-1005c-18-24-22-57-8-85l208-439c22-47 81-63 124-33l914 649c33 23 44 67 27 103l-380 797c-13 29-43 47-75 47zm-646-1097 631 853 289-608-776-550z" fill="#3265ab" opacity="1" data-original="#000000"></path><path d="M3800 3742h-489c-176 0-351-44-506-128l-219-155c-224-204-352-494-352-794V1376c0-42 31-77 73-82 859-109 1552-114 2404-12 12-102 166-94 166 10v1373c0 300-128 590-351 794l-220 156c-155 83-330 127-506 127zm-912-272c130 69 276 105 423 105h489c147 0 293-36 423-105l194-137c186-173 293-416 293-668V1450c-820-99-1489-99-2309 0v1215c0 252 107 495 293 668z" fill="#3265ab" opacity="1" data-original="#000000"></path><path d="M3553 2887c-161 0-321-50-442-151l-847-702c-35-29-40-82-11-117 30-35 82-40 118-11l846 702c184 153 497 150 684-5l839-697c36-29 88-24 118 11 29 35 24 88-11 117l-840 697c-126 104-290 156-454 156z" fill="#3265ab" opacity="1" data-original="#000000"></path><path d="M3553 2888c-167 0-324-54-442-152l-263-217c-19-16-30-40-30-64 0-196 160-356 356-356h764c195 0 355 160 355 356 0 24-11 48-30 64l-256 212c-122 101-283 157-454 157zm-565-470 229 190c187 155 497 149 684-5l222-185c-17-86-94-152-185-152h-764c-92 0-169 66-186 152zM3556 1065c-46 0-84-37-84-83V416c0-109 167-109 167 0v566c0 46-37 83-83 83z" fill="#3265ab" opacity="1" data-original="#000000"></path><path d="M3838 782h-565c-110 0-110-166 0-166h565c110 0 110 166 0 166zM3556 5563c-46 0-84-37-84-83v-113c0-110 167-110 167 0v113c0 46-37 83-83 83zM3556 6584c-46 0-84-37-84-83v-113c0-110 167-110 167 0v113c0 46-37 83-83 83zM3827 7109c-54 0-94-52-80-105l853-3189c18-68 109-84 149-25l738 1079c33 47 8 112-47 127l-411 111 203 170c34 29 39 81 11 116L3892 7078c-16 20-40 31-65 31zm887-3076-704 2632 1052-1313-262-220c-52-43-33-127 31-144l452-122zM3286 7109c-25 0-49-11-65-31L1870 5393c-28-35-23-87 11-116l203-170-411-111c-55-15-80-80-47-127l738-1079c40-59 131-43 149 25l851 3183c19 60-24 111-78 111zM2051 5352l1052 1313-704-2632-569 833 452 122c64 17 83 101 31 144z" fill="#3265ab" opacity="1" data-original="#000000"></path></g></svg>