<svg xmlns="http://www.w3.org/2000/svg" version="1.1" xmlns:xlink="http://www.w3.org/1999/xlink" width="512" height="512" x="0" y="0" viewBox="0 0 160 160" style="enable-background:new 0 0 512 512" xml:space="preserve"><g><path d="M80 63v-6c0-10.161-6.81-19.24-16.559-22.079A2 2 0 0 1 62 33v-2c0-2.757-2.243-5-5-5s-5 2.243-5 5v2a2 2 0 0 1-1.441 1.92C40.81 37.76 34 46.839 34 57v76h34a2 2 0 0 1 0 4H28.5c-1.93 0-3.5 1.57-3.5 3.5s1.57 3.5 3.5 3.5H73V68a2 2 0 0 1 3.225-1.582L80 69v-6zm-36 44a2 2 0 0 1-4 0V97a2 2 0 0 1 4 0zm9.356-62.479C47.848 46.126 44 51.258 44 57v32a2 2 0 0 1-4 0V57c0-7.509 5.032-14.22 12.237-16.32 1.061-.31 2.171.3 2.479 1.361a1.999 1.999 0 0 1-1.36 2.48z" fill="#3265ab" opacity="1" data-original="#000000"></path><path d="M83 130.972h52V72.076l-4.531 3.506a2 2 0 0 1-2.448 0l-6.53-5.053-6.525 5.052a2 2 0 0 1-2.448 0l-6.527-5.052-6.525 5.052a2 2 0 0 1-2.449 0l-6.522-5.052-6.522 5.052a2 2 0 0 1-2.449 0L77 72.079v6.894l52.001.027a2 2 0 1 1-.001 4H77v58.924l4.531-3.506a1.997 1.997 0 0 1 2.448 0l6.53 5.053 6.525-5.052a2 2 0 0 1 2.448 0l6.527 5.052 6.525-5.052a2 2 0 0 1 2.449 0l6.522 5.052 6.522-5.052a2.002 2.002 0 0 1 2.45 0l4.522 3.503V135H83c-1.104 0-2-.924-2-2.028s.896-2 2-2zm8.151-38.821c7.777-7.777 19.96-8.227 28.277-1.266 3.212-1.074 6.47-1.363 8.26.427 2.107 2.107 1.271 6.024.198 8.938-.359.974-.79 1.947-1.255 2.879 1.282 6.834-.844 13.783-5.782 18.721a20.96 20.96 0 0 1-14.835 6.163c-2.699 0-5.424-.522-8.028-1.596a2 2 0 0 1-1.087-2.611c.015-.037.038-.067.055-.103a1.993 1.993 0 0 1 2.557-.984 16.948 16.948 0 0 0 17.005-2.374l-9.937-9.936a53.624 53.624 0 0 1-1.065-.039c-1.519-.067-2.83-.125-3.572.438-1.727 1.311-1.813 2.454-1.943 4.185-.102 1.347-.217 2.873-1.22 4.378-.99 1.486-2.469 2.367-4.063 2.89-1.923.631-4.016.74-5.63.74-.454 0-.871-.008-1.234-.016-.26-.005-.492-.01-.687-.01a2 2 0 0 1 0-4c.218 0 .477.005.767.011.835.017 2.044.039 3.267-.078 1.73-.165 3.488-.609 4.253-1.756.401-.602.474-1.327.56-2.46.148-1.971.352-4.67 3.514-7.07.955-.724 2.006-1.057 3.07-1.198l-9.936-9.936c-3.848 4.902-4.762 11.669-2.189 17.441a1.994 1.994 0 0 1-.9 2.577c-.039.02-.072.046-.112.064a2 2 0 0 1-2.641-1.012c-3.519-7.891-1.777-17.298 4.333-23.407z" fill="#3265ab" opacity="1" data-original="#000000"></path><path d="M110.261 105.767c-.192-.239-.39-.475-.57-.722a1.97 1.97 0 0 1-.189-.319c-1.51-3.185-.933-6.677 1.505-9.115.828-.827 2.367-1.905 4.207-2.894a16.876 16.876 0 0 0-19.731.937l12.713 12.713c.768-.07 1.445-.245 2.065-.6zM114.274 109.498a1.887 1.887 0 0 1-.326-.195c-.282-.207-.548-.428-.816-.647a8.043 8.043 0 0 1-1.67.977l7.888 7.888a16.876 16.876 0 0 0 3.595-9.124c-1.462 1.269-3.241 1.931-5.086 1.931a8.344 8.344 0 0 1-3.585-.83zM113.043 102.851a15.488 15.488 0 0 0 3.109 3.107c1.606.695 3.205.41 4.408-.794 2.617-2.617 5.203-9.853 4.293-11.031-1.167-.896-8.402 1.689-11.019 4.306-1.203 1.205-1.487 2.804-.791 4.412z" fill="#3265ab" opacity="1" data-original="#000000"></path></g></svg>