<svg xmlns="http://www.w3.org/2000/svg" version="1.1" xmlns:xlink="http://www.w3.org/1999/xlink" width="512" height="512" x="0" y="0" viewBox="0 0 512 512" style="enable-background:new 0 0 512 512" xml:space="preserve" class=""><g><g data-name="06 Sick"><path d="M493.33 178.84V25.44a25.43 25.43 0 1 0-50.86 0v153.4a44.1 44.1 0 1 0 50.86 0ZM467.9 15a10.42 10.42 0 0 1 10.41 10.41v35.7h-20.82V25.44A10.42 10.42 0 0 1 467.9 15Zm0 229a29.1 29.1 0 0 1-14.23-54.47 7.52 7.52 0 0 0 3.82-6.55v-20.62h6a7.52 7.52 0 0 0 0-15h-6v-28.09h6a7.52 7.52 0 0 0 0-15h-6v-28.1h20.82V183a7.51 7.51 0 0 0 3.83 6.55A29.1 29.1 0 0 1 467.9 244Z" fill="#3265ab" opacity="1" data-original="#000000" class=""></path><path d="M367.4 400.46c-25.9-10.08-50.27-18.09-60.68-21.42v-37.57c12.78-11.59 23.57-25.29 29.79-38.09 2.55-5.27 4.79-13.79 6.79-25.95a39.29 39.29 0 0 0 24.95-11.95c8.2-8.28 13.45-20 15.2-33.91a46.64 46.64 0 0 0-1-18.46c7.56-14 36.9-72.63 24.56-115.84-7.7-27-25.36-37.37-38.81-41.34a66.71 66.71 0 0 0-20.88-2.57c-6.79-16.5-25-39.5-73.65-45.34-28.16-3.38-52.36 4.18-73.67 10.85-17.42 5.43-32.43 10.13-46.32 8.21-19-2.61-29.44-22.74-29.53-22.93a7.57 7.57 0 0 0-12.55-1.38c-.73.91-18.07 22.52-27.49 58.85-8.45 32.6-11.78 83.59 19.17 143.1-4.49 7-6.09 16-4.72 26.85 1.75 13.9 7 25.63 15.2 33.91a39.29 39.29 0 0 0 25 11.95c2 12.16 4.23 20.68 6.79 25.95 6.22 12.8 17 26.5 29.79 38.09V379c-10.41 3.33-34.78 11.34-60.69 21.42-46.73 18.17-76.18 34.24-87.51 47.76C5.71 473.73 0 495.59 0 504.49A7.51 7.51 0 0 0 7.51 512h467a7.51 7.51 0 0 0 7.51-7.51c0-8.9-5.71-30.76-27.09-56.27-11.34-13.52-40.79-29.59-87.53-47.76ZM190.31 353.4c17.14 11.83 34.91 18.28 50.69 18.28s33.56-6.45 50.7-18.28v29.53c-2.46 4.89-14.72 24.94-50.7 24.94s-48.16-19.87-50.69-24.95ZM98.48 66.07a165.73 165.73 0 0 1 18.88-45.13c6.54 8.21 17.91 18.78 34.27 21 17.21 2.36 34.5-3 52.8-8.75 20.89-6.53 42.48-13.28 67.47-10.28 46.24 5.55 59.37 27.76 63.09 40.5a7.53 7.53 0 0 0 8.48 5.3 51.18 51.18 0 0 1 21 1.76c14 4.32 23.5 14.71 28.12 30.9 9.16 32.08-9.69 76.92-19.45 96.91-5.7-4.86-13.41-7.73-22.69-8.43a39.35 39.35 0 0 0-7.6-18.39c-22.47-29.59-27.57-63.16-27.62-63.49a6.53 6.53 0 0 0-.19-.9 22.57 22.57 0 0 0-22.25-19H189.22a22.56 22.56 0 0 0-22.53 22.54v12.84a285.24 285.24 0 0 1-29.52-2 7.56 7.56 0 0 0-8.56 7.58c0 .3.53 27.91 2.21 60.87a42.59 42.59 0 0 0-16 4.38c-21.57-43.02-27.07-86.13-16.34-128.21Zm83.23 44.56a7.52 7.52 0 0 1 7.51-7.51h103.57a7.52 7.52 0 0 1 7.51 7.51v41.2a7.52 7.52 0 0 1-7.51 7.52H189.22a7.52 7.52 0 0 1-7.51-7.52ZM159 296.81c-1.57-3.24-4-10.79-6.48-28.35-.68-5.44-6.41-7.37-11.12-6-11.86 0-25.1-10.14-27.95-32.8-1-8.33.21-14.57 3.72-18.56 4.67-5.29 12.88-6.4 18.95-6.4 5 1.16 10.52-2.27 10.11-7.76-1.39-24.89-2.1-47.79-2.41-59.67 5.42.47 13.2 1 22.86 1.2v13.32a22.57 22.57 0 0 0 22.53 22.55h103.58a22.56 22.56 0 0 0 22.32-19.53 156.33 156.33 0 0 0 15.78 25.73 24.62 24.62 0 0 1 4.88 16.33c-.46 5.51 5.1 9 10.11 7.83 6.07 0 14.28 1.11 18.95 6.4 3.51 4 4.76 10.23 3.71 18.56-2.84 22.66-16.08 32.8-27.94 32.8-4.71-1.41-10.44.53-11.12 6-2.48 17.54-4.91 25.11-6.48 28.35-13.72 28.25-51.7 59.84-82 59.84s-68.27-31.59-82-59.84ZM16.35 497c2.48-9 8.81-23.06 22.25-39.1 18.58-22.15 102.75-52.29 140.54-64.31C185.68 403.83 203 422.9 241 422.9s55.33-19.07 61.87-29.34c37.78 12 122 42.15 140.54 64.31C456.87 473.93 463.2 488 465.67 497Z" fill="#3265ab" opacity="1" data-original="#000000" class=""></path><path d="M214.4 300.36a7.48 7.48 0 0 0 9.73-4.18 18.77 18.77 0 0 1 33.74 0 7.51 7.51 0 0 0 13.94-5.6c-.32-.82-8.17-20-30.81-20s-30.48 19.14-30.8 20a7.55 7.55 0 0 0 4.2 9.78ZM211 209.1a7.51 7.51 0 0 0-14-5.54c0 .08-3.92 8.1-19.73 7.3a7.52 7.52 0 0 0-.75 15c1 .05 1.94.07 2.87.07 19.61.07 29.08-10.4 31.61-16.83ZM106.55 290.92A7.51 7.51 0 0 0 96 292.14c-.43.55-10.67 13.69-10.67 34.19 0 10.78 3.67 18.67 6.82 25.67 3 6.67 5.94 13 5.94 22a7.51 7.51 0 1 0 15 0c0-12.29-3.88-20.77-7.31-28.25-2.92-6.39-5.45-11.91-5.45-19.41a44 44 0 0 1 7.45-24.89 7.51 7.51 0 0 0-1.23-10.53ZM45.19 397.85a7.51 7.51 0 0 0 15 0c0-12.3-3.88-20.77-7.3-28.25-2.92-6.39-5.45-11.91-5.45-19.42a45.6 45.6 0 0 1 3.22-16.92 7.51 7.51 0 1 0-14-5.54 60.78 60.78 0 0 0-4.27 22.46c0 10.78 3.62 18.69 6.81 25.67 3.11 6.68 5.99 12.98 5.99 22ZM368.9 374a7.51 7.51 0 1 0 15 0c0-9 2.89-15.32 5.94-22 3.19-7 6.81-14.89 6.81-25.67 0-20.5-10.23-33.64-10.67-34.19a7.51 7.51 0 1 0-11.79 9.3 44 44 0 0 1 7.44 24.89c0 7.5-2.52 13-5.45 19.41-3.4 7.48-7.28 15.96-7.28 28.26ZM421.8 397.85a7.51 7.51 0 0 0 15 0c0-9 2.88-15.32 5.93-22 3.2-7 6.82-14.89 6.82-25.67a60.78 60.78 0 0 0-4.27-22.46 7.51 7.51 0 1 0-14 5.54 45.6 45.6 0 0 1 3.22 16.92c0 7.51-2.53 13-5.45 19.42-3.37 7.48-7.25 15.95-7.25 28.25ZM271 209.1a7.51 7.51 0 0 1 14-5.54c0 .08 3.92 8.1 19.73 7.3a7.52 7.52 0 0 1 .75 15c-1 .05-1.94.07-2.87.07-19.61.07-29.07-10.4-31.61-16.83Z" fill="#3265ab" opacity="1" data-original="#000000" class=""></path></g></g></svg>