<svg xmlns="http://www.w3.org/2000/svg" version="1.1" xmlns:xlink="http://www.w3.org/1999/xlink" width="512" height="512" x="0" y="0" viewBox="0 0 682.667 682.667" style="enable-background:new 0 0 512 512" xml:space="preserve"><g><defs><clipPath id="a" clipPathUnits="userSpaceOnUse"><path d="M0 512h512V0H0Z" fill="#3265ab" opacity="1" data-original="#000000"></path></clipPath></defs><g clip-path="url(#a)" transform="matrix(1.33333 0 0 -1.33333 0 682.667)"><path d="M0 0v-19.761c0-8.16 4.96-15.5 12.53-18.55L80.54-65.69a40.002 40.002 0 0 0 24.101-28.401l41.929-188.01" style="stroke-width:15;stroke-linecap:round;stroke-linejoin:round;stroke-miterlimit:10;stroke-dasharray:none;stroke-opacity:1" transform="translate(211.8 289.94)" fill="none" stroke="#3265ab" stroke-width="15" stroke-linecap="round" stroke-linejoin="round" stroke-miterlimit="10" stroke-dasharray="none" stroke-opacity="" data-original="#000000" opacity="1"></path><path d="M0 0v-19.761c0-8.16-4.96-15.5-12.53-18.55l-64.869-26.12a39.994 39.994 0 0 1-24.901-33.45l-12.98-140.96" style="stroke-width:15;stroke-linecap:round;stroke-linejoin:round;stroke-miterlimit:10;stroke-dasharray:none;stroke-opacity:1" transform="translate(141.84 289.94)" fill="none" stroke="#3265ab" stroke-width="15" stroke-linecap="round" stroke-linejoin="round" stroke-miterlimit="10" stroke-dasharray="none" stroke-opacity="" data-original="#000000" opacity="1"></path><path d="M0 0c-13.7-11.18-31.19-17.869-50.25-17.869-19.061 0-36.551 6.689-50.25 17.869" style="stroke-width:15;stroke-linecap:round;stroke-linejoin:round;stroke-miterlimit:10;stroke-dasharray:none;stroke-opacity:1" transform="translate(227.068 250.525)" fill="none" stroke="#3265ab" stroke-width="15" stroke-linecap="round" stroke-linejoin="round" stroke-miterlimit="10" stroke-dasharray="none" stroke-opacity="" data-original="#000000" opacity="1"></path><path d="m0 0-1.261-22.88" style="stroke-width:15;stroke-linecap:round;stroke-linejoin:round;stroke-miterlimit:10;stroke-dasharray:none;stroke-opacity:1" transform="translate(88.69 30.72)" fill="none" stroke="#3265ab" stroke-width="15" stroke-linecap="round" stroke-linejoin="round" stroke-miterlimit="10" stroke-dasharray="none" stroke-opacity="" data-original="#000000" opacity="1"></path><path d="m0 0-2.52-45.68" style="stroke-width:15;stroke-linecap:round;stroke-linejoin:round;stroke-miterlimit:10;stroke-dasharray:none;stroke-opacity:1" transform="translate(94.93 143.71)" fill="none" stroke="#3265ab" stroke-width="15" stroke-linecap="round" stroke-linejoin="round" stroke-miterlimit="10" stroke-dasharray="none" stroke-opacity="" data-original="#000000" opacity="1"></path><path d="m0 0-43.311-43.31" style="stroke-width:15;stroke-linecap:round;stroke-linejoin:round;stroke-miterlimit:10;stroke-dasharray:none;stroke-opacity:1" transform="translate(339.95 216.22)" fill="none" stroke="#3265ab" stroke-width="15" stroke-linecap="round" stroke-linejoin="round" stroke-miterlimit="10" stroke-dasharray="none" stroke-opacity="" data-original="#000000" opacity="1"></path><path d="m0 0-44.548 44.548" style="stroke-width:15;stroke-linecap:round;stroke-linejoin:round;stroke-miterlimit:10;stroke-dasharray:none;stroke-opacity:1" transform="translate(489.5 321.224)" fill="none" stroke="#3265ab" stroke-width="15" stroke-linecap="round" stroke-linejoin="round" stroke-miterlimit="10" stroke-dasharray="none" stroke-opacity="" data-original="#000000" opacity="1"></path><path d="M0 0v0c12.301-12.302 32.246-12.302 44.547 0l70.357 70.356a4 4 0 0 1 0 5.658l-38.89 38.89a4 4 0 0 1-5.658 0L0 44.547C-12.302 32.246-12.302 12.301 0 0Z" style="stroke-width:15;stroke-linecap:round;stroke-linejoin:round;stroke-miterlimit:10;stroke-dasharray:none;stroke-opacity:1" transform="translate(339.947 216.219)" fill="none" stroke="#3265ab" stroke-width="15" stroke-linecap="round" stroke-linejoin="round" stroke-miterlimit="10" stroke-dasharray="none" stroke-opacity="" data-original="#000000" opacity="1"></path><path d="m0 0 23.335-23.335-31.82-31.819-23.334 23.334Z" style="stroke-width:15;stroke-linecap:round;stroke-linejoin:round;stroke-miterlimit:10;stroke-dasharray:none;stroke-opacity:1" transform="translate(455.559 355.165)" fill="none" stroke="#3265ab" stroke-width="15" stroke-linecap="round" stroke-linejoin="round" stroke-miterlimit="10" stroke-dasharray="none" stroke-opacity="" data-original="#000000" opacity="1"></path><path d="m0 0 13.17-13.17" style="stroke-width:15;stroke-linecap:round;stroke-linejoin:round;stroke-miterlimit:10;stroke-dasharray:none;stroke-opacity:1" transform="translate(350.248 271.067)" fill="none" stroke="#3265ab" stroke-width="15" stroke-linecap="round" stroke-linejoin="round" stroke-miterlimit="10" stroke-dasharray="none" stroke-opacity="" data-original="#000000" opacity="1"></path><path d="m0 0 13.17-13.169" style="stroke-width:15;stroke-linecap:round;stroke-linejoin:round;stroke-miterlimit:10;stroke-dasharray:none;stroke-opacity:1" transform="translate(371.462 292.28)" fill="none" stroke="#3265ab" stroke-width="15" stroke-linecap="round" stroke-linejoin="round" stroke-miterlimit="10" stroke-dasharray="none" stroke-opacity="" data-original="#000000" opacity="1"></path><path d="m0 0 13.17-13.17" style="stroke-width:15;stroke-linecap:round;stroke-linejoin:round;stroke-miterlimit:10;stroke-dasharray:none;stroke-opacity:1" transform="translate(392.675 313.494)" fill="none" stroke="#3265ab" stroke-width="15" stroke-linecap="round" stroke-linejoin="round" stroke-miterlimit="10" stroke-dasharray="none" stroke-opacity="" data-original="#000000" opacity="1"></path><path d="M0 0v87.496" style="stroke-width:15;stroke-linecap:round;stroke-linejoin:round;stroke-miterlimit:10;stroke-dasharray:none;stroke-opacity:1" transform="translate(264.142 68.893)" fill="none" stroke="#3265ab" stroke-width="15" stroke-linecap="round" stroke-linejoin="round" stroke-miterlimit="10" stroke-dasharray="none" stroke-opacity="" data-original="#000000" opacity="1"></path><path d="M0 0v26.057" style="stroke-width:15;stroke-linecap:round;stroke-linejoin:round;stroke-miterlimit:10;stroke-dasharray:none;stroke-opacity:1" transform="translate(264.142 7.836)" fill="none" stroke="#3265ab" stroke-width="15" stroke-linecap="round" stroke-linejoin="round" stroke-miterlimit="10" stroke-dasharray="none" stroke-opacity="" data-original="#000000" opacity="1"></path><path d="M0 0c-.76 2.71-1.53 5.43-2.29 8.14-11.45 40.71-22.89 81.41-34.34 122.12-4.809 17.1-2.38 35.58 7.28 50.49a61.896 61.896 0 0 0 5.51 7.26c9.78 11.08 21.2 16.08 27.88 18.31" style="stroke-width:15;stroke-linecap:round;stroke-linejoin:round;stroke-miterlimit:10;stroke-dasharray:none;stroke-opacity:1" transform="translate(303.17 7.5)" fill="none" stroke="#3265ab" stroke-width="15" stroke-linecap="round" stroke-linejoin="round" stroke-miterlimit="10" stroke-dasharray="none" stroke-opacity="" data-original="#000000" opacity="1"></path><path d="M0 0h-60.365" style="stroke-width:15;stroke-linecap:round;stroke-linejoin:round;stroke-miterlimit:10;stroke-dasharray:none;stroke-opacity:1" transform="translate(94.1 128.713)" fill="none" stroke="#3265ab" stroke-width="15" stroke-linecap="round" stroke-linejoin="round" stroke-miterlimit="10" stroke-dasharray="none" stroke-opacity="" data-original="#000000" opacity="1"></path><path d="m0 0 30.052 44.504c2.727 4.038 8.384 4.756 12.033 1.526a17.039 17.039 0 0 0 5.043-17.606l-4.376-14.751a2.584 2.584 0 0 1 2.477-3.317h23.402c8.418 0 14.303-8.328 11.493-16.262L68.63-38.36a21.06 21.06 0 0 0-19.189-14.02L2.394-53.863a6.684 6.684 0 0 1-4.195-1.654l-67.262-58.916c-12.982-11.37-32.976-8.87-42.758 5.345-9.151 13.297-5.607 31.514 7.86 40.41z" style="stroke-width:15;stroke-linecap:round;stroke-linejoin:round;stroke-miterlimit:10;stroke-dasharray:none;stroke-opacity:1" transform="translate(139.406 129.08)" fill="none" stroke="#3265ab" stroke-width="15" stroke-linecap="round" stroke-linejoin="round" stroke-miterlimit="10" stroke-dasharray="none" stroke-opacity="" data-original="#000000" opacity="1"></path><path d="M0 0h-2.1c-11.65 0-21.1-9.45-21.1-21.11 0-5.83 2.36-11.11 6.18-14.93 3.82-3.82 9.1-6.18 14.92-6.18h3.79" style="stroke-width:15;stroke-linecap:round;stroke-linejoin:round;stroke-miterlimit:10;stroke-dasharray:none;stroke-opacity:1" transform="translate(89.34 402.91)" fill="none" stroke="#3265ab" stroke-width="15" stroke-linecap="round" stroke-linejoin="round" stroke-miterlimit="10" stroke-dasharray="none" stroke-opacity="" data-original="#000000" opacity="1"></path><path d="M0 0h2.62c11.66 0 21.11-9.45 21.11-21.11 0-5.83-2.36-11.11-6.179-14.93A21.052 21.052 0 0 0 2.62-42.22h-3.769" style="stroke-width:15;stroke-linecap:round;stroke-linejoin:round;stroke-miterlimit:10;stroke-dasharray:none;stroke-opacity:1" transform="translate(263.77 402.91)" fill="none" stroke="#3265ab" stroke-width="15" stroke-linecap="round" stroke-linejoin="round" stroke-miterlimit="10" stroke-dasharray="none" stroke-opacity="" data-original="#000000" opacity="1"></path><path d="M0 0v-33.83c0-23.79-9.65-45.34-25.24-60.93C-40.83-110.36-62.37-120-86.17-120c-47.59 0-86.17 38.58-86.17 86.17v31.65" style="stroke-width:15;stroke-linecap:round;stroke-linejoin:round;stroke-miterlimit:10;stroke-dasharray:none;stroke-opacity:1" transform="translate(262.99 402.54)" fill="none" stroke="#3265ab" stroke-width="15" stroke-linecap="round" stroke-linejoin="round" stroke-miterlimit="10" stroke-dasharray="none" stroke-opacity="" data-original="#000000" opacity="1"></path><path d="M0 0v-13.904" style="stroke-width:15;stroke-linecap:round;stroke-linejoin:round;stroke-miterlimit:10;stroke-dasharray:none;stroke-opacity:1" transform="translate(216.12 375.096)" fill="none" stroke="#3265ab" stroke-width="15" stroke-linecap="round" stroke-linejoin="round" stroke-miterlimit="10" stroke-dasharray="none" stroke-opacity="" data-original="#000000" opacity="1"></path><path d="M0 0v-13.904" style="stroke-width:15;stroke-linecap:round;stroke-linejoin:round;stroke-miterlimit:10;stroke-dasharray:none;stroke-opacity:1" transform="translate(137.517 375.096)" fill="none" stroke="#3265ab" stroke-width="15" stroke-linecap="round" stroke-linejoin="round" stroke-miterlimit="10" stroke-dasharray="none" stroke-opacity="" data-original="#000000" opacity="1"></path><path d="M0 0c1.488-1.055 6.217-4.12 12.902-3.88 5.785.207 9.84 2.774 11.398 3.88" style="stroke-width:15;stroke-linecap:round;stroke-linejoin:round;stroke-miterlimit:10;stroke-dasharray:none;stroke-opacity:1" transform="translate(164.668 318.472)" fill="none" stroke="#3265ab" stroke-width="15" stroke-linecap="round" stroke-linejoin="round" stroke-miterlimit="10" stroke-dasharray="none" stroke-opacity="" data-original="#000000" opacity="1"></path><path d="M0 0c-3.447-8.947-5.379-18.613-5.287-28.1C-5.14-43.302.005-55.238 3.7-62.125c12.45 8.65 31.566 19.804 51.067 22.103 3.811.449 6.552.479 7.386.42 9.051-.639 16.811-5.781 36.635-13.421 13.008-5.015 38.843-14.973 60.713-11.866 40.976 5.821 71.502 57.996 63.762 69.317-5.84 8.541-30.494-13.969-55.026.58-17.14 10.165-19.71 28.09-37.976 34.635-14.83 5.312-30.572-.258-42.608-6.805a7.843 7.843 0 0 0-7.477-.034c-7.819 4.177-25.43 11.52-45.062 5.181-5.475-1.767-10.687-4.882-15.437-8.996" style="stroke-width:15;stroke-linecap:round;stroke-linejoin:round;stroke-miterlimit:10;stroke-dasharray:none;stroke-opacity:1" transform="translate(86.95 462.484)" fill="none" stroke="#3265ab" stroke-width="15" stroke-linecap="round" stroke-linejoin="round" stroke-miterlimit="10" stroke-dasharray="none" stroke-opacity="" data-original="#000000" opacity="1"></path></g></g></svg>