<svg xmlns="http://www.w3.org/2000/svg" version="1.1" xmlns:xlink="http://www.w3.org/1999/xlink" width="512" height="512" x="0" y="0" viewBox="0 0 234.472 260.539" style="enable-background:new 0 0 512 512" xml:space="preserve"><g><path d="m128.9 24.808-.729-2.391-52.196 15.92c1.647.245 3.246.637 4.79 1.153zM52.56 45.479 0 61.511l.729 2.391 48.489-14.79a28.828 28.828 0 0 1 3.342-3.633zM134.443 32.648l-.729-2.391-44.672 13.626c.787.602 1.54 1.245 2.259 1.925zM5.543 69.351l.729 2.391 37.691-11.497c.22-.973.489-1.927.806-2.859zM.004 39.105 128.242-.023l.73 2.393L.734 41.498zM5.552 46.948 133.79 7.82l.73 2.392L6.282 49.34zM43.631 71.102a23.265 23.265 0 0 1-.071-.461L0 83.928l.729 2.391 39.442-12.031c1.084-1.243 2.232-2.317 3.46-3.186zM128.9 47.225l-.729-2.391-30.716 9.369c.363.753.689 1.526.985 2.313zM5.543 91.768l.729 2.391 27.618-8.424a51.652 51.652 0 0 1 1.161-2.968zM134.443 55.065l-.729-2.391-33.687 10.275c.106.84.176 1.69.206 2.551zM0 106.345l.729 2.391 29.62-9.035c.166-.947.341-1.87.522-2.773zM128.9 69.641l-.729-2.391-24.443 7.456a26.468 26.468 0 0 1 1.581 2.131zM134.443 77.481l-.729-2.391-25.228 7.695c.321.747.631 1.524.931 2.33zM5.543 114.185l.729 2.391 22.683-6.919c.1-.924.209-1.82.32-2.711zM0 128.761l.729 2.391 27.206-8.298c.046-.898.095-1.785.148-2.659zM128.9 92.058l-.729-2.391-16.016 4.885c.18.798.352 1.619.519 2.455zM5.543 136.601l.729 2.391 21.318-6.503c.019-.884.038-1.769.063-2.633zM134.443 99.898l-.729-2.391-19.913 6.074c.12.824.239 1.653.349 2.507z" fill="#3265ab" opacity="1" data-original="#000000"></path><path d="M64.796 159.126c0-3.86 3.141-7 7-7 2.746 0 5.122 1.594 6.268 3.902l58.281-22.923-.627-1.595-.471-1.197-19.228 7.563-6.01 2.364c-.168-37.473-5.007-59.178-14.451-64.745a7.813 7.813 0 0 0-.545-.354C91.504 84.58 82.405 91.324 71.76 91.324c-10.646 0-19.744-6.744-23.254-16.183a7.81 7.81 0 0 0-.591.388c-11.567 6.913-16.205 38.112-13.777 92.951a7.999 7.999 0 0 0 8.345 7.638 8 8 0 0 0 7.639-8.346c-1.38-31.18-.173-50.269 1.581-61.849l2.276.251c-1.713 11.279-2.945 30.195-1.559 61.496a10.238 10.238 0 0 1-2.692 7.409 10.228 10.228 0 0 1-5.014 3.015v70.081c0 6.83 5.537 12.363 12.363 12.363 6.828 0 12.365-5.533 12.365-12.363V165.71c-2.703-.97-4.646-3.551-4.646-6.584zm24.756-52.951 2.276-.251c1.314 8.678 2.321 21.574 2.163 40.616l-2.309.908c.202-19.607-.823-32.668-2.13-41.273z" fill="#3265ab" opacity="1" data-original="#000000"></path><path d="M93.803 175.08a10.238 10.238 0 0 1-2.692-7.409c.216-4.872.368-9.444.465-13.734l-12.788 5.03c.001.053.008.105.008.159 0 3.061-1.978 5.662-4.719 6.611v82.439c0 6.83 5.537 12.363 12.363 12.363 6.828 0 12.365-5.533 12.365-12.363V178.091a10.224 10.224 0 0 1-5.002-3.011z" fill="#3265ab" opacity="1" data-original="#000000"></path><path d="M101.407 176.126a8 8 0 0 0 7.986-7.646c.342-7.737.541-14.993.603-21.787l-16.102 6.333c-.095 4.59-.253 9.493-.485 14.747a8.001 8.001 0 0 0 7.998 8.353zM94.259 66.523c0-12.427-10.072-22.5-22.5-22.5-12.426 0-22.5 10.073-22.5 22.5s10.074 22.5 22.5 22.5c12.428 0 22.5-10.073 22.5-22.5zM81.372 79.459l-.986 2.834c-10.684-3.717-17.133.305-17.195.345l-1.623-2.523c.31-.202 7.751-4.848 19.804-.656zM197.739 73.497c-25.512-5.906-50.982 9.988-56.888 35.501-5.906 25.512 9.988 50.982 35.501 56.888s50.982-9.988 56.888-35.501-9.988-50.982-35.501-56.888zm-19.815 85.598c-21.762-5.038-35.319-26.763-30.282-48.525a40.258 40.258 0 0 1 8.798-17.319l24.176 24.176c-.356.39-.651.803-.882 1.202-.745 1.316-1.077 2.487-1.425 3.476-.33.991-.623 1.807-.913 2.451a9.641 9.641 0 0 1-.818 1.503c-1.464-.714-3.181-.561-4.319.527a3.43 3.43 0 0 0-.886 1.453c1.211.373 2.361 1.114 3.279 2.073s1.607 2.141 1.926 3.367a3.43 3.43 0 0 0 1.49-.821c1.108-1.06 1.35-2.709.762-4.175.292-.381.93-1.316 1.472-2.712.322-.807.612-1.756.899-2.763.292-.996.582-2.088 1.043-2.982.116-.221.238-.42.37-.6l30.867 30.867c-9.434 8.139-22.486 11.828-35.557 8.802zm48.525-30.282a40.249 40.249 0 0 1-8.799 17.319l-27.812-27.812c1.133-.007 2.301-.048 3.51-.214.425-.065.85-.123 1.284-.241.43-.086.865-.24 1.296-.402.847-.358 1.726-.847 2.359-1.615l.247-.272.198-.305c.127-.205.268-.406.377-.617.167-.441.399-.849.483-1.32l.16-.687c.056-.233.05-.406.078-.612l.061-.593.018-.198.008-.146.016-.292c.085-1.554.221-3.05.622-4.39a8.455 8.455 0 0 1 1.985-3.456c.895-.948 1.906-1.712 2.873-2.372 1.954-1.305 3.748-2.157 4.967-2.804 1.248-.609 1.949-.978 1.927-1.031-.022-.052-.776.192-2.083.662-1.293.516-3.166 1.216-5.279 2.414-1.05.61-2.17 1.335-3.227 2.316a9.684 9.684 0 0 0-2.516 3.812c-.552 1.509-.784 3.118-.963 4.705-.177 1.56-.458 2.962-1.395 3.845-.866.913-2.287 1.256-3.751 1.387-1.475.127-3.016.049-4.521-.041l-1.285-.088-26.679-26.679c9.437-8.139 22.489-11.827 35.559-8.802 21.762 5.042 35.319 26.768 30.282 48.529z" fill="#3265ab" opacity="1" data-original="#000000"></path><path d="M167.379 130.213c-3.697 3.538-5.16 8.009-3.268 9.986 1.892 1.978 6.423.713 10.12-2.825s-3.155-10.699-6.852-7.161z" fill="#3265ab" opacity="1" data-original="#000000"></path><circle cx="71.796" cy="159.126" r="4" fill="#3265ab" opacity="1" data-original="#000000"></circle></g></svg>