<svg xmlns="http://www.w3.org/2000/svg" version="1.1" xmlns:xlink="http://www.w3.org/1999/xlink" width="512" height="512" x="0" y="0" viewBox="0 0 96 96" style="enable-background:new 0 0 512 512" xml:space="preserve"><g><path d="M65.29 54.16v-36.6a1 1 0 0 0-1-1H5.8a1 1 0 0 0-1 1v36.6a1 1 0 0 0 1 1h58.49a1 1 0 0 0 1-1Zm-2-1H6.8v-34.6h56.49ZM9.1 63.65H7a1 1 0 0 0 0 2h2.1a1 1 0 0 0 0-2ZM15.8 63.65h-2.1a1 1 0 0 0 0 2h2.1a1 1 0 1 0 0-2ZM22.5 63.65h-2.1a1 1 0 0 0 0 2h2.1a1 1 0 0 0 0-2Z" fill="#3265ab" opacity="1" data-original="#000000"></path><path d="M15.2 37.61a36.3 36.3 0 0 0 22 7.29 36.63 36.63 0 0 0 22-7.29 1 1 0 0 0 .09-1.53L48.41 25.75a1 1 0 0 0-1.29-.07 16.61 16.61 0 0 1-19.85 0 1 1 0 0 0-1.29.07L15.11 36.08a1 1 0 0 0 .09 1.53ZM57 36.7a34.82 34.82 0 0 1-39.67 0l2.08-2a33.35 33.35 0 0 0 35.51 0Zm-30.24-8.93a18.64 18.64 0 0 0 20.87 0l5.81 5.52a31.35 31.35 0 0 1-32.49 0ZM10.2 50.11h3.5a1 1 0 1 0 0-2h-3.5a1 1 0 0 0 0 2ZM10.2 46.17H12a1 1 0 1 0 0-2h-1.8a1 1 0 0 0 0 2ZM47.49 65.65h15.85a1 1 0 0 0 0-2H47.49a1 1 0 0 0 0 2ZM55.44 49.11a1 1 0 0 0 1 1H60a1 1 0 0 0 0-2h-3.56a1 1 0 0 0-1 1ZM10.2 23.13h3.5a1 1 0 0 0 0-2h-3.5a1 1 0 0 0 0 2Z" fill="#3265ab" opacity="1" data-original="#000000"></path><path d="M94.15 11.76h-3a1.8 1.8 0 0 0-1.77 1.53h-3.13A12.3 12.3 0 0 0 74 25.57v15a3.12 3.12 0 0 0 2.13 2.95V47a1 1 0 0 0 1 1h2.77v27.16a13.1 13.1 0 0 1-13.11 13.08H5.31a3.32 3.32 0 0 1 0-6.63h3.52l-.65 1.14a1 1 0 0 0 .87 1.5H61a1 1 0 0 0 .87-1.5l-1.47-2.64a6.9 6.9 0 0 0-6-3.46h-9v-5.3h21.5a3.19 3.19 0 0 0 3.19-3.18V12.76a1 1 0 0 0-1-1h-18l-2.45-4a4.23 4.23 0 0 0-3.64-2H25.08a4.31 4.31 0 0 0-3.65 2l-2.44 4H1a1 1 0 0 0-1 1v55.41a3.19 3.19 0 0 0 3.19 3.18h21.46v5.3h-9a6.9 6.9 0 0 0-5.64 3h-4.7a5.32 5.32 0 0 0 0 10.63h61.48a15.1 15.1 0 0 0 15.08-15.12V48h2.77a1 1 0 0 0 1-1v-3.53a3.12 3.12 0 0 0 2.13-2.95V27.1h1.6a1.8 1.8 0 0 0 1.77 1.51h3a1.79 1.79 0 0 0 1.79-1.79V13.56a1.8 1.8 0 0 0-1.78-1.8ZM68.09 68.17a1.18 1.18 0 0 1-1.19 1.18h-23a1.19 1.19 0 0 1-1.19-1.18V60h25.38Zm-45-59.32a2.32 2.32 0 0 1 1.95-1.09H45a2.26 2.26 0 0 1 2 1.09l1.8 2.91H21.34ZM2 13.76h66.09V58H2Zm0 54.41V60h38.74c0 9-.08 8.61.24 9.4H3.19A1.18 1.18 0 0 1 2 68.17Zm24.65 3.18h16.79v5.3H26.65Zm-11 7.3h38.78a4.86 4.86 0 0 1 4.23 2.46l.66 1.14H10.77l.66-1.14a4.86 4.86 0 0 1 4.23-2.46ZM83.64 46H78.1v-2.35h5.54Zm2.13-9.18h-4.06a.29.29 0 0 1-.29-.29V31a.29.29 0 0 1 .29-.29h4.06Zm1.9-11.73a1.9 1.9 0 0 0-1.9 1.9v1.67h-4.06A2.3 2.3 0 0 0 79.42 31v5.58a2.3 2.3 0 0 0 2.29 2.29h4.06v1.69a1.14 1.14 0 0 1-1.13 1.13H77.1a1.13 1.13 0 0 1-1.1-1.17v-15a10.29 10.29 0 0 1 10.25-10.23h3.1v9.81Zm6.27 1.51h-2.59V13.76h2.59Z" fill="#3265ab" opacity="1" data-original="#000000"></path></g></svg>