<svg xmlns="http://www.w3.org/2000/svg" version="1.1" xmlns:xlink="http://www.w3.org/1999/xlink" width="512" height="512" x="0" y="0" viewBox="0 0 512 512" style="enable-background:new 0 0 512 512" xml:space="preserve" class=""><g><path d="M255.873 412v22.25c0 12.288-9.962 22.25-22.25 22.25h-156.5c-12.288 0-22.25 9.962-22.25 22.25S64.835 501 77.123 501h282.642c13.314 0 24.108-10.794 24.108-24.108v-44.254M320.879 102.5c-40.879 19.724-88.88 19.724-129.759 0l-73.843 124.091C154.947 257.764 203.285 276.5 256 276.5s101.054-18.734 138.724-49.907L320.879 102.5z" style="stroke-width:22;stroke-linejoin:round;stroke-miterlimit:10;" fill="none" stroke="#3265ab" stroke-width="22" stroke-linejoin="round" stroke-miterlimit="10" data-original="#33cccc" opacity="1"></path><path d="M288.923 179.331a117.32 117.32 0 0 1-4.2 1.069c-11.966 2.81-24.403-.987-33.075-9.698-4.996-5.018-11.621-8.553-19.305-9.68-16.294-2.39-33.706 9.172-37.895 25.099-4.918 18.697 6.591 37.636 25.292 41.985 28.083 6.53 56.157 5.583 82.14-1.537 15.556-4.262 22.588-22.37 14.269-36.189-5.614-9.323-16.732-13.929-27.226-11.049zM335.882 350.684h95.982" style="stroke-width:22;stroke-linejoin:round;stroke-miterlimit:10;" fill="none" stroke="#3265ab" stroke-width="22" stroke-linejoin="round" stroke-miterlimit="10" data-original="#33cccc" opacity="1"></path><path d="M99 99h41.629M99 143.007h15.441" style="stroke-width:22;stroke-linecap:round;stroke-linejoin:round;stroke-miterlimit:10;" fill="none" stroke="#3265ab" stroke-width="22" stroke-linecap="round" stroke-linejoin="round" stroke-miterlimit="10" data-original="#000000" opacity="1"></path><path d="M422.553 368H457c24.301 0 44-19.699 44-44V55c0-24.301-19.699-44-44-44H55c-24.301 0-44 19.699-44 44v269c0 24.301 19.699 44 44 44h290.193M290.873 368v33.275c0 5.923-4.802 10.725-10.725 10.725h-48.55c-5.923 0-10.725-4.802-10.725-10.725V368" style="stroke-width:22;stroke-linejoin:round;stroke-miterlimit:10;" fill="none" stroke="#3265ab" stroke-width="22" stroke-linejoin="round" stroke-miterlimit="10" data-original="#000000" opacity="1"></path><path d="M430.308 324H457V55H55v269h282.438" style="stroke-width:22;stroke-linejoin:round;stroke-miterlimit:10;" fill="none" stroke="#3265ab" stroke-width="22" stroke-linejoin="round" stroke-miterlimit="10" data-original="#000000" opacity="1"></path><path d="M413.271 413.561v-28.919l16.655-29.86c12.025-21.559-3.561-48.099-28.247-48.099h-35.612c-24.686 0-40.272 26.54-28.247 48.099l16.655 29.86v28.919c0 10.536 8.541 19.076 19.076 19.076h20.642c10.537.001 19.078-8.54 19.078-19.076z" style="stroke-width:22;stroke-linejoin:round;stroke-miterlimit:10;" fill="none" stroke="#3265ab" stroke-width="22" stroke-linejoin="round" stroke-miterlimit="10" data-original="#000000" opacity="1"></path></g></svg>