<svg xmlns="http://www.w3.org/2000/svg" version="1.1" xmlns:xlink="http://www.w3.org/1999/xlink" width="512" height="512" x="0" y="0" viewBox="0 0 418.09 418.09" style="enable-background:new 0 0 512 512" xml:space="preserve"><g><path d="M370.209 5.754h-104v78h14v295.643c0 21.336 17.164 38.693 38.5 38.693 22.146 0 38.5-17.788 38.5-33.693V83.754h13zm-40 73v-68h10v68zm-5 0h-10v-68h10zm-15 0h-10v-68h10zm-15 0h-10v-68h10zm60 0h-10v-68h10zm-84-68h9v68h-9zm81 331h-31v-160h31zm0-165h-31v-16h31zm0-21h-36v65.001c-6 1.689-10.313 7.13-10.313 13.691s4.313 12.002 10.313 13.691v98.617h36v37.643c0 13.269-14.525 28.693-33.5 28.693-18.578 0-33.5-15.115-33.5-33.693V135.754h67v7.844zm-36 70.297v16.79c-3-1.458-5.313-4.647-5.313-8.395.001-3.748 2.313-6.937 5.313-8.395zm36-123.453v28.156h-67v-47h67zm13-23.844h-5v-68h5z" fill="#3265ab" opacity="1" data-original="#000000"></path><path d="M301.143 175.891c-6.143 0-11.14 4.998-11.14 11.141s4.997 11.14 11.14 11.14 11.141-4.997 11.141-11.14-4.998-11.141-11.141-11.141zm0 17.28c-3.386 0-6.14-2.754-6.14-6.14s2.754-6.141 6.14-6.141 6.141 2.755 6.141 6.141-2.755 6.14-6.141 6.14zM169.341 210.715c.002-.187-.132-.373-.132-.56V99.754h15v-21h-6.946l6.076-37.362a36.286 36.286 0 0 0-8.457-29.016C168.09 4.511 158.403 0 148.302 0c-10.168 0-19.855 4.466-26.579 12.253-6.82 7.896-9.981 18.804-8.45 29.213l6.068 37.288h-7.132v21h15v110.401c0 .179-.041.358-.039.537-45.242 9.732-79.289 50.015-79.289 98.122 0 55.355 45.023 100.391 100.38 100.391 55.355 0 100.315-45.035 100.315-100.391-.001-48.069-34.047-88.326-79.235-98.099zm-34.982 29.38c3.712 7.425 5.851 15.736 5.851 24.036v46.623h17v-46.623c0-8.3 1.731-16.611 5.443-24.036 1.76-3.521 3.087-7.203 4.201-10.983 36.244 8.407 63.288 40.939 63.288 79.703 0 45.124-36.741 81.835-81.865 81.835s-81.85-36.711-81.85-81.835c0-38.8 27.233-71.354 63.528-79.724 1.115 3.787 2.64 7.476 4.404 11.004zm-17.15-145.341v-11h8.011L118.214 40.7c-1.317-8.954 1.408-18.367 7.293-25.18C131.281 8.835 139.589 5 148.302 5c8.646 0 16.954 3.88 22.796 10.644 5.96 6.901 8.618 16.021 7.3 24.982l-7.014 43.128h7.825v11h-52.095zm47 5v110.401c0 9.567-1.891 19.147-6.169 27.703-4.057 8.116-5.831 17.201-5.831 26.272v41.623h-7V264.13c0-9.071-2.274-18.156-6.331-26.272-4.278-8.556-6.669-18.136-6.669-27.703V99.754zm-15.961 304.451c-52.599 0-95.392-42.792-95.392-95.391 0-45.42 31.92-83.501 74.499-93.056.242 2.849.67 5.682 1.272 8.478-38.46 8.92-67.215 43.444-67.215 84.578 0 47.881 38.954 86.835 86.836 86.835s86.836-38.954 86.836-86.835c0-41.097-28.704-75.598-67.113-84.555a67.403 67.403 0 0 0 1.276-8.478c42.526 9.594 74.392 47.65 74.392 93.033 0 52.599-42.792 95.391-95.391 95.391z" fill="#3265ab" opacity="1" data-original="#000000"></path><path d="M113.032 370.214a60.438 60.438 0 0 0 24.031 8.109c.923.106 1.85.161 2.757.161 5.7 0 10.999-2.19 14.175-5.859 2.385-2.756 3.305-6.067 2.533-9.102l-.515-2.626-.029-.133c-1.814-7.173-9.062-11.244-15.484-12.103a30.817 30.817 0 0 1-12.281-4.158c-5.585-3.184-13.823-4.32-19.642.311l-2.014 1.79c-2.482 1.973-3.774 5.18-3.548 8.816.278 4.438 3.056 10.654 10.017 14.794zm-3.328-19.72 2.038-1.809c3.987-3.126 9.896-2.177 13.977.148a35.63 35.63 0 0 0 14.161 4.789c4.689.627 9.971 3.438 11.24 8.307l.516 2.629.037.161c.374 1.412-.171 3.145-1.46 4.634-1.729 1.997-5.366 4.131-10.394 4.131-.715 0-1.449-.043-2.181-.128a55.482 55.482 0 0 1-22.055-7.441c-5.285-3.144-7.381-7.644-7.579-10.806-.123-1.996.496-3.677 1.7-4.615zM168.927 354.457c2.958 2.611 7.279 4.109 11.854 4.109a23.09 23.09 0 0 0 5.688-.732 60.441 60.441 0 0 0 22.729-11.258c6.343-5.031 8.262-11.564 7.942-16-.262-3.636-1.952-6.628-4.644-8.229l-2.223-1.494-.115-.072c-6.353-3.786-14.357-1.54-19.506 2.392a30.71 30.71 0 0 1-11.518 5.718l-.104.026c-6.199 1.697-12.831 6.718-13.67 14.108l-.158 2.688c-.362 3.152.993 6.334 3.725 8.744zm1.247-8.212.162-2.72c.609-5.032 5.46-8.539 9.989-9.779a35.66 35.66 0 0 0 13.397-6.626c3.757-2.871 9.479-4.62 13.822-2.076l2.225 1.496.14.087c1.263.733 2.103 2.344 2.244 4.309.228 3.162-1.246 7.902-6.062 11.722a55.46 55.46 0 0 1-20.857 10.332 18.068 18.068 0 0 1-4.452.577c-3.324 0-6.519-1.068-8.547-2.858-1.499-1.323-2.25-2.95-2.061-4.464z" fill="#3265ab" opacity="1" data-original="#000000"></path></g></svg>