<svg xmlns="http://www.w3.org/2000/svg" version="1.1" xmlns:xlink="http://www.w3.org/1999/xlink" width="512" height="512" x="0" y="0" viewBox="0 0 512 512" style="enable-background:new 0 0 512 512" xml:space="preserve"><g><path d="M328.111 324.374a4 4 0 0 0 3.993-3.821 105.211 105.211 0 0 1 1.907-15.756 4 4 0 0 0-7.848-1.559 113.573 113.573 0 0 0-2.051 16.957 4 4 0 0 0 3.818 4.175c.06.003.121.004.181.004ZM496 60H395.47a119.543 119.543 0 0 1-63.431-18.192 143.5 143.5 0 0 0-152.078 0 119.912 119.912 0 0 1-30.442 13.556A119.754 119.754 0 0 1 116.53 60H16a4 4 0 0 0 0 8h100.53a127.774 127.774 0 0 0 35.194-4.945A127.958 127.958 0 0 0 184.2 48.593a135.471 135.471 0 0 1 143.6 0A127.522 127.522 0 0 0 395.47 68H496a4 4 0 0 0 0-8ZM15.392 115.953l61.75 9.5A45.583 45.583 0 0 1 116 170.75a113.267 113.267 0 0 0 33.172 80.078A105.282 105.282 0 0 1 180 325.25v27.43a88.265 88.265 0 0 0 12.569 45.377A80.331 80.331 0 0 1 204 439.32V496a4 4 0 0 0 8 0v-56.68a88.349 88.349 0 0 0-12.569-45.378A80.24 80.24 0 0 1 188 352.68v-27.43a113.267 113.267 0 0 0-33.172-80.078A105.282 105.282 0 0 1 124 170.75a53.537 53.537 0 0 0-45.642-53.2l-61.75-9.5a4 4 0 0 0-1.216 7.906ZM300 496a4 4 0 0 0 8 0v-56.68a80.246 80.246 0 0 1 11.431-41.263 88.525 88.525 0 0 0 7.607-16.23 4 4 0 1 0-7.551-2.644 80.514 80.514 0 0 1-6.918 14.759A88.271 88.271 0 0 0 300 439.32ZM495.392 108.047l-61.75 9.5a53.84 53.84 0 0 0-32.668 18.153 4 4 0 1 0 6.072 5.207 45.842 45.842 0 0 1 27.812-15.45l61.75-9.5a4 4 0 1 0-1.216-7.906Z" fill="#3265ab" opacity="1" data-original="#000000"></path><path d="M499.945 95.343a4 4 0 0 0-4.6-3.288L397.872 108.3a60.026 60.026 0 0 0-48.672 46.926 4 4 0 1 0 7.84 1.6 51.979 51.979 0 0 1 42.148-40.637l97.469-16.241a4 4 0 0 0 3.288-4.605ZM495.733 76.009l-175.018 11.67a978.157 978.157 0 0 1-129.43 0L16.267 76.009a4 4 0 0 0-.534 7.982l175.021 11.67C212.4 97.1 234.2 97.822 256 97.822s43.6-.72 65.246-2.161l175.021-11.67a4 4 0 0 0-.534-7.982ZM15.376 99.951l105 16.58A51.437 51.437 0 0 1 164 167.58v2.81a96.645 96.645 0 0 0 37.545 76.767l23.255 18.086a20.14 20.14 0 0 0-8.794 6.341 26.134 26.134 0 0 0 0 32.832l2.958 3.7a35.757 35.757 0 0 0 0 39.774l-2.959 3.7a26.134 26.134 0 0 0 0 32.832 20.255 20.255 0 0 0 5.071 4.524A79.013 79.013 0 0 0 220 401.89V496a4 4 0 0 0 8 0v-20h56v20a4 4 0 0 0 8 0v-94.11a79.013 79.013 0 0 0-1.081-12.95 20.259 20.259 0 0 0 5.072-4.524 26.134 26.134 0 0 0 0-32.832l-2.958-3.7a35.757 35.757 0 0 0 0-39.774l2.959-3.7a26.134 26.134 0 0 0 0-32.832 20.149 20.149 0 0 0-7.875-5.98l20.465-14.328a4 4 0 1 0-4.588-6.552l-25.764 18.04a23.632 23.632 0 0 0-2.066 1.65A20.242 20.242 0 0 0 260 284.209v87.582a20.188 20.188 0 0 0 23.266 19.973c.2 1.4.354 2.815.471 4.236h-55.474c.117-1.421.27-2.834.471-4.236A20.188 20.188 0 0 0 252 371.791v-87.582a20.226 20.226 0 0 0-15.214-19.559 24.237 24.237 0 0 0-2.051-1.818l-28.279-21.989A88.7 88.7 0 0 1 172 170.39v-2.81a59.4 59.4 0 0 0-50.376-58.951l-105-16.58a4 4 0 0 0-1.248 7.9ZM268 371.791v-87.582a12.209 12.209 0 0 1 21.743-7.627 18.179 18.179 0 0 1 0 22.836l-4.867 6.083a4 4 0 0 0 0 5 27.86 27.86 0 0 1 0 35 4 4 0 0 0 0 5l4.866 6.083a18.179 18.179 0 0 1 0 22.836A12.21 12.21 0 0 1 268 371.791ZM228 428h56v16h-56Zm0-8v-16h56v16Zm0 48v-16h56v16Zm16-183.791v87.582a12.209 12.209 0 0 1-21.743 7.627 18.179 18.179 0 0 1 0-22.836l4.867-6.083a4 4 0 0 0 0-5 27.86 27.86 0 0 1 0-35 4 4 0 0 0 0-5l-4.866-6.083a18.179 18.179 0 0 1 0-22.836A12.21 12.21 0 0 1 244 284.209ZM408 164a76 76 0 1 0 76 76 76.087 76.087 0 0 0-76-76Zm0 144a68 68 0 1 1 68-68 68.077 68.077 0 0 1-68 68Z" fill="#3265ab" opacity="1" data-original="#000000"></path><path d="M434.219 236.672a47.147 47.147 0 0 0-52.438 0 4 4 0 0 0 0 6.656 47.141 47.141 0 0 0 52.438 0 4 4 0 0 0 0-6.656ZM392.3 240a39.121 39.121 0 0 1 31.394 0 39.121 39.121 0 0 1-31.394 0ZM391 263a16 16 0 1 0 16 16 16.019 16.019 0 0 0-16-16Zm0 24a8 8 0 1 1 8-8 8.009 8.009 0 0 1-8 8ZM380 256a12 12 0 1 0-12 12 12.013 12.013 0 0 0 12-12Zm-12 4a4 4 0 1 1 4-4 4 4 0 0 1-4 4ZM392 204a12 12 0 1 0-12-12 12.013 12.013 0 0 0 12 12Zm0-16a4 4 0 1 1-4 4 4 4 0 0 1 4-4ZM424 212a12 12 0 1 0-12-12 12.013 12.013 0 0 0 12 12Zm0-16a4 4 0 1 1-4 4 4 4 0 0 1 4-4ZM424 252a12 12 0 1 0 12 12 12.013 12.013 0 0 0-12-12Zm0 16a4 4 0 1 1 4-4 4 4 0 0 1-4 4ZM456 244a12 12 0 1 0 12 12 12.013 12.013 0 0 0-12-12Zm0 16a4 4 0 1 1 4-4 4 4 0 0 1-4 4ZM368 228a12 12 0 1 0-12-12 12.013 12.013 0 0 0 12 12Zm0-16a4 4 0 1 1-4 4 4 4 0 0 1 4-4ZM436 220a16 16 0 1 0 16-16 16.019 16.019 0 0 0-16 16Zm24 0a8 8 0 1 1-8-8 8.009 8.009 0 0 1 8 8Z" fill="#3265ab" opacity="1" data-original="#000000"></path><circle cx="428" cy="292" r="4" fill="#3265ab" opacity="1" data-original="#000000"></circle><circle cx="404" cy="220" r="4" fill="#3265ab" opacity="1" data-original="#000000"></circle><circle cx="449.375" cy="280" r="4" fill="#3265ab" opacity="1" data-original="#000000"></circle><path d="M408 148a92 92 0 0 0-64.047 158.042L308.5 370.063a4 4 0 0 0 5.723 5.262l69.6-46.543A92.007 92.007 0 1 0 408 148Zm0 176a84.078 84.078 0 0 1-23.739-3.407 4.02 4.02 0 0 0-3.353.512l-57.415 38.4 28.967-52.31a4 4 0 0 0-.814-4.9A84 84 0 1 1 408 324Z" fill="#3265ab" opacity="1" data-original="#000000"></path></g></svg>