<svg xmlns="http://www.w3.org/2000/svg" version="1.1" xmlns:xlink="http://www.w3.org/1999/xlink" width="512" height="512" x="0" y="0" viewBox="0 0 68 68" style="enable-background:new 0 0 512 512" xml:space="preserve"><g><path d="M39.184 67H28.815a1 1 0 0 1-.942-.665l-1.537-4.323-6.725-2.786-4.144 1.97c-.384.18-.838.102-1.136-.196L7 53.668a1 1 0 0 1-.197-1.136l1.97-4.143-2.786-6.725-4.322-1.538A1 1 0 0 1 1 39.184V28.815a1 1 0 0 1 .665-.942l4.322-1.537 2.786-6.725-1.97-4.144A1 1 0 0 1 7 14.331L14.33 7a1 1 0 0 1 1.136-.197l4.144 1.97 6.725-2.786 1.537-4.322A1 1 0 0 1 28.815 1h10.37a1 1 0 0 1 .941.665l1.538 4.322 6.725 2.786 4.143-1.97A.999.999 0 0 1 53.668 7L61 14.33a1 1 0 0 1 .196 1.136l-1.97 4.144 2.786 6.725 4.323 1.537a1 1 0 0 1 .665.942v10.37a1 1 0 0 1-.665.941l-4.323 1.538-2.785 6.725 1.97 4.143A1 1 0 0 1 61 53.668L53.668 61a1.003 1.003 0 0 1-1.136.196l-4.143-1.97-6.725 2.786-1.538 4.323a1 1 0 0 1-.942.665zm-9.663-2h8.958l1.449-4.077c.095-.266.298-.48.56-.589l7.546-3.126c.26-.107.556-.1.812.021l3.907 1.858 6.334-6.334-1.858-3.907a1.001 1.001 0 0 1-.02-.812l3.125-7.547c.109-.26.323-.464.59-.56L65 38.48V29.52l-4.077-1.45a1.002 1.002 0 0 1-.589-.559l-3.125-7.546c-.108-.262-.1-.557.02-.812l1.858-3.908-6.334-6.333-3.907 1.858a1.005 1.005 0 0 1-.812.02l-7.547-3.126a1.002 1.002 0 0 1-.56-.589L38.48 3H29.52l-1.45 4.076c-.094.267-.298.48-.559.589l-7.546 3.126a.999.999 0 0 1-.812-.02l-3.908-1.858-6.333 6.333 1.858 3.908c.12.255.128.55.02.812l-3.126 7.546a1.002 1.002 0 0 1-.589.56L3 29.52v8.958l4.076 1.449c.267.095.48.298.589.56l3.126 7.546c.108.261.1.556-.02.812l-1.858 3.907 6.333 6.334 3.908-1.858a.999.999 0 0 1 .812-.02l7.546 3.125c.261.109.465.323.56.59z" fill="#3265ab" opacity="1" data-original="#000000"></path><path d="M34 57.446c-12.928 0-23.446-10.518-23.446-23.446S21.072 10.554 34 10.554 57.446 21.072 57.446 34 46.928 57.446 34 57.446zm0-44.892c-11.825 0-21.446 9.62-21.446 21.446S22.174 55.446 34 55.446 55.446 45.826 55.446 34 45.826 12.554 34 12.554z" fill="#3265ab" opacity="1" data-original="#000000"></path><path d="M29.228 27.932c-.977 0-1.846-.306-2.484-.945-1.737-1.737-1.004-5.19 1.669-7.862 2.672-2.672 6.127-3.404 7.862-1.668 1.741 1.74 1.012 5.197-1.66 7.87-1.693 1.692-3.7 2.605-5.387 2.605zm4.579-9.414c-1.077 0-2.629.67-3.98 2.021-1.918 1.918-2.463 4.24-1.669 5.034.798.8 3.123.258 5.042-1.66 1.975-1.976 2.46-4.243 1.661-5.042-.235-.235-.603-.353-1.054-.353z" fill="#3265ab" opacity="1" data-original="#000000"></path><path d="M18.483 36.247a1 1 0 0 1-.141-1.99c1.73-.249 3.394-1.912 3.636-3.632.366-2.614 2.708-4.957 5.33-5.334a1 1 0 1 1 .285 1.98c-1.73.248-3.394 1.912-3.635 3.631-.366 2.614-2.708 4.957-5.331 5.335-.048.007-.096.01-.144.01zM41.156 40.336c-.977 0-1.846-.306-2.485-.945-1.736-1.736-1.004-5.19 1.669-7.862 2.674-2.673 6.127-3.404 7.863-1.669 1.74 1.741 1.01 5.198-1.661 7.87-1.692 1.693-3.7 2.606-5.386 2.606zm4.578-9.414c-1.077 0-2.629.67-3.98 2.02-1.918 1.919-2.463 4.24-1.669 5.035.798.798 3.123.258 5.042-1.66 1.918-1.92 2.46-4.245 1.662-5.043-.235-.234-.603-.352-1.055-.352z" fill="#3265ab" opacity="1" data-original="#000000"></path><path d="M30.594 48.467a1 1 0 0 1-.131-1.99c1.696-.228 3.313-1.844 3.532-3.53.338-2.597 2.644-4.905 5.25-5.254.544-.068 1.051.31 1.125.858a1 1 0 0 1-.859 1.124c-1.696.227-3.313 1.844-3.532 3.53-.337 2.596-2.644 4.904-5.25 5.253a1.04 1.04 0 0 1-.135.01zM41.878 26.85c-1.93 0-3.5-1.57-3.5-3.5s1.57-3.5 3.5-3.5 3.5 1.57 3.5 3.5-1.57 3.5-3.5 3.5zm0-5a1.501 1.501 0 1 0 1.5 1.5c0-.828-.672-1.5-1.5-1.5zM40.696 50.88c-1.887 0-3.423-1.535-3.423-3.422s1.536-3.423 3.423-3.423 3.422 1.535 3.422 3.423-1.535 3.422-3.422 3.422zm0-4.845c-.785 0-1.423.638-1.423 1.423 0 .784.638 1.422 1.423 1.422.784 0 1.422-.638 1.422-1.422 0-.785-.638-1.423-1.422-1.423zM30.042 36.484a1.001 1.001 0 0 1-.265-1.965c.142-.041 1.3-.412 1.312-1.567a1 1 0 0 1 1-.989h.012a1 1 0 0 1 .988 1.012c-.025 2.167-1.836 3.22-2.79 3.475a1.007 1.007 0 0 1-.257.034zM26.851 44.563c-.064 0-.128-.002-.193-.006-2.154-.147-4.25-2.796-4.483-3.098a1 1 0 0 1 1.585-1.22c.717.928 2.132 2.261 3.034 2.322a.604.604 0 0 0 .51-.197 1 1 0 0 1 1.405 1.424 2.593 2.593 0 0 1-1.858.775zM18.483 29.52a1 1 0 0 1-.997-.936c-.19-2.968 3.304-5.725 3.702-6.03a1 1 0 0 1 1.215 1.59c-.79.606-3.024 2.7-2.92 4.312a1 1 0 0 1-1 1.064z" fill="#3265ab" opacity="1" data-original="#000000"></path></g></svg>