<svg xmlns="http://www.w3.org/2000/svg" version="1.1" xmlns:xlink="http://www.w3.org/1999/xlink" width="512" height="512" x="0" y="0" viewBox="0 0 512 512" style="enable-background:new 0 0 512 512" xml:space="preserve"><g><path d="M208.659 181.107c39.841 0 72.255-32.467 72.255-72.372 0-39.841-32.414-72.254-72.255-72.254-39.905 0-72.371 32.413-72.371 72.254 0 39.906 32.466 72.372 72.371 72.372zm0-132.381c33.091 0 60.011 26.919 60.011 60.01 0 33.155-26.92 60.128-60.011 60.128-33.154 0-60.129-26.973-60.129-60.128 0-33.091 26.975-60.01 60.129-60.01zm-6.121 12.241v-6a6.122 6.122 0 1 1 12.243 0v6a6.121 6.121 0 0 1-12.243 0zm47.768 47.769a6.122 6.122 0 0 1 6.122-6.121h6a6.123 6.123 0 0 1 0 12.243h-6a6.123 6.123 0 0 1-6.122-6.122zm-35.525 47.887v6a6.124 6.124 0 0 1-6.122 6.123 6.123 6.123 0 0 1-6.121-6.123v-6a6.122 6.122 0 1 1 12.243 0zm-47.887-47.887a6.123 6.123 0 0 1-6.121 6.122h-6.002a6.122 6.122 0 0 1 0-12.243h6.002a6.122 6.122 0 0 1 6.121 6.121zm23.035 18.73a6.122 6.122 0 0 1 0-8.658l12.609-12.606V76.21a6.123 6.123 0 0 1 6.121-6.124 6.124 6.124 0 0 1 6.122 6.124v32.526a6.131 6.131 0 0 1-1.793 4.329l-14.401 14.401c-1.197 1.195-2.763 1.792-4.329 1.792s-3.133-.597-4.329-1.792zm-106.33 104.17c21.111 0 38.288-17.23 38.288-38.409 0-21.109-17.177-38.285-38.288-38.285s-38.287 17.175-38.287 38.285c0 21.179 17.175 38.409 38.287 38.409zm0-64.451c14.361 0 26.046 11.683 26.046 26.042 0 14.429-11.685 26.166-26.046 26.166-14.363 0-26.044-11.736-26.044-26.166 0-14.359 11.68-26.042 26.044-26.042zm422.35-99.617c0 7.48-6.03 13.564-13.442 13.564h-36.126v388.264a6.122 6.122 0 1 1-12.243 0V81.132h-36.126c-7.478 0-13.562-6.084-13.562-13.564a6.122 6.122 0 1 1 12.243 0c0 .705.616 1.321 1.318 1.321h36.126v-.24a6.122 6.122 0 1 1 12.243 0v.24h36.126c.662 0 1.199-.593 1.199-1.321a6.122 6.122 0 0 1 12.244 0zM427.697 83.41H397.69c-5.891 0-10.683 4.792-10.683 10.684v36.966c0 7.853 5.229 14.442 12.363 16.659v8.545a6.122 6.122 0 0 0 6.121 6.121h1.08v32.067c-2.788 38.498-17.096 39.114-48.377 40.474-2.276.1-4.616.199-7.003.319-24.212 1.152-58.47 4.009-76.403 15.521-5.725 3.763-10.317 8.185-14.758 12.463a203.564 203.564 0 0 1-5.61 5.225c-10.99-1.956-21.533-4.606-30.605-8.589-12.434-5.383-23.444-11.482-34.094-17.383l-6.443-3.554c-5.063-2.634-12.88-4.513-22.319.053-19.353-8.794-42.051-14.63-75.342-2.501-4.511 1.721-7.688 5.432-8.707 10.125-1.067 4.695.309 9.514 3.606 12.811l55.33 57.251a6.122 6.122 0 0 0 3.681 1.824l4.68.555v9.327h-3.047l-93.57-96.63c-4.437-4.669-10.445-7.315-16.921-7.454-6.504-.146-12.663 2.271-17.373 6.824-9.473 9.314-9.684 24.647-.471 34.183l85.395 88.402H39.072a6.122 6.122 0 0 0-6.122 6.122v23.524a6.122 6.122 0 0 0 6.122 6.121h3.599v44.981c-5.86 4.078-9.721 10.843-9.721 18.508 0 12.442 10.122 22.566 22.563 22.566 12.375 0 22.444-10.125 22.444-22.566v-25.683H394.69v7.172c-5.862 4.081-9.724 10.845-9.724 18.511 0 12.442 10.124 22.566 22.565 22.566 12.019 0 21.783-9.473 22.441-21.33a6.29 6.29 0 0 0 .122-1.237V272.205a6.121 6.121 0 1 0-12.242 0v45.935c-4.325-9.952-7.502-23.107-9.568-31.668-1.024-4.249-1.909-7.916-2.728-10.5-2.385-7.425-6.579-17.688-15.442-21.053-5.865-2.229-12.415-1.123-19.977 3.348-7.078 4.103-12.396 8.955-16.693 15.206-.674.952-1.425 2.239-2.188 3.569-.409.711-.997 1.74-1.497 2.514-2.794.287-9.61-.37-14.586-1.274-11.133-1.793-22.38-3.031-31.908-4.005-3.319-.347-6.758-.676-10.273-1.019-7.501-.726-15.323-1.504-23.14-2.486 3.742-3.589 7.385-6.966 11.603-9.739 17.19-11.032 57.179-12.935 70.334-13.561 2.373-.117 4.687-.218 6.935-.316 31.595-1.371 56.552-2.454 60.074-52.051a7.05 7.05 0 0 0 .016-.434v-32.286h.961a6.12 6.12 0 0 0 6.12-6.121v-8.534c7.2-2.208 12.482-8.802 12.482-16.67V94.093c.001-5.891-4.791-10.683-10.68-10.683zM89.248 250.831c-.261-.259-.585-.702-.391-1.573.154-.7.489-1.101 1.039-1.31 26.277-9.572 44.733-6.884 63.133.928l-4.646 10.316c-2.258-2.255-4.646-4.639-7.288-7.281a6.122 6.122 0 0 0-8.657 8.659c5.23 5.228 9.619 9.606 13.346 13.32.078.086.165.163.246.246 8.949 8.911 13.563 13.465 13.563 13.465a6.106 6.106 0 0 0 3.04 1.632c32.886 6.912 50.541 10.716 52.868 11.219 3.311 1.082 5.52 4.077 5.52 7.517 0 3.205-1.843 6.022-4.685 7.312l-73.201-8.693zm-67.619 5.956c-4.564-4.722-4.452-12.324.214-16.91 2.303-2.229 5.298-3.466 8.564-3.351a11.74 11.74 0 0 1 8.347 3.689l95.417 98.534a6.117 6.117 0 0 0 4.396 1.864h5.64v13.083H115.24zm23.564 109.152h372.66V377.217H45.193zm372.661 23.523v25.564h-10.919v-25.564zm-352.139 0v25.564H54.914v-25.564zm-10.201 73.812c-5.69 0-10.32-4.63-10.32-10.323 0-5.691 4.63-10.32 10.32-10.32 5.625 0 10.201 4.629 10.201 10.32 0 5.693-4.576 10.323-10.201 10.323zm10.201-30.304c-3.075-1.596-6.508-2.581-10.201-2.581-.204 0-.395.055-.6.059v-3.179h10.801zm12.243-17.944v-25.564H394.69v25.564zm328.977 12.243h10.919v5.736c-3.107-1.616-6.583-2.616-10.321-2.616-.203 0-.395.055-.598.059zm.597 36.005c-5.595 0-10.321-4.726-10.321-10.323 0-5.595 4.727-10.32 10.321-10.32 5.596 0 10.321 4.725 10.321 10.32.001 5.597-4.725 10.323-10.321 10.323zM302.01 286.451c9.364.96 20.394 2.172 31.097 3.896 20.23 3.68 23.75-.213 25.025-1.622 1.406-1.515 2.595-3.588 3.746-5.594.552-.964 1.08-1.907 1.611-2.661 3.274-4.763 7.34-8.454 12.835-11.642 4.137-2.443 7.313-3.266 9.443-2.468 1.999.758 5.032 3.692 8.127 13.327.679 2.152 1.521 5.626 2.491 9.655 2.989 12.384 7.056 29.17 13.955 40.828H276.35a6.126 6.126 0 0 0-6.123 6.123 6.124 6.124 0 0 0 6.123 6.12h141.503v11.283H156.45v-33.198l59.889 7.111c.241.031.481.045.722.045.596 0 1.188-.088 1.76-.259 8.638-2.592 14.443-10.398 14.443-19.425 0-8.958-5.806-16.718-14.445-19.306a6.718 6.718 0 0 0-.464-.12s-17.183-3.715-51.44-10.917a5101.403 5101.403 0 0 1-9.259-9.194c1.611-3.592 4.334-9.645 8.234-18.294 5.568-2.845 9.323-1.608 11.625-.415l6.273 3.465c10.906 6.043 22.184 12.289 35.135 17.898 21.362 9.373 48.737 12.021 72.891 14.356 3.489.337 6.898.668 10.196 1.008zm111.643-137.869v1.56h-2.039v-1.56zm12.483-17.522c0 2.863-2.473 5.279-5.4 5.279h-16.204a5.285 5.285 0 0 1-5.279-5.279V95.653h26.884v35.407z" fill="#3265ab" opacity="1" data-original="#000000"></path></g></svg>