<svg xmlns="http://www.w3.org/2000/svg" version="1.1" xmlns:xlink="http://www.w3.org/1999/xlink" width="512" height="512" x="0" y="0" viewBox="0 0 512 512" style="enable-background:new 0 0 512 512" xml:space="preserve"><g><path d="M102.611 29.96c-29.35-11.3-74.96-.42-79.7 48.77-5.27 54.86 21.49 88.78 15.88 111.77-.87 3.57 2.99 6.39 6.14 4.49 18.92-11.44 32.77-32.04 38.17-52.36M114.811 167.56l-6.31 32.77M157.311 223.58l8.15-42.26c.31-1.61 2.06-2.48 3.52-1.75l24.43 12.14c4.56 2.27 10.09.85 12.99-3.33l25.43-36.61c1.12-1.61 1.05-3.74-.13-5.31a23.322 23.322 0 0 1-2.71-23.23l2.01-4.64" style="stroke-width:15;stroke-linecap:round;stroke-linejoin:round;stroke-miterlimit:10;" fill="none" stroke="#3265ab" stroke-width="15" stroke-linecap="round" stroke-linejoin="round" stroke-miterlimit="10" data-original="#000000" opacity="1"></path><path d="M111.827 167.496c-15.938-1.533-49.257-29.432-31.365-100.257 25.705-101.81 216.312-62.61 176.872 35.994-3.085 7.714-29.612 29.823-63.141 1.543-12.953 8.225-27.26 12.122-27.26 12.122-3.426-25.725-28.789-24.525-33.838-6.473-3.596 12.853 3.737 26.017 13.914 29.974-8.645 16.108-22.089 28.37-35.182 27.097z" style="stroke-width:15;stroke-linecap:round;stroke-linejoin:round;stroke-miterlimit:10;" fill="none" stroke="#3265ab" stroke-width="15" stroke-linecap="round" stroke-linejoin="round" stroke-miterlimit="10" data-original="#000000" opacity="1"></path><path d="M166.933 116.898c-3.423-25.725-28.792-24.523-33.838-6.473-4.62 16.526 8.81 33.557 23.142 30.87M83.541 504.5v-97.55M83.541 308.32v-72.05c0-8.75 2.99-17.23 8.47-24.04l2.6-3.23c8.09-10.06 22.52-12.27 33.26-5.1l68.1 45.51c17.18 11.48 21.96 34.63 10.73 51.98-.71 1.09-.48 2.53.54 3.36 52.4 42.66 94.85 128.91 30.45 169.79-2.8 1.78-4.47 4.91-4.47 8.23v21.73" style="stroke-width:15;stroke-linecap:round;stroke-linejoin:round;stroke-miterlimit:10;" fill="none" stroke="#3265ab" stroke-width="15" stroke-linecap="round" stroke-linejoin="round" stroke-miterlimit="10" data-original="#000000" opacity="1"></path><path d="m144.571 304.701-31.551 63.624c-1.862 3.755-.178 8.306 3.693 9.927l55.883 23.443a5.395 5.395 0 0 0 3.776.157l29.866-9.666a9.056 9.056 0 0 1 2.814-.45 9.09 9.09 0 0 1 7.741 4.331 9.102 9.102 0 0 1-1.485 11.392l-6.235 5.889c-1.255 1.193-.879 3.285.722 3.954l4.425 1.862c7.532 3.159 12.062 10.45 12.062 18.129a19.65 19.65 0 0 1-1.538 7.584c-4.205 10-15.712 14.718-25.724 10.513l-41.575-17.44" style="stroke-width:15;stroke-linecap:round;stroke-linejoin:round;stroke-miterlimit:10;" fill="none" stroke="#3265ab" stroke-width="15" stroke-linecap="round" stroke-linejoin="round" stroke-miterlimit="10" data-original="#000000" opacity="1"></path><path d="M125.169 424.412 75.058 403.39c-17.334-7.281-24.939-27.68-16.581-44.522l37.775-76.188" style="stroke-width:15;stroke-linecap:round;stroke-linejoin:round;stroke-miterlimit:10;" fill="none" stroke="#3265ab" stroke-width="15" stroke-linecap="round" stroke-linejoin="round" stroke-miterlimit="10" data-original="#000000" opacity="1"></path><path d="m134.438 325.136 20.732-41.813c6.51-13.13 1.144-29.051-11.986-35.561-13.13-6.51-29.051-1.144-35.561 11.986l-20.732 41.813 47.547 23.575zM488.07 226.273c2.649 11.611 2.303 24.065-1.622 36.221-12.416 38.458-47.765 61.669-114.984 115.78a12.211 12.211 0 0 1-15.301-.003C286.8 322.376 253.386 300.304 241.179 262.5c-11.625-36.004 8.136-74.614 44.138-86.238 29.044-9.379 59.774 1.661 76.676 25.176a2.226 2.226 0 0 0 3.641 0c16.904-23.512 47.64-34.551 76.671-25.179 11.883 3.837 21.998 10.614 29.798 19.266" style="stroke-width:15;stroke-linecap:round;stroke-linejoin:round;stroke-miterlimit:10;" fill="none" stroke="#3265ab" stroke-width="15" stroke-linecap="round" stroke-linejoin="round" stroke-miterlimit="10" data-original="#000000" opacity="1"></path><path d="M401.182 262.856h-20.459a2.818 2.818 0 0 1-2.818-2.818v-20.459a2.818 2.818 0 0 0-2.818-2.818H352.54a2.818 2.818 0 0 0-2.818 2.818v20.459a2.818 2.818 0 0 1-2.818 2.818h-20.459a2.818 2.818 0 0 0-2.818 2.818v22.546a2.818 2.818 0 0 0 2.818 2.818h20.459a2.818 2.818 0 0 1 2.818 2.818v20.459a2.818 2.818 0 0 0 2.818 2.818h22.546a2.818 2.818 0 0 0 2.818-2.818v-20.459a2.818 2.818 0 0 1 2.818-2.818h20.459a2.818 2.818 0 0 0 2.818-2.818v-22.546a2.817 2.817 0 0 0-2.817-2.818z" style="stroke-width:15;stroke-linecap:round;stroke-linejoin:round;stroke-miterlimit:10;" fill="none" stroke="#3265ab" stroke-width="15" stroke-linecap="round" stroke-linejoin="round" stroke-miterlimit="10" data-original="#000000" opacity="1"></path></g></svg>