<svg xmlns="http://www.w3.org/2000/svg" version="1.1" xmlns:xlink="http://www.w3.org/1999/xlink" width="512" height="512" x="0" y="0" viewBox="0 0 512 512" style="enable-background:new 0 0 512 512" xml:space="preserve"><g><path d="M200.72 276.23c-6.36-6.41-14.16-9.66-23.19-9.66H89.62c-9.03 0-16.83 3.25-23.19 9.66l-43.25 43.6c-5.31 5.35-8.21 12.47-8.18 20.04.03 7.58 2.99 14.67 8.34 19.98 11.08 10.99 29.03 10.92 40.02-.16l3.25-3.28v36.43l-35.64 61.73c-7.8 13.51-3.15 30.86 10.36 38.66 4.45 2.57 9.3 3.79 14.1 3.79 9.79 0 19.32-5.08 24.56-14.14l34.16-59.17h33.22l34.16 59.17c3.77 6.52 9.87 11.2 17.19 13.16 2.45.66 4.94.98 7.41.98 4.9 0 9.72-1.28 14.06-3.78 6.53-3.77 11.2-9.87 13.16-17.19s.97-14.94-2.8-21.47l-35.64-61.74v-42.11l8.89 8.96c5.31 5.35 12.4 8.31 19.98 8.34 7.61.03 14.69-2.88 20.04-8.18 5.35-5.31 8.31-12.4 8.34-19.98s-2.88-14.69-8.18-20.04zM149.15 411.7h-36.77L85.6 395.34h90.34zM69.6 476.87c-4.49 7.78-14.48 10.46-22.27 5.97s-10.46-14.48-5.97-22.26l33.37-57.8 27.83 17zm152.16-3.94c-1.13 4.22-3.82 7.74-7.57 9.9-3.75 2.17-8.14 2.73-12.36 1.6s-7.74-3.82-9.9-7.57l-32.97-57.1 27.83-17 33.37 57.8c2.16 3.76 2.73 8.15 1.6 12.37zm13.61-121.6c-3.06 3.03-7.13 4.7-11.48 4.7h-.07c-4.37-.02-8.46-1.72-11.51-4.79l-19.15-19.31c-1.71-1.73-4.29-2.25-6.54-1.32a6 6 0 0 0-3.71 5.55v47.18H78.62v-41.5c0-2.43-1.47-4.62-3.71-5.55-2.25-.93-4.83-.4-6.54 1.32l-13.51 13.62c-3.05 3.07-7.13 4.78-11.51 4.79-4.38.06-8.47-1.65-11.54-4.7s-4.77-7.14-4.79-11.51 1.65-8.47 4.7-11.54l43.25-43.6c4.08-4.11 8.88-6.11 14.67-6.11h87.91c5.79 0 10.59 2 14.67 6.11l43.25 43.6c3.05 3.07 4.72 7.17 4.7 11.54-.03 4.38-1.73 8.47-4.8 11.52zm-101.79-84.97c34.74 0 63-28.26 63-63s-28.26-63.01-63-63.01-63.01 28.26-63.01 63.01c0 34.74 28.27 63 63.01 63zm0-114.01c28.12 0 51 22.88 51 51.01 0 28.12-22.88 51-51 51s-51.01-22.88-51.01-51c0-28.13 22.89-51.01 51.01-51.01zm341.59-60.91V78.1c0-9.35-7.61-16.95-16.95-16.95h-3.63c.65-6.82 2.39-10.25 3.96-13.34 1.51-2.96 3.22-6.32 3.22-11.23 0-11.9-9.68-21.58-21.58-21.58s-21.58 9.68-21.58 21.58c0 4.91 1.71 8.27 3.22 11.23 1.58 3.09 3.32 6.52 3.96 13.34h-3.63c-9.35 0-16.95 7.61-16.95 16.95v13.34c-13.02 7.44-21.83 21.45-21.83 37.49v38.62H272.47c-3.31 0-6 2.69-6 6v57.8c0 8.49 4.12 15.96 11.3 20.48 16.51 10.4 30.37 26.41 41.2 47.58 5.43 10.61 15.79 16.95 27.71 16.95h30.38c10.94 0 20.55-5.34 26.26-14.42a31.28 31.28 0 0 0 11.62 2.24h50.47c17.41 0 31.58-14.17 31.58-31.58V128.93c.01-16.04-8.79-30.06-21.82-37.49zm-42.65-49.08c-1.33-2.6-1.91-3.83-1.91-5.77 0-5.28 4.3-9.58 9.58-9.58s9.58 4.3 9.58 9.58c0 1.94-.59 3.17-1.91 5.77-1.97 3.86-4.55 8.95-5.31 18.79h-4.72c-.76-9.85-3.34-14.93-5.31-18.79zM417.2 78.1c0-2.73 2.22-4.95 4.95-4.95h36.06c2.73 0 4.95 2.22 4.95 4.95v8.7c-3-.66-6.12-1.02-9.32-1.02h-27.33c-3.2 0-6.32.36-9.32 1.02v-8.7zM278.47 202.38h16.39c3.6 0 6.53 2.93 6.53 6.53s-2.93 6.53-6.53 6.53h-16.39zm98.6 101.98h-30.38c-7.44 0-13.64-3.8-17.03-10.42-11.83-23.11-27.13-40.7-45.49-52.27-3.73-2.35-5.7-5.92-5.7-10.33v-3.9h16.39c10.22 0 18.53-8.31 18.53-18.53s-8.31-18.53-18.53-18.53h-16.39v-10.84h166.82v10.84H428.9c-10.22 0-18.53 8.31-18.53 18.53s8.31 18.53 18.53 18.53h16.39v3.9c0 4.41-1.97 7.98-5.7 10.33-18.36 11.57-33.66 29.15-45.49 52.27-3.39 6.62-9.59 10.42-17.03 10.42zm68.22-88.91H428.9c-3.6 0-6.53-2.93-6.53-6.53s2.93-6.53 6.53-6.53h16.39zm20.13 76.73h-50.47c-1.96 0-3.88-.3-5.72-.87 10.09-17.19 22.43-30.45 36.76-39.49 7.18-4.53 11.3-11.99 11.3-20.48v-57.8c0-3.31-2.69-6-6-6h-55.92v-38.62c0-17.17 13.97-31.15 31.15-31.15h27.33c17.17 0 31.15 13.97 31.15 31.15V148h-8.28c-3.31 0-6 2.69-6 6s2.69 6 6 6H485v13.45h-8.28c-3.31 0-6 2.69-6 6s2.69 6 6 6H485v13.45h-8.28c-3.31 0-6 2.69-6 6s2.69 6 6 6H485v13.45h-8.28c-3.31 0-6 2.69-6 6s2.69 6 6 6H485v13.45h-8.28c-3.31 0-6 2.69-6 6s2.69 6 6 6H485v10.78c0 10.82-8.78 19.6-19.58 19.6z" fill="#3265ab" opacity="1" data-original="#000000"></path></g></svg>