<svg xmlns="http://www.w3.org/2000/svg" version="1.1" xmlns:xlink="http://www.w3.org/1999/xlink" width="512" height="512" x="0" y="0" viewBox="0 0 512 512" style="enable-background:new 0 0 512 512" xml:space="preserve"><g><path d="M453.058 151.971h-61.029a5 5 0 0 0-5 5v43.705h71.029v-43.705a5 5 0 0 0-5-5z" style="stroke-width:15;stroke-linecap:round;stroke-linejoin:round;stroke-miterlimit:10;" fill="none" stroke="#3265ab" stroke-width="15" stroke-linecap="round" stroke-linejoin="round" stroke-miterlimit="10" data-original="#000000" opacity="1"></path><path d="M410.543 151.971h24v48.705h-24zM458.058 269.768h-71.03M387.028 255v169.311c0 15.763 10.273 29.12 24.487 33.76h22.056c14.214-4.64 24.487-17.997 24.487-33.76V200.676M387.028 200.676V220M465.427 200.676h-85.768M346.323 151.971h-61.029a5 5 0 0 0-5 5v43.705h71.029v-43.705a5 5 0 0 0-5-5z" style="stroke-width:15;stroke-linecap:round;stroke-linejoin:round;stroke-miterlimit:10;" fill="none" stroke="#3265ab" stroke-width="15" stroke-linecap="round" stroke-linejoin="round" stroke-miterlimit="10" data-original="#000000" opacity="1"></path><path d="M303.808 151.971h24v48.705h-24zM351.323 269.768h-71.029" style="stroke-width:15;stroke-linecap:round;stroke-linejoin:round;stroke-miterlimit:10;" fill="none" stroke="#3265ab" stroke-width="15" stroke-linecap="round" stroke-linejoin="round" stroke-miterlimit="10" data-original="#000000" opacity="1"></path><path d="M280.294 200.676v223.635c0 9.282 3.564 17.729 9.394 24.056h32.717v10.837c16.46-3.094 28.918-17.534 28.918-34.893V200.676h-71.029zM358.693 200.676h-85.769" style="stroke-width:15;stroke-linecap:round;stroke-linejoin:round;stroke-miterlimit:10;" fill="none" stroke="#3265ab" stroke-width="15" stroke-linecap="round" stroke-linejoin="round" stroke-miterlimit="10" data-original="#000000" opacity="1"></path><path d="M233.851 448.367V321.602c0-5.523 4.477-10 10-10H494.5c5.523 0 10 4.477 10 10v138.962" style="stroke-width:15;stroke-linecap:round;stroke-linejoin:round;stroke-miterlimit:10;" fill="none" stroke="#3265ab" stroke-width="15" stroke-linecap="round" stroke-linejoin="round" stroke-miterlimit="10" data-original="#000000" opacity="1"></path><path d="M436.5 497.712h63a5 5 0 0 0 5-5v-34.641H322.405v39.641H401.5M99.55 284.766l-23.775 37.101c-12.897 20.126 1.555 46.553 25.459 46.553h0c23.904 0 38.356-26.427 25.459-46.553l-23.775-37.101a2 2 0 0 0-3.368 0zM75 411.807H12.5a5 5 0 0 0-5 5v75.905a5 5 0 0 0 5 5h309.905v-80.905a5 5 0 0 0-5-5H110" style="stroke-width:15;stroke-linecap:round;stroke-linejoin:round;stroke-miterlimit:10;" fill="none" stroke="#3265ab" stroke-width="15" stroke-linecap="round" stroke-linejoin="round" stroke-miterlimit="10" data-original="#000000" opacity="1"></path><path d="M322.405 497.712H12.5a5 5 0 0 1-5-5v-44.345h314.905v49.345zM331.632 21.656h0c-9.825-9.825-25.753-9.825-35.578 0l-44.941 44.941 35.578 35.578 44.941-44.94c9.824-9.825 9.824-25.754 0-35.579zM201.04 187.826l-35.578-35.578M231.451 86.258 121.909 195.801a24.95 24.95 0 0 0-6.917 13.121 42.828 42.828 0 0 1-11.808 22.457c-5.171 5.171-5.171 13.554 0 18.725 5.171 5.171 13.554 5.171 18.725 0a42.831 42.831 0 0 1 22.457-11.808 24.948 24.948 0 0 0 13.121-6.918L267.03 121.836l-35.579-35.578z" style="stroke-width:15;stroke-linecap:round;stroke-linejoin:round;stroke-miterlimit:10;" fill="none" stroke="#3265ab" stroke-width="15" stroke-linecap="round" stroke-linejoin="round" stroke-miterlimit="10" data-original="#000000" opacity="1"></path><path d="m293.366 108.85-48.927-48.927a5.124 5.124 0 0 0-7.248 0l-12.413 12.413a5.124 5.124 0 0 0 0 7.248l48.927 48.927a5.124 5.124 0 0 0 7.248 0l12.413-12.413a5.126 5.126 0 0 0 0-7.248z" style="stroke-width:15;stroke-linecap:round;stroke-linejoin:round;stroke-miterlimit:10;" fill="none" stroke="#3265ab" stroke-width="15" stroke-linecap="round" stroke-linejoin="round" stroke-miterlimit="10" data-original="#000000" opacity="1"></path></g></svg>