<svg xmlns="http://www.w3.org/2000/svg" version="1.1" xmlns:xlink="http://www.w3.org/1999/xlink" width="512" height="512" x="0" y="0" viewBox="0 0 62 60" style="enable-background:new 0 0 512 512" xml:space="preserve"><g><path d="M42.54 20.46a5 5 0 1 0-7.062 7.08 5 5 0 0 0 7.062-7.08zm-1.42 5.66a3.08 3.08 0 0 1-4.24 0 3 3 0 1 1 4.24 0zM50.12 26.88a3 3 0 1 0-4.245 4.24 3 3 0 0 0 4.245-4.24zm-1.41 2.83A1 1 0 0 1 47 29a1 1 0 0 1 1-1 1 1 0 0 1 .71 1.71zM31.12 24.88a3 3 0 1 0-4.245 4.24 3 3 0 0 0 4.245-4.24zm-1.41 2.83A1 1 0 0 1 28 27a1 1 0 0 1 1-1 1 1 0 0 1 .71 1.71zM47 35a1 1 0 1 1-2 0 1 1 0 0 1 2 0zM49 38a1 1 0 1 1-2 0 1 1 0 0 1 2 0z" fill="#3265ab" opacity="1" data-original="#000000"></path><path d="M37 8a23.81 23.81 0 0 0-18.12 8.27l-9-13.58L8.66.89A2 2 0 0 0 7 0H3a2 2 0 0 0-2 2c0 5.31-.12 5.27.33 6 10.59 16.48 10.73 16 10.73 16.1a2 2 0 0 0-.56 2.77c1.32 2 1.24 1.95 1.69 2.23a23.76 23.76 0 0 0 3.26 15.27 7.11 7.11 0 0 0-4.22 5.1c-.42 1.93.38 5 .32 5.79-.09 1.3-1.81 1.55-3 2.09a1 1 0 0 0 .09 1.85c1.92.78 3.25 1.18 5.27.31a6.16 6.16 0 0 0 3.52-5.09v-.09c.37-2.59.28-2.54.34-3 .28-.61.63-.51 3.26-.59A24 24 0 1 0 37 8zM3 6.86V2h4l.64 1L6 4.07a1 1 0 0 0 .52 1.83c.44 0 .57-.17 2.22-1.27L9.85 6.3 8.18 7.41a1 1 0 0 0 .56 1.83c.43 0 .49-.12 2.22-1.28l1.11 1.68-1.67 1.11a1 1 0 0 0 .6 1.83c.38 0 .36 0 2.22-1.28l1.07 1.7-1.67 1.11a1 1 0 0 0 .56 1.83c.38 0 .36 0 2.22-1.28l1.11 1.67-1.67 1.12a1 1 0 0 0 .56 1.83c.42 0 .56-.17 2.22-1.28l1.11 1.67-5 3.33zm11.27 20.57-1.11-1.67.84-.56 7.51-5 1.11 1.67c-8.48 5.65-8.25 5.56-8.35 5.56zm9.44-7.53c6.355-6.99 17.032-7.878 24.455-2.034 7.422 5.845 9.063 16.433 3.758 24.25C46.618 49.933 36.173 52.319 28 47.58a6 6 0 0 0 .71-1.6 5.2 5.2 0 0 0 4.8-1.41l.76-.76c2.63-2.63 5.65-8 2.55-11-2.87-2.88-7.68-.46-10.45 2l-1.55-2.32a2 2 0 0 0 .78-2.63l-2.8-5.69c1-.67 1.6-1 1.78-1.89s-.37-1.64-.87-2.38zM29.83 40l-2.33-3.5c1.85-1.71 5.92-4.28 7.92-2.28s-.6 6.25-2.56 8.21c-.87.87-1.53 1.73-3.11 1.71s-2.39-1-3.21-1.83a3.4 3.4 0 0 1-.46-4.31l2.08 3.12a1 1 0 0 0 1.39.28 1 1 0 0 0 .28-1.4zm-5.73 2.22c-.39 1.08-.22 1.2-.68 1.55A17.79 17.79 0 0 1 19 31.61l1.43 1.65a2 2 0 0 0 2.72.29l1.77 2.66a5.3 5.3 0 0 0-.82 6.01zm-.28-11.5L22 32l-4-4.64 3.12-2.07zm-8.62-1.53c.15-.1-.28.22 1.12-.71l.86 1a19.77 19.77 0 0 0 3.74 14.39 13.76 13.76 0 0 0-2.43 0 21.68 21.68 0 0 1-3.29-14.68zM17 50.42a2.48 2.48 0 0 0-.26 1.1c-.19 1.94-.32 2.61-.33 2.71a4.14 4.14 0 0 1-2.35 3.46A3.39 3.39 0 0 1 13 58a3.24 3.24 0 0 0 1.52-2.46c.16-.9-.69-4.06-.34-5.65A5.2 5.2 0 0 1 17.65 46c1.55-.47 2.78-.13 4.45-.13a6 6 0 0 0 1 0h.1a3.05 3.05 0 0 0 2.4-1.8c.373.412.8.772 1.27 1.07a4.6 4.6 0 0 1-4.35 3.53c-2.32.27-4.65-.23-5.52 1.75zm7.7-.17a6.51 6.51 0 0 0 2-1.13c9.007 5.428 20.68 2.954 26.71-5.662 6.029-8.616 4.356-20.43-3.829-27.034-8.185-6.603-20.085-5.74-27.231 1.976a2 2 0 0 0-2 .14L20 18a21.8 21.8 0 0 1 17-8c12.15 0 22 9.85 22 22 0 17.63-19.77 28-34.26 18.25z" fill="#3265ab" opacity="1" data-original="#000000"></path></g></svg>