<svg xmlns="http://www.w3.org/2000/svg" version="1.1" xmlns:xlink="http://www.w3.org/1999/xlink" width="512" height="512" x="0" y="0" viewBox="0 0 512 512" style="enable-background:new 0 0 512 512" xml:space="preserve"><g><path d="M490.74 392.267v-63.896c0-11.846-7.901-21.876-18.709-25.111V84.612c0-25.253-20.544-45.798-45.796-45.798s-45.796 20.545-45.796 45.798v289.993c0 21.437-17.452 38.876-38.903 38.876h-9.338v-55.517c0-27.269-22.185-49.453-49.453-49.453h-63.452V270.36h106.538c12.701 0 23.034-10.333 23.034-23.034V38.265c0-12.686-10.333-23.006-23.034-23.006H23.005C10.32 15.259 0 25.579 0 38.265v209.062c0 12.701 10.32 23.034 23.005 23.034h106.539v38.151H66.092c-27.268 0-49.453 22.185-49.453 49.453v126.061c0 7.012 5.704 12.716 12.715 12.716H319.51c6.996 0 12.688-5.704 12.688-12.716v-55.544h9.338c29.723 0 53.903-24.169 53.903-53.876V84.612c0-16.982 13.815-30.798 30.796-30.798s30.796 13.815 30.796 30.798V303.26c-10.807 3.234-18.708 13.265-18.708 25.111v63.896c-12.621 6.59-21.26 19.792-21.26 34.979v11.679c0 6.512 5.297 11.81 11.809 11.81h71.32c6.511 0 11.809-5.298 11.809-11.81v-11.679c-.001-15.188-8.64-28.389-21.261-34.979zM23.005 255.36c-4.414 0-8.005-3.604-8.005-8.034V38.265c0-4.414 3.591-8.006 8.005-8.006h302.826c4.43 0 8.034 3.592 8.034 8.006v209.062c0 4.355-3.679 8.034-8.034 8.034H23.005zm181.288 15v38.151h-59.75V270.36zM83.202 323.512h182.462v71.248c0 6.166-5.016 11.182-11.181 11.182H94.354c-6.149 0-11.152-5.016-11.152-11.182zm233.996 120.33H193.935c-4.142 0-7.5 3.357-7.5 7.5s3.358 7.5 7.5 7.5h123.263v22.899H31.64v-22.899h129.102c4.142 0 7.5-3.357 7.5-7.5s-3.358-7.5-7.5-7.5H31.64v-85.877c0-18.997 15.456-34.453 34.453-34.453h2.109v71.248c0 14.437 11.732 26.182 26.152 26.182h160.129c14.436 0 26.181-11.745 26.181-26.182v-71.248h2.081c18.997 0 34.453 15.456 34.453 34.453zm136.125-115.471c0-6.182 5.028-11.21 11.208-11.21 6.181 0 11.209 5.028 11.209 11.21v59.557c-.015-.001-.031.009-.046.01a40.046 40.046 0 0 0-3.17-.138h-15.987c-1.064 0-2.115.055-3.158.138-.018-.001-.04-.01-.057-.009v-59.558zM497 435.734h-64.938v-8.488c0-13.48 10.98-24.447 24.475-24.447h15.987c13.496 0 24.475 10.967 24.475 24.447v8.488z" fill="#3265ab" opacity="1" data-original="#000000"></path><path d="M232.203 355.997c4.142 0 7.5-3.357 7.5-7.5s-3.358-7.5-7.5-7.5h-.028c-4.142 0-7.486 3.357-7.486 7.5s3.372 7.5 7.514 7.5zM193.68 355.997c4.142 0 7.5-3.357 7.5-7.5s-3.358-7.5-7.5-7.5h-.057c-4.142 0-7.472 3.357-7.472 7.5s3.387 7.5 7.529 7.5zM155.214 355.997c4.142 0 7.5-3.357 7.5-7.5s-3.358-7.5-7.5-7.5h-.057c-4.142 0-7.472 3.357-7.472 7.5s3.387 7.5 7.529 7.5zM116.691 355.997c4.142 0 7.5-3.357 7.5-7.5s-3.358-7.5-7.5-7.5h-.057c-4.142 0-7.472 3.357-7.472 7.5s3.387 7.5 7.529 7.5zM232.203 388.455c4.142 0 7.5-3.357 7.5-7.5s-3.358-7.5-7.5-7.5h-.028c-4.142 0-7.486 3.357-7.486 7.5s3.372 7.5 7.514 7.5zM193.68 388.455c4.142 0 7.5-3.357 7.5-7.5s-3.358-7.5-7.5-7.5h-.057c-4.142 0-7.472 3.357-7.472 7.5s3.387 7.5 7.529 7.5zM155.214 388.455c4.142 0 7.5-3.357 7.5-7.5s-3.358-7.5-7.5-7.5h-.057c-4.142 0-7.472 3.357-7.472 7.5s3.387 7.5 7.529 7.5zM116.691 388.455c4.142 0 7.5-3.357 7.5-7.5s-3.358-7.5-7.5-7.5h-.057c-4.142 0-7.472 3.357-7.472 7.5s3.387 7.5 7.529 7.5zM305.28 50.211H43.585c-7.214 0-13.084 5.869-13.084 13.084v159c0 7.215 5.87 13.085 13.073 13.085H158.51c.004 0 .046.17.049.17 4.137 0 7.456-3.521 7.462-7.66a7.5 7.5 0 0 0-7.489-7.511l-113.031.003V65.211h257.835V220.38H193.368c-4.142 0-7.5 3.357-7.5 7.5s3.358 7.5 7.5 7.5H305.28c7.199 0 13.056-5.87 13.056-13.085v-159c0-7.215-5.857-13.084-13.056-13.084z" fill="#3265ab" opacity="1" data-original="#000000"></path><path d="M282.32 78.671h-27.553c-4.142 0-7.5 3.357-7.5 7.5s3.358 7.5 7.5 7.5h27.553c4.142 0 7.5-3.357 7.5-7.5s-3.358-7.5-7.5-7.5zM280.987 105.743h-12.246c-4.142 0-7.5 3.357-7.5 7.5s3.358 7.5 7.5 7.5h12.246c4.142 0 7.5-3.357 7.5-7.5s-3.358-7.5-7.5-7.5zM239.293 109.669c-3.496-5.695-6.644-9.493-15.365-6.444-.682.237-1.502.525-2.509.834-32.07 9.818-61.93 9.817-93.977-.001-1.021-.312-1.848-.602-2.534-.84-8.703-3.032-11.832.737-15.302 6.396l-29.87 48.555c-1.021 1.667-3.411 5.57-2.174 10.167 1.13 4.199 4.555 6.512 7.412 8.057l.016.009c34.423 18.513 62.004 26.769 89.428 26.769s55.005-8.256 89.426-26.768c2.873-1.544 6.315-3.855 7.453-8.061 1.244-4.6-1.148-8.505-2.177-10.187l-29.592-48.102zm-145.57 54.392 28.291-45.986c.328.105.674.215 1.041.327 34.558 10.588 68.169 10.589 102.759-.001.366-.112.711-.222 1.038-.328l28.284 45.978c-60.129 31.95-101.289 31.955-161.413.01z" fill="#3265ab" opacity="1" data-original="#000000"></path></g></svg>