<svg xmlns="http://www.w3.org/2000/svg" version="1.1" xmlns:xlink="http://www.w3.org/1999/xlink" width="512" height="512" x="0" y="0" viewBox="0 0 1.707 1.707" style="enable-background:new 0 0 512 512" xml:space="preserve" fill-rule="evenodd" class=""><g><path d="M.853 1.6A.747.747 0 1 1 .855.105.747.747 0 0 1 .853 1.6zm0-1.453A.707.707 0 1 0 .855 1.56.707.707 0 0 0 .853.147z" fill="#3265ab" opacity="1" data-original="#000000" class=""></path><path d="M.853 1.327A.474.474 0 1 1 .854.379a.474.474 0 0 1 0 .948zm0-.907a.434.434 0 1 0 .001.868.434.434 0 0 0 0-.868z" fill="#3265ab" opacity="1" data-original="#000000" class=""></path><path d="M.853.527a.02.02 0 0 1-.02-.02V.02c0-.026.04-.026.04 0v.487a.02.02 0 0 1-.02.02zM1.687.873H1.2c-.026 0-.026-.04 0-.04h.487c.026 0 .026.04 0 .04zM.853 1.707a.02.02 0 0 1-.02-.02V1.2c0-.026.04-.026.04 0v.487a.02.02 0 0 1-.02.02zM.507.873H.02c-.026 0-.026-.04 0-.04h.487c.026 0 .026.04 0 .04z" fill="#3265ab" opacity="1" data-original="#000000" class=""></path><path d="M.853 1.467A.614.614 0 1 1 .855.238a.614.614 0 0 1-.002 1.229zm0-1.187a.574.574 0 1 0 .002 1.148A.574.574 0 0 0 .853.28zM1.026.228c-.035 0-.012-.05-.004-.082.007-.025.045-.015.039.01-.01.037-.012.072-.035.072zM1.187.295a.02.02 0 0 1-.017-.03c.019-.033.032-.072.057-.058.024.014-.003.045-.022.078a.02.02 0 0 1-.018.01z" fill="#3265ab" opacity="1" data-original="#000000" class=""></path><path d="M1.326.4a.02.02 0 0 1-.014-.033c.026-.027.05-.061.07-.042.019.02-.015.043-.042.07a.02.02 0 0 1-.014.006zM1.432.54c-.02 0-.028-.028-.01-.038.033-.019.064-.046.078-.022.014.024-.026.038-.058.057a.02.02 0 0 1-.01.002zM1.499.7C1.476.7 1.47.667 1.494.661c.036-.01.073-.028.08 0 .008.026-.034.029-.07.039a.02.02 0 0 1-.005 0zM1.555 1.061l-.061-.015c-.026-.007-.016-.046.01-.04.036.01.078.014.07.04a.02.02 0 0 1-.019.015zM1.482 1.237c-.01 0-.047-.025-.06-.032-.023-.013-.003-.048.02-.035.033.019.072.033.058.057a.02.02 0 0 1-.018.01zM1.367 1.387c-.014 0-.039-.03-.055-.047-.019-.019.01-.047.028-.028.027.026.06.05.041.07a.02.02 0 0 1-.014.005zM1.217 1.502c-.019 0-.031-.032-.047-.06-.013-.023.022-.043.035-.02.019.033.046.064.022.078a.02.02 0 0 1-.01.002zM1.041 1.575c-.022 0-.024-.035-.034-.071-.007-.026.032-.036.039-.01.008.03.03.081-.005.081zM.665 1.575c-.035 0-.012-.05-.004-.081a.02.02 0 0 1 .025-.015c.026.008.008.045-.001.081a.02.02 0 0 1-.02.015zM.49 1.502a.02.02 0 0 1-.017-.03c.019-.032.032-.071.056-.057.024.014-.003.045-.022.077a.02.02 0 0 1-.017.01zM.34 1.387a.02.02 0 0 1-.014-.034c.026-.027.05-.061.069-.041.02.02-.015.043-.041.07a.02.02 0 0 1-.014.005zM.224 1.237c-.02 0-.027-.028-.01-.038.033-.019.064-.046.078-.022.014.025-.025.038-.058.057a.02.02 0 0 1-.01.003zM.152 1.061c-.024 0-.028-.033-.006-.039.037-.01.074-.028.081 0 .007.026-.034.029-.07.039a.02.02 0 0 1-.005 0zM.208.7.146.685C.121.678.131.639.156.646c.037.01.078.013.071.04A.02.02 0 0 1 .207.7zM.275.54C.265.54.227.514.215.506.19.494.21.46.234.473c.032.019.07.032.057.056a.02.02 0 0 1-.017.01zM.38.4C.368.4.343.37.327.355.306.335.336.307.354.325c.026.027.06.05.041.07a.02.02 0 0 1-.014.006zM.52.295C.5.295.488.262.472.235.46.21.494.19.507.214c.02.032.046.063.022.077a.02.02 0 0 1-.01.003zM.68.228C.658.228.656.193.646.157.639.13.678.12.685.147c.008.03.03.08-.005.08zM.853.918C.777.918.715.851.715.768c0-.083.062-.15.138-.15.077 0 .139.067.139.15 0 .083-.062.15-.139.15zm0-.26C.8.657.755.706.755.767c0 .06.044.11.098.11.055 0 .099-.05.099-.11 0-.061-.044-.11-.099-.11z" fill="#3265ab" opacity="1" data-original="#000000" class=""></path><path d="M1.098 1.168H.609a.02.02 0 0 1-.02-.02v-.104C.59.976.645.92.713.92h.07C.782.898.777.877.791.87.813.855.838.899.895.868a.02.02 0 0 1 .03.018V.92h.069c.068 0 .124.056.124.124v.104a.02.02 0 0 1-.02.02zm-.469-.04h.449v-.084A.084.084 0 0 0 .994.96C.879.96.884.97.884.915a.13.13 0 0 1-.062 0C.822.97.827.96.712.96a.084.084 0 0 0-.083.084v.084z" fill="#3265ab" opacity="1" data-original="#000000" class=""></path><path d="M.853 1.018C.765 1.018.716.92.765.92h.017C.782.898.778.877.792.87.813.855.838.899.895.868a.02.02 0 0 1 .03.018V.92C.937.92.95.918.957.93c.016.024-.038.088-.105.088zM.805.96a.077.077 0 0 0 .097 0C.88.957.884.933.884.915a.13.13 0 0 1-.062 0c0 .018.004.042-.017.045zM.7 1.168a.02.02 0 0 1-.02-.02v-.096c0-.027.04-.027.04 0v.096a.02.02 0 0 1-.02.02z" fill="#3265ab" opacity="1" data-original="#000000" class=""></path><path d="M.7 1.099H.61c-.027 0-.027-.04 0-.04H.7c.025 0 .025.04 0 .04zM.742.831A.02.02 0 0 1 .723.818C.66.658.687.602.829.55c.134-.048.171.073.173.075a.05.05 0 0 1 .024.028C1.043.7.997.771.988.785.974.807.94.785.955.763.97.739 1.009.668.979.659.957.652.97.61.923.587.902.577.875.577.843.588.726.631.705.662.76.804A.02.02 0 0 1 .742.83zM1.008 1.168a.02.02 0 0 1-.02-.02v-.096c0-.027.04-.027.04 0v.096a.02.02 0 0 1-.02.02z" fill="#3265ab" opacity="1" data-original="#000000" class=""></path><path d="M1.098 1.099h-.09c-.027 0-.027-.04 0-.04h.09c.026 0 .026.04 0 .04z" fill="#3265ab" opacity="1" data-original="#000000" class=""></path></g></svg>