<svg xmlns="http://www.w3.org/2000/svg" version="1.1" xmlns:xlink="http://www.w3.org/1999/xlink" width="512" height="512" x="0" y="0" viewBox="0 0 512 512" style="enable-background:new 0 0 512 512" xml:space="preserve" class=""><g><circle cx="245.144" cy="258.104" r="27.187" fill="#3265ab" opacity="1" data-original="#b8daff" class=""></circle><g fill="#3f8cf4"><path d="M505.77 371.341c-.969-4.2-5.096-6.672-9.338-5.707-.496.118-34.482 8.017-45.976 10.689 15.79-26.121 26.295-54.746 31.244-85.281 21.111-130.31-67.726-253.498-198.036-274.612C153.099-4.689 30.306 83.882 9.15 214.488c-10.216 63.076 4.753 126.373 42.152 178.234 37.399 51.857 92.735 86.044 155.807 96.264 30.456 4.929 61.826 4.014 92.171-3.002 4.204-.969 6.821-5.165 5.852-9.369a7.805 7.805 0 0 0-9.377-5.852 221.892 221.892 0 0 1-42.801 5.606v-60.926c0-4.314-3.494-7.813-7.813-7.813s-7.813 3.498-7.813 7.813v60.823c-9.233-.348-18.48-1.206-27.718-2.706-58.96-9.548-110.68-41.504-145.638-89.977-25.994-36.044-40.37-78.002-42.12-121.387h62.232c4.318 0 7.813-3.498 7.813-7.812s-3.494-7.813-7.813-7.813h-62.28c.291-9.834 1.171-19.71 2.771-29.583C42.272 107.702 134.979 32.553 237.33 29.061v64.265c0 4.314 3.494 7.813 7.813 7.813s7.813-3.498 7.813-7.813v-64.19c9.379.336 18.793 1.194 28.206 2.72 107.675 17.445 185.004 109.46 187.874 214.714h-62.828a7.811 7.811 0 0 0-7.813 7.813 7.81 7.81 0 0 0 7.813 7.812h62.7c-.375 8.727-1.203 17.514-2.634 26.344-4.601 28.394-14.327 55.018-28.941 79.317l-10.129-44.218a8.172 8.172 0 0 0-.206-1.587c-.977-4.204-5.341-6.809-9.514-5.821a7.81 7.81 0 0 0-5.859 9.357l14.717 64.27c.974 4.277 5.245 6.833 9.361 5.871l64.27-14.717c3.86-.881 6.843-5.129 5.797-9.67z" fill="#3265ab" opacity="1" data-original="#3f8cf4" class=""></path><path d="M318.995 440.643a7.811 7.811 0 0 0 7.813-7.813c0-8.732 7.103-15.835 15.839-15.835h2.144c13.495 0 20.094 16.046 12.886 24.479l-37.43 43.941a7.813 7.813 0 0 0-1.152 8.312 7.806 7.806 0 0 0 7.034 4.566l46.814.389h.069a7.815 7.815 0 0 0 7.813-7.748 7.81 7.81 0 0 0-7.744-7.877l-30.083-.248 26.581-31.204c15.707-18.464 2.278-50.236-24.788-50.236h-2.144c-17.349 0-31.464 14.114-31.464 31.46a7.81 7.81 0 0 0 7.812 7.814z" fill="#3265ab" opacity="1" data-original="#3f8cf4" class=""></path><path d="M429.82 401.779a7.812 7.812 0 0 0-8.713 2.674l-42.892 56.37a7.804 7.804 0 0 0-.778 8.202 7.8 7.8 0 0 0 6.996 4.341h35.08v17.506c0 4.314 3.494 7.813 7.813 7.813s7.813-3.498 7.813-7.813v-17.506h11.795c4.318 0 7.813-3.498 7.813-7.813s-3.494-7.813-7.813-7.813h-11.795v-48.557a7.814 7.814 0 0 0-5.319-7.404zm-10.308 55.961h-19.318l19.318-25.387zM380.862 125.873c-3.105-2.983-8.049-2.899-11.047.198L267.922 231.746c-6.139-5.312-14.041-8.644-22.779-8.644-9.052 0-17.234 3.545-23.454 9.207l-68.793-57.093c-3.319-2.75-8.24-2.285-11.002 1.022a7.817 7.817 0 0 0 1.022 11.002l69.779 57.911c-1.608 4.014-2.549 8.368-2.549 12.95 0 19.299 15.701 35 34.996 35 19.302 0 35.004-15.701 35.004-35 0-4.839-.99-9.45-2.774-13.646L381.06 136.92a7.81 7.81 0 0 0-.198-11.047zM245.143 277.477c-10.681 0-19.371-8.69-19.371-19.375s8.69-19.375 19.371-19.375c10.689 0 19.379 8.69 19.379 19.375-.001 10.685-8.691 19.375-19.379 19.375z" fill="#3265ab" opacity="1" data-original="#3f8cf4" class=""></path></g></g></svg>