<svg xmlns="http://www.w3.org/2000/svg" version="1.1" xmlns:xlink="http://www.w3.org/1999/xlink" width="512" height="512" x="0" y="0" viewBox="0 0 179.709 179.709" style="enable-background:new 0 0 512 512" xml:space="preserve"><g><path d="M128.435 4.439c-14.45-5.635-26.451-5.909-35.664-.797-14.31 7.937-17.869 26.962-19.208 34.126-1.666 8.924-7.858 25.334-30.641 35.104-7.664 3.279-31.313 17.455-13.975 62.051l.785 1.973c3.647 9.073 7.408 18.475-5.797 36.365a3.116 3.116 0 0 0 .655 4.359 3.12 3.12 0 0 0 4.357-.646c15.277-20.703 10.452-32.735 6.567-42.404l-.761-1.925c-14.897-38.307 2.469-50.558 10.625-54.044C70.825 67.69 77.794 49.048 79.685 38.91c2.031-10.845 5.699-24.037 16.105-29.818 7.515-4.165 17.731-3.778 30.373 1.16 27.036 10.543 31.895 39.153 14.443 85.05-6.723 17.671-29.216 52.13-53.122 55.582-3.937.572-8.568.22-13.494-.14-9.816-.756-19.979-1.522-27.118 4.804-4.832 4.293-7.396 11.125-7.825 20.917a3.115 3.115 0 0 0 2.981 3.245h.137a3.121 3.121 0 0 0 3.118-2.978c.35-8.025 2.22-13.433 5.724-16.52 5.164-4.592 13.986-3.928 22.508-3.264 5.039.383 10.251.779 14.854.115 28.032-4.056 51.603-42.588 58.063-59.552C170 35.573 149.643 12.714 128.435 4.439z" fill="#3265ab" opacity="1" data-original="#000000"></path><path d="M58.117 93.833c-7.733 1.584-11.055 6.729-11.417 7.308-6.26 10.321-4.89 19.662-2.631 25.696 3.666 9.797 11.561 16.252 17.327 18.091 4.253 1.364 8.205 2.034 11.847 2.034 5.176 0 9.721-1.371 13.588-4.092 8.796-6.199 11.365-17.684 12.103-23.255l.889.012c26.664 0 34.738-25.836 37.868-35.837 5.444-17.421 5.535-30.82.256-39.835-4.299-7.347-10.704-8.948-10.845-8.948v.006c-5.906-2.29-10.997-2.146-15.113.453l-.39.256c-.292-3.19-1.054-5.934-2.265-8.05-1.443-2.5-3.544-4.177-6.077-4.826l-1.583-.317c-6.869-.922-10.172 4.391-10.979 7.332l-.006 1.608c1.659 6.348-.977 12.111-2.792 14.522-8.126 10.793-7.258 21.181-5.105 27.985-6.05-2.764-12.236-3.973-16.082.107-2.32 2.469-3.404 5.575-3.13 8.966.298 3.738 2.208 7.551 4.652 11.009-3.563-.803-6.93-.875-10.115-.225zm26.637 8.264C80.781 99.046 70.35 89.56 69.796 82.544c-.131-1.665.329-2.992 1.446-4.189 1.453-1.528 6.701-.789 17.16 5.91l1.065.429c3.397 2.721 7.176 3.94 11.164 3.629 11.941-.908 21.525-15.524 21.934-16.148.926-1.44.518-3.374-.92-4.302a3.128 3.128 0 0 0-4.305.91c-2.283 3.517-9.828 12.769-17.178 13.323-3.245.231-6.125-1.172-8.731-4.089-.393-.554-9.515-13.686 1.458-28.278 2.969-3.934 5.721-11.144 4.08-18.861.46-1.011 1.58-2.506 3.9-2.171l.804.155c.59.152 1.449.518 2.259 1.927 1.687 2.919 2.027 8.288 1.041 14.499-1.163 3.44-1.389 6.354-1.406 6.585a3.115 3.115 0 0 0 2.575 3.297c1.663.287 3.112-.703 3.538-2.244a62.278 62.278 0 0 0 1.37-6.162c.828-2.274 2.155-4.683 4.28-6.028 2.356-1.479 5.554-1.465 9.969.225.176.042 4.414 1.096 7.392 6.321 2.917 5.121 5.115 15.29-.926 34.644-4.883 15.622-13.329 33.231-35.344 31.307-.813-.049-1.69.195-2.339.768s-1.017 1.376-1.062 2.229c-.006.141-.654 15.162-9.776 21.568-4.908 3.458-11.603 3.848-19.921 1.187-4.415-1.406-10.613-6.911-13.387-14.346-1.772-4.731-2.844-12.087 2.125-20.265.018-.037 2.183-3.386 7.334-4.434a15.878 15.878 0 0 1 3.078-.311c5.383 0 11.743 2.546 18.587 7.466a3.12 3.12 0 0 0 4.323-.663 3.165 3.165 0 0 0-.629-4.335z" fill="#3265ab" opacity="1" data-original="#000000"></path></g></svg>