<svg xmlns="http://www.w3.org/2000/svg" version="1.1" xmlns:xlink="http://www.w3.org/1999/xlink" width="512" height="512" x="0" y="0" viewBox="0 0 300 300" style="enable-background:new 0 0 512 512" xml:space="preserve"><g><path d="M72.924 73.25c.781.781 1.805 1.172 2.828 1.172s2.047-.391 2.828-1.172l4.52-4.52 4.52 4.52c.781.781 1.805 1.172 2.828 1.172s2.047-.391 2.828-1.172a4 4 0 0 0 0-5.656l-4.52-4.52 4.52-4.52a4 4 0 1 0-5.656-5.656l-4.52 4.52-4.52-4.52a4 4 0 1 0-5.656 5.656l4.52 4.52-4.52 4.52a3.997 3.997 0 0 0 0 5.656z" fill="#3265ab" opacity="1" data-original="#000000"></path><circle cx="175.1" cy="97.074" r="4" fill="#3265ab" opacity="1" data-original="#000000"></circle><path d="M254.886 204.276a3.979 3.979 0 0 0-.998-4.457l-27.533-25.242a3.996 3.996 0 0 0-.484-.379 22.303 22.303 0 0 1-9.953-18.596 45.21 45.21 0 0 0-2.324-14.32l-2.525-7.575c12.182-7.803 20.296-22.369 20.296-36.979 0-21.656-17.617-39.273-39.273-39.273-4.818 0-9.348.688-13.459 2.045-11.574 3.816-19.273 15.25-19.16 28.451.043 4.939-2.246 6.602-4.248 7.498a3.991 3.991 0 0 0-1.799 1.6 4.014 4.014 0 0 0-.574 1.885c-.245 5.273 1.002 10.378 3.18 15.098-5.68 1.979-15.827 6.419-21.542 14.306-.79-2.769-1.823-5.3-3.153-7.378-3.553-5.559-8.035-6.68-11.246-6.621-.558.009-1.116.12-1.676.177-2.118-2.619-5.051-4.487-8.398-5.156-7.18-1.443-14.316 2.717-16.629 9.648l-.783 2.349c-2.954-.853-5.708-.783-8.194.335-4.379 1.965-7.391 6.699-9.207 14.475-1.773 7.587 1.357 13.55 8.545 16.716-.054.905-.109 1.811-.109 2.721 0 7.49-3.721 14.441-9.953 18.596-.17.113-.332.24-.484.379L45.67 199.818a3.979 3.979 0 0 0-.998 4.457l-12.567 11.086a4.002 4.002 0 0 0 2.648 7c.939 0 1.883-.33 2.645-1l12.705-11.207 21.056 21.056L58 243.596a4 4 0 1 0 5.484 5.824l13.334-12.55.111.111c.781.781 1.805 1.172 2.828 1.172s2.047-.391 2.828-1.172c6.254-6.252 30.664-14.895 39.604-17.717 16.333-5.445 24.017-15.523 27.592-22.85 3.58 7.329 11.279 17.412 27.651 22.869 8.877 2.803 33.287 11.445 39.541 17.697.781.781 1.805 1.172 2.828 1.172s2.047-.391 2.828-1.172l.11-.11 13.335 12.55a3.98 3.98 0 0 0 2.742 1.088 3.998 3.998 0 0 0 2.742-6.912l-13.16-12.385 21.057-21.057 12.705 11.207c.762.67 1.705 1 2.645 1a4 4 0 0 0 2.648-7zM167.473 87.879c-.084-9.707 5.408-18.061 13.666-20.783 3.303-1.09 6.988-1.643 10.953-1.643 17.244 0 31.273 14.029 31.273 31.273 0 11.285-5.896 22.533-14.914 29.123l-2.281-6.844c-2.312-6.936-9.451-11.09-16.631-9.648a14.533 14.533 0 0 0-9.713 6.953c-1.98 3.413-2.428 7.473-1.355 11.252-8.771-5.551-17.017-15.691-17.616-26.11 4.342-2.88 6.67-7.608 6.618-13.573zm-42.875 37.389c4.943 7.729 4.725 26.49 1.793 32.586a4 4 0 1 0 7.21 3.465c1.074-2.234 1.882-5.524 2.365-9.311 6.935 5.427 19.3 6.908 30.487 6.908 2.281 0 4.51-.059 6.631-.156a4 4 0 0 0 3.812-4.18c-.102-2.207-1.992-3.887-4.18-3.812-16.125.742-27.975-1.273-32.494-5.523-1.279-1.203-1.887-2.535-1.912-4.189-.17-10.921 14.265-17.643 21.833-19.984a51.226 51.226 0 0 0 7.543 8.372c-4.408 1.414-7.497 2.994-7.696 3.098a3.997 3.997 0 0 0-1.705 5.393 3.997 3.997 0 0 0 5.393 1.705c.062-.03 5.88-2.996 12.6-4.054.549.261 1.126.414 1.703.414a4.003 4.003 0 0 0 2.837-1.18l5.816 17.445-.58.725c-4.23 5.287-6.002 11.746-5.996 18.117l-1.945 1.168a88.241 88.241 0 0 1-28.143 10.879c-.07.014-.121.06-.189.078-.068-.017-.12-.064-.189-.078a88.205 88.205 0 0 1-28.143-10.879l-1.945-1.168c.006-6.371-1.766-12.83-5.996-18.119l-.58-.723 8.023-24.068c.608-1.824.799-3.729.667-5.606.882.308 1.916 1.013 2.98 2.677zm-41.604 12.716c1.564-6.697 3.611-8.512 4.693-8.996.64-.287 1.451-.292 2.396-.067l-4.119 12.36a45.035 45.035 0 0 0-.944 3.26c-2.606-1.855-2.572-4.215-2.026-6.557zm36.727 73.67c-3.125.986-28.385 9.098-39.691 17.113l-25.873-25.875 24.234-22.217a30.286 30.286 0 0 0 13.25-25.074c0-4.018.645-7.982 1.914-11.789l7.424-22.275a6.538 6.538 0 0 1 7.469-4.336c1.863.373 3.412 1.482 4.365 3.125s1.146 3.537.547 5.338l-8.711 26.133a4.002 4.002 0 0 0 .672 3.766l1.939 2.424c6.232 7.787 4.891 19.729.465 27.01a4 4 0 0 0 1.34 5.496 3.998 3.998 0 0 0 5.496-1.34c1.674-2.754 3.002-5.957 3.857-9.377a95.991 95.991 0 0 0 25.426 10.289c-2.041 5.576-7.942 16.193-24.123 21.589zm99.808 17.114c-11.307-8.016-36.561-16.125-39.629-17.094-16.238-5.412-22.146-16.043-24.188-21.609a96.018 96.018 0 0 0 25.426-10.289c.855 3.42 2.184 6.623 3.857 9.377a3.997 3.997 0 0 0 5.496 1.34 4 4 0 0 0 1.34-5.496c-4.426-7.279-5.766-19.221.467-27.01l1.939-2.424a4.002 4.002 0 0 0 .672-3.766l-8.711-26.133a6.44 6.44 0 0 1 .547-5.338 6.442 6.442 0 0 1 4.363-3.125c3.211-.645 6.43 1.219 7.471 4.336l7.424 22.273a37.237 37.237 0 0 1 1.914 11.791 30.286 30.286 0 0 0 13.25 25.074l24.234 22.217z" fill="#3265ab" opacity="1" data-original="#000000"></path><circle cx="37.1" cy="127.074" r="6" fill="#3265ab" opacity="1" data-original="#000000"></circle><circle cx="43.1" cy="101.074" r="4" fill="#3265ab" opacity="1" data-original="#000000"></circle><circle cx="163.1" cy="261.074" r="4" fill="#3265ab" opacity="1" data-original="#000000"></circle><path d="M251.1 48.586a4 4 0 0 0 4-4v-5.66a4 4 0 0 0-8 0v5.66a4 4 0 0 0 4 4zM251.1 71.223a4 4 0 0 0 4-4v-5.66a4 4 0 0 0-8 0v5.66a4 4 0 0 0 4 4zM236.951 57.074h5.66a4 4 0 0 0 0-8h-5.66a4 4 0 0 0 0 8zM259.588 57.074h5.66a4 4 0 0 0 0-8h-5.66a4 4 0 0 0 0 8z" fill="#3265ab" opacity="1" data-original="#000000"></path></g></svg>