<svg xmlns="http://www.w3.org/2000/svg" version="1.1" xmlns:xlink="http://www.w3.org/1999/xlink" width="512" height="512" x="0" y="0" viewBox="0 0 682.667 682.667" style="enable-background:new 0 0 512 512" xml:space="preserve"><g><defs><clipPath id="a" clipPathUnits="userSpaceOnUse"><path d="M0 512h512V0H0Z" fill="#3265ab" opacity="1" data-original="#000000"></path></clipPath></defs><g clip-path="url(#a)" transform="matrix(1.33333 0 0 -1.33333 0 682.667)"><path d="M0 0c-86.985 0-157.5 70.515-157.5 157.5V437c0 33.137 26.863 60 60 60h195c33.137 0 60-26.863 60-60V157.5C157.5 70.515 86.985 0 0 0Z" style="stroke-width:15;stroke-linecap:round;stroke-linejoin:round;stroke-miterlimit:10;stroke-dasharray:none;stroke-opacity:1" transform="translate(166 7.5)" fill="none" stroke="#3265ab" stroke-width="15" stroke-linecap="round" stroke-linejoin="round" stroke-miterlimit="10" stroke-dasharray="none" stroke-opacity="" data-original="#000000" opacity="1"></path><path d="M0 0v-60h60V0" style="stroke-width:15;stroke-linecap:round;stroke-linejoin:round;stroke-miterlimit:10;stroke-dasharray:none;stroke-opacity:1" transform="translate(398.5 142.5)" fill="none" stroke="#3265ab" stroke-width="15" stroke-linecap="round" stroke-linejoin="round" stroke-miterlimit="10" stroke-dasharray="none" stroke-opacity="" data-original="#000000" opacity="1"></path><path d="M0 0v-41.833a59.996 59.996 0 0 1 10.077-33.282L30-105v-197h90v197l19.923 29.885A59.996 59.996 0 0 1 150-41.833V0Z" style="stroke-width:15;stroke-linecap:round;stroke-linejoin:round;stroke-miterlimit:10;stroke-dasharray:none;stroke-opacity:1" transform="translate(353.5 444.5)" fill="none" stroke="#3265ab" stroke-width="15" stroke-linecap="round" stroke-linejoin="round" stroke-miterlimit="10" stroke-dasharray="none" stroke-opacity="" data-original="#000000" opacity="1"></path><path d="M0 0a7.5 7.5 0 0 1-7.5 7.5A7.5 7.5 0 0 1-15 0a7.5 7.5 0 0 1 7.5-7.5A7.5 7.5 0 0 1 0 0" style="fill-opacity:1;fill-rule:nonzero;stroke:none" transform="translate(263.5 195)" fill="#3265ab" data-original="#000000" opacity="1"></path><path d="M0 0a7.5 7.5 0 0 1-7.5 7.5A7.5 7.5 0 0 1-15 0a7.5 7.5 0 0 1 7.5-7.5A7.5 7.5 0 0 1 0 0" style="fill-opacity:1;fill-rule:nonzero;stroke:none" transform="translate(218.5 165)" fill="#3265ab" data-original="#000000" opacity="1"></path><path d="M0 0a7.5 7.5 0 0 1-7.5 7.5A7.5 7.5 0 0 1-15 0a7.5 7.5 0 0 1 7.5-7.5A7.5 7.5 0 0 1 0 0" style="fill-opacity:1;fill-rule:nonzero;stroke:none" transform="translate(248.5 165)" fill="#3265ab" data-original="#000000" opacity="1"></path><path d="M0 0a7.5 7.5 0 0 1-7.5 7.5A7.5 7.5 0 0 1-15 0a7.5 7.5 0 0 1 7.5-7.5A7.5 7.5 0 0 1 0 0" style="fill-opacity:1;fill-rule:nonzero;stroke:none" transform="translate(233.5 195)" fill="#3265ab" data-original="#000000" opacity="1"></path><path d="M0 0a7.5 7.5 0 0 1-7.5 7.5A7.5 7.5 0 0 1-15 0a7.5 7.5 0 0 1 7.5-7.5A7.5 7.5 0 0 1 0 0" style="fill-opacity:1;fill-rule:nonzero;stroke:none" transform="translate(188.5 165)" fill="#3265ab" data-original="#000000" opacity="1"></path><path d="M0 0a7.5 7.5 0 0 1-7.5 7.5A7.5 7.5 0 0 1-15 0a7.5 7.5 0 0 1 7.5-7.5A7.5 7.5 0 0 1 0 0" style="fill-opacity:1;fill-rule:nonzero;stroke:none" transform="translate(158.5 165)" fill="#3265ab" data-original="#000000" opacity="1"></path><path d="M0 0a7.5 7.5 0 0 1-7.5 7.5A7.5 7.5 0 0 1-15 0a7.5 7.5 0 0 1 7.5-7.5A7.5 7.5 0 0 1 0 0" style="fill-opacity:1;fill-rule:nonzero;stroke:none" transform="translate(128.5 165)" fill="#3265ab" data-original="#000000" opacity="1"></path><path d="M0 0a7.5 7.5 0 0 1-7.5 7.5A7.5 7.5 0 0 1-15 0a7.5 7.5 0 0 1 7.5-7.5A7.5 7.5 0 0 1 0 0" style="fill-opacity:1;fill-rule:nonzero;stroke:none" transform="translate(98.5 165)" fill="#3265ab" data-original="#000000" opacity="1"></path><path d="M0 0a7.5 7.5 0 0 1-7.5 7.5A7.5 7.5 0 0 1-15 0a7.5 7.5 0 0 1 7.5-7.5A7.5 7.5 0 0 1 0 0" style="fill-opacity:1;fill-rule:nonzero;stroke:none" transform="translate(203.5 195)" fill="#3265ab" data-original="#000000" opacity="1"></path><path d="M0 0a7.5 7.5 0 0 1-7.5 7.5A7.5 7.5 0 0 1-15 0a7.5 7.5 0 0 1 7.5-7.5A7.5 7.5 0 0 1 0 0" style="fill-opacity:1;fill-rule:nonzero;stroke:none" transform="translate(173.5 195)" fill="#3265ab" data-original="#000000" opacity="1"></path><path d="M0 0a7.5 7.5 0 0 1-7.5 7.5A7.5 7.5 0 0 1-15 0a7.5 7.5 0 0 1 7.5-7.5A7.5 7.5 0 0 1 0 0" style="fill-opacity:1;fill-rule:nonzero;stroke:none" transform="translate(143.5 195)" fill="#3265ab" data-original="#000000" opacity="1"></path><path d="M0 0a7.5 7.5 0 0 1-7.5 7.5A7.5 7.5 0 0 1-15 0a7.5 7.5 0 0 1 7.5-7.5A7.5 7.5 0 0 1 0 0" style="fill-opacity:1;fill-rule:nonzero;stroke:none" transform="translate(113.5 195)" fill="#3265ab" data-original="#000000" opacity="1"></path><path d="M0 0a7.5 7.5 0 0 1-7.5 7.5A7.5 7.5 0 0 1-15 0a7.5 7.5 0 0 1 7.5-7.5A7.5 7.5 0 0 1 0 0" style="fill-opacity:1;fill-rule:nonzero;stroke:none" transform="translate(83.5 195)" fill="#3265ab" data-original="#000000" opacity="1"></path><path d="M0 0a7.5 7.5 0 0 1-7.5 7.5A7.5 7.5 0 0 1-15 0a7.5 7.5 0 0 1 7.5-7.5A7.5 7.5 0 0 1 0 0" style="fill-opacity:1;fill-rule:nonzero;stroke:none" transform="translate(263.5 135)" fill="#3265ab" data-original="#000000" opacity="1"></path><path d="M0 0a7.5 7.5 0 0 1-7.5 7.5A7.5 7.5 0 0 1-15 0a7.5 7.5 0 0 1 7.5-7.5A7.5 7.5 0 0 1 0 0" style="fill-opacity:1;fill-rule:nonzero;stroke:none" transform="translate(233.5 135)" fill="#3265ab" data-original="#000000" opacity="1"></path><path d="M0 0a7.5 7.5 0 0 1-7.5 7.5A7.5 7.5 0 0 1-15 0a7.5 7.5 0 0 1 7.5-7.5A7.5 7.5 0 0 1 0 0" style="fill-opacity:1;fill-rule:nonzero;stroke:none" transform="translate(203.5 135)" fill="#3265ab" data-original="#000000" opacity="1"></path><path d="M0 0a7.5 7.5 0 0 1-7.5 7.5A7.5 7.5 0 0 1-15 0a7.5 7.5 0 0 1 7.5-7.5A7.5 7.5 0 0 1 0 0" style="fill-opacity:1;fill-rule:nonzero;stroke:none" transform="translate(173.5 135)" fill="#3265ab" data-original="#000000" opacity="1"></path><path d="M0 0a7.5 7.5 0 0 1-7.5 7.5A7.5 7.5 0 0 1-15 0a7.5 7.5 0 0 1 7.5-7.5A7.5 7.5 0 0 1 0 0" style="fill-opacity:1;fill-rule:nonzero;stroke:none" transform="translate(143.5 135)" fill="#3265ab" data-original="#000000" opacity="1"></path><path d="M0 0a7.5 7.5 0 0 1-7.5 7.5A7.5 7.5 0 0 1-15 0a7.5 7.5 0 0 1 7.5-7.5A7.5 7.5 0 0 1 0 0" style="fill-opacity:1;fill-rule:nonzero;stroke:none" transform="translate(113.5 135)" fill="#3265ab" data-original="#000000" opacity="1"></path><path d="M0 0a7.5 7.5 0 0 1-7.5 7.5A7.5 7.5 0 0 1-15 0a7.5 7.5 0 0 1 7.5-7.5A7.5 7.5 0 0 1 0 0" style="fill-opacity:1;fill-rule:nonzero;stroke:none" transform="translate(83.5 135)" fill="#3265ab" data-original="#000000" opacity="1"></path><path d="M0 0v49.75c0 16.568 13.432 30 30 30h195c16.568 0 30-13.432 30-30v-174.5c0-24.853-20.147-45-45-45H45c-24.853 0-45 20.147-45 45V-30" style="stroke-width:15;stroke-linecap:round;stroke-linejoin:round;stroke-miterlimit:10;stroke-dasharray:none;stroke-opacity:1" transform="translate(38.5 394.75)" fill="none" stroke="#3265ab" stroke-width="15" stroke-linecap="round" stroke-linejoin="round" stroke-miterlimit="10" stroke-dasharray="none" stroke-opacity="" data-original="#000000" opacity="1"></path><path d="M0 0v60c0 8.284 6.716 15 15 15 8.284 0 15-6.716 15-15V0c0-8.284-6.716-15-15-15C6.716-15 0-8.284 0 0Z" style="stroke-width:15;stroke-linecap:round;stroke-linejoin:round;stroke-miterlimit:10;stroke-dasharray:none;stroke-opacity:1" transform="translate(413.5 240)" fill="none" stroke="#3265ab" stroke-width="15" stroke-linecap="round" stroke-linejoin="round" stroke-miterlimit="10" stroke-dasharray="none" stroke-opacity="" data-original="#000000" opacity="1"></path><path d="M0 0h-165c-8.284 0-15-6.716-15-15 0-8.284 6.716-15 15-15H0c8.284 0 15 6.716 15 15C15-6.716 8.284 0 0 0Z" style="stroke-width:15;stroke-linecap:round;stroke-linejoin:round;stroke-miterlimit:10;stroke-dasharray:none;stroke-opacity:1" transform="translate(248.5 285)" fill="none" stroke="#3265ab" stroke-width="15" stroke-linecap="round" stroke-linejoin="round" stroke-miterlimit="10" stroke-dasharray="none" stroke-opacity="" data-original="#000000" opacity="1"></path><path d="M68.5 315h195v129.5h-195z" style="stroke-width:15;stroke-linecap:round;stroke-linejoin:round;stroke-miterlimit:10;stroke-dasharray:none;stroke-opacity:1" fill="none" stroke="#3265ab" stroke-width="15" stroke-linecap="round" stroke-linejoin="round" stroke-miterlimit="10" stroke-dasharray="none" stroke-opacity="" data-original="#000000" opacity="1"></path><path d="M0 0v-75h-30V0" style="stroke-width:15;stroke-linecap:round;stroke-linejoin:round;stroke-miterlimit:10;stroke-dasharray:none;stroke-opacity:1" transform="translate(443.5 82.5)" fill="none" stroke="#3265ab" stroke-width="15" stroke-linecap="round" stroke-linejoin="round" stroke-miterlimit="10" stroke-dasharray="none" stroke-opacity="" data-original="#000000" opacity="1"></path><path d="M0 0h60" style="stroke-width:15;stroke-linecap:round;stroke-linejoin:round;stroke-miterlimit:10;stroke-dasharray:none;stroke-opacity:1" transform="translate(398.5 112.5)" fill="none" stroke="#3265ab" stroke-width="15" stroke-linecap="round" stroke-linejoin="round" stroke-miterlimit="10" stroke-dasharray="none" stroke-opacity="" data-original="#000000" opacity="1"></path><path d="M0 0v-30" style="stroke-width:15;stroke-linecap:round;stroke-linejoin:round;stroke-miterlimit:10;stroke-dasharray:none;stroke-opacity:1" transform="translate(133.5 285)" fill="none" stroke="#3265ab" stroke-width="15" stroke-linecap="round" stroke-linejoin="round" stroke-miterlimit="10" stroke-dasharray="none" stroke-opacity="" data-original="#000000" opacity="1"></path><path d="M0 0v-30" style="stroke-width:15;stroke-linecap:round;stroke-linejoin:round;stroke-miterlimit:10;stroke-dasharray:none;stroke-opacity:1" transform="translate(198.5 285)" fill="none" stroke="#3265ab" stroke-width="15" stroke-linecap="round" stroke-linejoin="round" stroke-miterlimit="10" stroke-dasharray="none" stroke-opacity="" data-original="#000000" opacity="1"></path></g></g></svg>