<svg xmlns="http://www.w3.org/2000/svg" version="1.1" xmlns:xlink="http://www.w3.org/1999/xlink" width="512" height="512" x="0" y="0" viewBox="0 0 512 512" style="enable-background:new 0 0 512 512" xml:space="preserve"><g><path d="M395.581 385.591c-7.387-19.617-21.581-47.686-47.247-70C322.63 293.237 291.564 281.9 256 281.9s-66.63 11.333-92.333 33.682c-25.667 22.318-39.861 50.387-47.248 70a28.024 28.024 0 0 0 11.434 33.76C148.954 432.29 193.662 454 256.005 454s107.045-21.71 128.144-34.651a28.021 28.021 0 0 0 11.432-33.758zm-17.706 23.529a205.9 205.9 0 0 1-23.1 12.14c-.509-2.634-6.367-34.047-11.3-54.7a6 6 0 1 0-11.672 2.786c4.861 20.363 10.989 53.226 11.666 56.633a246.776 246.776 0 0 1-174.945 0c.678-3.406 6.806-36.268 11.667-56.631a6 6 0 1 0-11.672-2.786c-4.931 20.655-10.789 52.064-11.3 54.7a205.952 205.952 0 0 1-23.1-12.139 16.007 16.007 0 0 1-6.477-19.3C138.509 360.979 172.755 293.9 256 293.9s117.491 67.08 128.351 95.92a16.006 16.006 0 0 1-6.476 19.3zM256 272.069a73.149 73.149 0 1 1 73.149-73.149A73.231 73.231 0 0 1 256 272.069zm0-134.3a61.149 61.149 0 1 0 61.149 61.149A61.218 61.218 0 0 0 256 137.771z" fill="#3265ab" opacity="1" data-original="#000000"></path><path d="M264.609 229.44a5.981 5.981 0 0 1-4.243-1.758 9.49 9.49 0 0 0-8.732 0 6 6 0 0 1-8.487-8.484c2.911-2.91 7.595-4.58 12.853-4.58s9.942 1.67 12.853 4.58a6 6 0 0 1-4.244 10.242zM278.389 203.189a6.014 6.014 0 0 1-1.594-.215l-4.589-1.261a6 6 0 0 1 3.18-11.571l4.589 1.26a6 6 0 0 1-1.586 11.787zM233.611 203.189a6 6 0 0 1-1.586-11.787l4.589-1.26a6 6 0 0 1 3.18 11.571l-4.589 1.261a6.014 6.014 0 0 1-1.594.215zM156.422 246.763a31.57 31.57 0 1 0 0 44.646 31.608 31.608 0 0 0-.001-44.646zm-8.486 8.486a19.6 19.6 0 0 1 3.571 22.761l-26.333-26.332a19.587 19.587 0 0 1 22.762 3.571zm-27.676 27.675a19.6 19.6 0 0 1-3.571-22.762l26.336 26.338a19.56 19.56 0 0 1-22.765-3.574zM384.537 116.454 363.081 95a19.875 19.875 0 1 0-28.107 28.107l21.456 21.457a19.875 19.875 0 1 0 28.107-28.108zm-43.385-7.4a7.876 7.876 0 0 1 13.445-5.568l6.485 6.485-11.137 11.137-6.486-6.485a7.827 7.827 0 0 1-2.307-5.572zm34.9 27.025a7.874 7.874 0 0 1-11.137 0l-6.486-6.486 11.136-11.137 6.487 6.486a7.876 7.876 0 0 1 0 11.137zM250.909 87a21 21 0 1 1 21-21 21.024 21.024 0 0 1-21 21zm0-30a9 9 0 1 0 9 9 9.01 9.01 0 0 0-9-9zM438.5 215.564l-19.179-19.179a6 6 0 1 0-8.484 8.486l5.939 5.939-10.26 10.26-7.827-7.827a6 6 0 0 0-9.254 7.545l-32.5 32.5a10.856 10.856 0 0 0 0 15.355l.411.411-14.061 14.066a6 6 0 0 0 8.485 8.485l14.062-14.063.41.411a10.859 10.859 0 0 0 15.357 0l32.5-32.5a6 6 0 0 0 7.545-9.254l-7.827-7.827 10.261-10.261 5.94 5.94a6 6 0 1 0 8.484-8.485zm-72.275 45.405 2.371-2.37 7.691 7.691-2.37 2.371zm18.547-3.163-7.692-7.692 20.738-20.739 7.693 7.692zM129.871 150.384a11.188 11.188 0 0 0-.486-11.906l-.065-.092-7.157-10.039q-.147-.206-.309-.4a14.394 14.394 0 1 0-21.954 18.62q.163.192.341.37l8.734 8.7.082.08a11.175 11.175 0 0 0 11.668 2.43l28.971 34.166a6 6 0 0 0 9.153-7.761zm-20.93-11.716a2.394 2.394 0 0 1 3.641-3.088l5.656 7.932a1.576 1.576 0 0 1-.264 2.117 1.578 1.578 0 0 1-2.133-.085zM163.57 162.982l-17.517-41.235a11.191 11.191 0 0 0 3.072-11.511c-.012-.036-.022-.072-.035-.109l-3.853-11.712a5.809 5.809 0 0 0-.176-.471 14.394 14.394 0 0 0-26.5 11.256q.1.231.216.455l5.755 10.9.055.1a11.2 11.2 0 0 0 9.811 5.806c.2 0 .4-.019.6-.03l17.519 41.239a6 6 0 1 0 11.045-4.692zm-33.977-60.306a2.394 2.394 0 0 1 4.347-.2l3.045 9.255a1.577 1.577 0 0 1-.881 1.944 1.577 1.577 0 0 1-2.011-.716l-4.547-8.616a2.381 2.381 0 0 1 .047-1.667z" fill="#3265ab" opacity="1" data-original="#000000"></path></g></svg>