<svg xmlns="http://www.w3.org/2000/svg" version="1.1" xmlns:xlink="http://www.w3.org/1999/xlink" width="512" height="512" x="0" y="0" viewBox="0 0 512 512" style="enable-background:new 0 0 512 512" xml:space="preserve"><g><path d="M202.275 26.557A62.135 62.135 0 0 0 149.92 28.1 82.617 82.617 0 0 0 104 102.4v.135l1.877 111.321c0 .219.022.433.043.647a34.209 34.209 0 0 0-.3 9.283l13.28 126.155a27.86 27.86 0 0 0 14.743 21.8l1.962 10.792a104.076 104.076 0 0 0-6.713 87.953l7.621 20.323A8 8 0 0 0 144 496h88a8 8 0 0 0 7.845-6.431l7.232-36.163 16.11-8.055a87.89 87.89 0 0 0 26.869-20.721 8.038 8.038 0 0 0 .8-1.1l31.085-7.771A8 8 0 0 0 328 408v-24a8 8 0 0 0-8-8h-8.538a88.165 88.165 0 0 0-54.972-91.62l-15.465-6.186a38.81 38.81 0 0 0-1.92-56.607L192 180.37V163.1l6.224 2.075a18.042 18.042 0 0 0 20.669-7.091l10.585-15.877 14.1-7.051a8 8 0 0 0 4.183-9.095L240 95.017V83.768a62.174 62.174 0 0 0-37.725-57.211Zm-45.2 15.849A46.243 46.243 0 0 1 224 83.768v7.282A128.235 128.235 0 0 1 168 104a8 8 0 0 0-7.428 5.029l-31.054 77.636a34.018 34.018 0 0 0-8.024 4.239L120 102.331a66.707 66.707 0 0 1 37.076-59.925Zm-6.216 345.71a8 8 0 0 0 1.011-5.547l-.338-1.858L174.111 392h-25.445a92.926 92.926 0 0 1 2.194-3.884ZM149.544 480l-5.675-15.132a90.157 90.157 0 0 1-2.806-8.868h89.178l-4.8 24Zm106.486-48.959L238.111 440h-99.7a87.787 87.787 0 0 1 3.677-32.239A8.028 8.028 0 0 0 144 408h62.111l30.311 15.155c1.111.556 30.93.845 30.93.845a72.349 72.349 0 0 1-11.322 7.041ZM312 401.754 287.015 408h-45.126l-100.512-50.256a11.943 11.943 0 0 1-6.567-9.477l-13.281-126.16a18.576 18.576 0 0 1 7.292-16.723l1.6-1.2a18.575 18.575 0 0 1 24.162 1.718A18.364 18.364 0 0 1 160 218.971V320a8 8 0 0 0 3.295 6.47l88 64a8 8 0 0 0 9.143.186L282.422 376h8.634l5.789 11.578A8 8 0 0 0 304 392h8Zm-61.451-102.518A71.909 71.909 0 0 1 295.714 360H280a8 8 0 0 0-4.438 1.344L256.2 374.252 176 315.926V288h46.46Zm-21.98-65.607a22.8 22.8 0 0 1-4.817 37.551l-1.641.82H176v-53.029A34.288 34.288 0 0 0 162.987 192H181Zm-8.147-104.784a7.994 7.994 0 0 0-3.078 2.717l-11.764 17.646a2.007 2.007 0 0 1-2.3.787l-16.754-5.584A8 8 0 0 0 176 152v24h-24.984l22.443-56.1a144.545 144.545 0 0 0 53.163-12.426l4.061 16.245Z" fill="#3265ab" opacity="1" data-original="#000000"></path><path d="M424.569 175.432a79.962 79.962 0 1 0 0 113.136 80.09 80.09 0 0 0 0-113.136Zm-101.824 11.313a64.083 64.083 0 0 1 84.487-5.291l-89.778 89.777a64.083 64.083 0 0 1 5.291-84.486Zm90.51 90.51a64.057 64.057 0 0 1-84.487 5.29l89.778-89.777a64.085 64.085 0 0 1-5.291 84.487Z" fill="#3265ab" opacity="1" data-original="#000000"></path></g></svg>