<svg xmlns="http://www.w3.org/2000/svg" version="1.1" xmlns:xlink="http://www.w3.org/1999/xlink" width="512" height="512" x="0" y="0" viewBox="0 0 66 66" style="enable-background:new 0 0 512 512" xml:space="preserve" class=""><g><path d="M59.54 4.49H45.5V3.01c0-.36-.29-.65-.65-.65H30.2c-.36 0-.65.29-.65.65V4.5H15.5c-1.63 0-2.95 1.32-2.95 2.95v25.14h-2.23c-.36 0-.65.29-.65.65v3.69c0 .36.29.65.65.65h1.19v8.85l-7.2 10.24A4.395 4.395 0 0 0 4 61.26a4.423 4.423 0 0 0 3.94 2.39h51.59c1.63 0 2.95-1.32 2.95-2.95V7.44a2.94 2.94 0 0 0-2.94-2.95zm-1.73 5.93c.27 0 .5.22.5.5V52.3h-5.37c-.99 0-1.8.81-1.8 1.8v5.36h-24.6c.06-.98-.21-1.97-.8-2.81l-7.2-10.24v-8.85h1.19c.36 0 .65-.29.65-.65v-3.69c0-.36-.29-.65-.65-.65h-2.99V10.92c0-.27.22-.5.5-.5h9.26a3.368 3.368 0 0 0 3.29 2.67h5.31a2.499 2.499 0 0 0 2.4 1.84c1.15 0 2.12-.78 2.41-1.84h5.31c1.62 0 2.97-1.15 3.29-2.67zm-.42 43.19-4.94 4.94V54.1c0-.27.22-.5.5-.5h4.44zM29.55 9.11h-1.72c.24-.76.91-1.32 1.72-1.41zm15.66 2.68h-5.88c-.36 0-.65.29-.65.65 0 .66-.53 1.19-1.19 1.19-.6 0-1.1-.45-1.17-1.04.01-.05.02-.1.02-.16 0-.36-.29-.65-.65-.65h-5.91c-.89 0-1.64-.57-1.93-1.37H47.14c-.28.8-1.04 1.38-1.93 1.38zm.29-2.68v-1.4c.79.11 1.43.66 1.66 1.4zM30.86 3.66h13.33v1.31c-.02.06-.04.11-.04.18 0 .06.02.12.04.18v3.79H30.86zm-17 3.78c0-.91.74-1.64 1.64-1.64h14.05v.6c-1.54.1-2.79 1.23-3.07 2.71h-9.25c-.99 0-1.8.81-1.8 1.8v21.67h-1.57zm-2.88 26.45h8.1v2.38h-8.1zM5.17 60.65c-.55-1.05-.47-2.26.22-3.24L12.71 47c.08-.11.12-.24.12-.38v-9.05h4.41v9.05c0 .13.04.27.12.38l7.32 10.41c.68.97.77 2.18.22 3.24s-1.59 1.69-2.78 1.69H7.95c-1.19 0-2.23-.63-2.78-1.69zm56.02.05c0 .91-.74 1.64-1.64 1.64h-34.3c.31-.32.59-.68.8-1.09.08-.16.15-.32.21-.48H51.8c.09 0 .17-.02.25-.05s.15-.08.21-.14l7.17-7.17c.06-.06.11-.13.14-.21s.05-.16.05-.25V10.92c0-.99-.81-1.8-1.8-1.8h-9.3a3.358 3.358 0 0 0-3.01-2.71V5.8h14.05c.91 0 1.64.74 1.64 1.64V60.7z" fill="#3265ab" opacity="1" data-original="#000000"></path><path d="M24.06 60.24c0-.01.01-.01.01-.02.38-.76.32-1.59-.16-2.27L20.5 53.1a.641.641 0 0 0-.71-.25c-1.68.48-3.55.12-4.88-.94-.2-.16-.39-.33-.59-.5-.62-.56-1.27-1.13-2.13-1.34a.665.665 0 0 0-.69.26l-5.36 7.62c-.72 1.03-.3 2.01-.16 2.28.14.28.71 1.19 1.96 1.19H22.1a2.2 2.2 0 0 0 1.96-1.18zm-1.15-.61c-.18.32-.45.48-.8.48H7.95c-.48 0-.71-.3-.81-.49a.861.861 0 0 1 .07-.93l5.07-7.21c.39.2.77.54 1.17.89.21.19.42.38.64.55 1.54 1.22 3.64 1.69 5.6 1.29l3.15 4.48c.2.3.23.61.07.94zM33.8 28.79h2.85c.62 0 1.13-.46 1.13-1.03v-5.85c0-.57-.51-1.03-1.13-1.03H33.8c-.62 0-1.13.46-1.13 1.03v5.85c0 .57.5 1.03 1.13 1.03zm.18-6.61h2.49v5.3h-2.49zM27.72 28.79h2.85c.62 0 1.13-.46 1.13-1.03v-8.8c0-.57-.51-1.03-1.13-1.03h-2.85c-.62 0-1.13.46-1.13 1.03v8.8c0 .57.51 1.03 1.13 1.03zm.18-9.56h2.49v8.25H27.9zM21.44 28.79h2.85c.62 0 1.13-.46 1.13-1.03V17.02c0-.57-.51-1.03-1.13-1.03h-2.85c-.62 0-1.13.46-1.13 1.03v10.74c0 .57.51 1.03 1.13 1.03zm.18-11.5h2.49v10.19h-2.49zM39.28 20.09c0 .36.29.65.65.65h15.1c.36 0 .65-.29.65-.65s-.29-.65-.65-.65h-15.1c-.36 0-.65.29-.65.65zM55.69 23.36c0-.36-.29-.65-.65-.65h-15.1c-.36 0-.65.29-.65.65s.29.65.65.65h15.1c.35 0 .65-.29.65-.65zM39.93 27.61h6.57c.36 0 .65-.29.65-.65s-.29-.65-.65-.65h-6.57c-.36 0-.65.29-.65.65s.29.65.65.65zM22.04 31.42c-.36 0-.65.29-.65.65v2.75c0 .36.29.65.65.65h31.91c.36 0 .65-.29.65-.65v-2.75c0-.36-.29-.65-.65-.65zm31.26 2.75H22.7v-1.44h30.6zM36.06 41.96h-15.1c-.36 0-.65.29-.65.65s.29.65.65.65h15.1c.36 0 .65-.29.65-.65a.642.642 0 0 0-.65-.65zM36.06 45.22h-15.1c-.36 0-.65.29-.65.65s.29.65.65.65h15.1c.36 0 .65-.29.65-.65a.642.642 0 0 0-.65-.65zM36.06 48.83H29.5c-.36 0-.65.29-.65.65s.29.65.65.65h6.57a.65.65 0 1 0-.01-1.3zM47.27 35.98c-.36 0-.65.29-.65.65v1.33c-3.79.33-6.78 3.52-6.78 7.4 0 .62.08 1.21.23 1.79v.03c0 .01.01.02.01.03.82 3.21 3.73 5.59 7.19 5.59 3.88 0 7.07-2.99 7.4-6.78H56c.36 0 .65-.29.65-.65 0-5.18-4.21-9.39-9.38-9.39zm-.66 3.3v5.58l-5.41 1.36c-.04-.28-.07-.56-.07-.85.01-3.16 2.41-5.77 5.48-6.09zm-5.08 8.2 5.27-1.33 1.33 5.27c-.28.04-.56.07-.86.07-2.64 0-4.88-1.67-5.74-4.01zm7.86 3.62-1.28-5.09h5.25a6.163 6.163 0 0 1-3.97 5.09zm-1.47-6.39v-7.39c3.94.32 7.09 3.46 7.4 7.39z" fill="#3265ab" opacity="1" data-original="#000000"></path></g></svg>