<svg xmlns="http://www.w3.org/2000/svg" version="1.1" xmlns:xlink="http://www.w3.org/1999/xlink" width="512" height="512" x="0" y="0" viewBox="0 0 512 512" style="enable-background:new 0 0 512 512" xml:space="preserve"><g><path d="M258.874 70.84a5.788 5.788 0 0 0 3.604 2.249c.19.045.368.107.563.135a6.042 6.042 0 0 0 .751.18 5.97 5.97 0 0 0 3.438-1.086 116.3 116.3 0 0 1 12.894-7.82c.01-.006.016-.016.026-.02.024-.014.047-.03.072-.041a6 6 0 1 0-5.516-10.657 128.001 128.001 0 0 0-14.258 8.617c-.023.016-.03.043-.052.06-.016.012-.033.02-.05.032a5.85 5.85 0 0 0-1.77 2.056c-.03.06-.04.12-.069.18a5.877 5.877 0 0 0-.611 2.557c0 .015-.01.027-.01.04 0 .026.01.052.011.077a5.84 5.84 0 0 0 .977 3.442zM379.929 60.382a5.656 5.656 0 0 0 .705.84 5.904 5.904 0 0 0 1.333.988c.084.043.134.121.22.162.244.114.48.25.723.367a114.594 114.594 0 0 1 12.594 6.979c.152.097.328.105.485.19a6.122 6.122 0 0 0 1.255.488 5.65 5.65 0 0 0 1.207.168c.064.004.126.027.19.027.047 0 .088-.033.135-.035a5.898 5.898 0 0 0 5.017-2.65 6 6 0 0 0-1.805-8.29c-.027-.017-.054-.03-.08-.048-.014-.008-.02-.024-.033-.031a127.8 127.8 0 0 0-6.935-4.116c-.04-.021-.076-.047-.115-.068q-3.723-2.057-7.552-3.855a5.999 5.999 0 0 0-7.977 2.898 6.472 6.472 0 0 0 .633 5.986zM230.736 220.067c-.015-.027-.031-.052-.045-.08a5.996 5.996 0 0 0-8.086-2.57 5.63 5.63 0 0 0-1.212 1.14 6.071 6.071 0 0 0-.666.626 5.595 5.595 0 0 0-.773 1.418 5.792 5.792 0 0 0-.326 1.185 5.874 5.874 0 0 0-.266.963c0 .143.094.284.104.428a5.996 5.996 0 0 0 .348 1.422 5.702 5.702 0 0 0 .22.904 128.8 128.8 0 0 0 8.61 14.262c.006.008.015.012.02.02l.058.088c.108.154.285.21.404.351a5.906 5.906 0 0 0 1.453 1.266 5.717 5.717 0 0 0 1.43.555 5.825 5.825 0 0 0 .793.187 5.907 5.907 0 0 0 .845.203 6.001 6.001 0 0 0 4.918-9.437 114.811 114.811 0 0 1-7.804-12.899c-.006-.012-.02-.02-.025-.032zM218.296 118.561a5.842 5.842 0 0 0 2.473 2.35 5.905 5.905 0 0 0 2.543.57 6 6 0 0 0 5.437-3.453 114.797 114.797 0 0 1 7.293-13.21c.009-.014.009-.03.017-.044l.046-.076a6.003 6.003 0 0 0-10.11-6.476 129.635 129.635 0 0 0-8.062 14.578c-.01.02-.005.043-.014.062-.012.026-.026.05-.037.073a5.887 5.887 0 0 0 .368 5.549l.046.077zM445.925 212.972a6 6 0 0 0-7.976 2.89c-.545 1.166-1.17 2.307-1.758 3.461-.59 1.157-1.148 2.326-1.776 3.463-.441.797-.935 1.565-1.396 2.352-.834 1.43-1.653 2.87-2.543 4.25a5.705 5.705 0 0 0-.407 1.039c-.034.1-.087.191-.115.293a5.919 5.919 0 0 0 2.315 6.965 6.03 6.03 0 0 0 3.246.953 5.893 5.893 0 0 0 3.5-1.325 6.016 6.016 0 0 0 .612-.562 5.653 5.653 0 0 0 .935-.863c.06-.092.11-.192.17-.284.015-.021.04-.033.053-.054.83-1.301 1.581-2.653 2.365-3.985.59-1 1.213-1.974 1.777-2.994.77-1.392 1.457-2.818 2.172-4.234.511-1.01 1.067-1.998 1.55-3.02.007-.016.005-.031.011-.047.052-.11.114-.215.165-.322a5.999 5.999 0 0 0-2.9-7.976zM460.745 166.192a127.202 127.202 0 0 0-.375-8.916c-.024-.316-.012-.617-.039-.935l-.043-.485a5.77 5.77 0 0 0-6.472-5.18 6.228 6.228 0 0 0-5.438 6.735v.007c.244 2.909.337 5.803.363 8.682.016 1.83.008 3.656-.06 5.467-.013.313-.007.625-.022.938a5.996 5.996 0 0 0 5.707 6.28c.097.009.195.009.289.009a5.997 5.997 0 0 0 5.988-5.711c.006-.127.003-.254.01-.383 0-.008.005-.016.005-.026.01-.189 0-.38.008-.568.065-1.656.117-3.31.117-4.969.001-.31-.036-.632-.038-.945zM206.292 177.364c.004.086.028.438.035.531.007.075.05.133.06.207l.015.163.03-.006a5.847 5.847 0 0 0 5.829 4.965c.183 0 .367-.008.554-.024a6.12 6.12 0 0 0 5.45-6.61c-.251-2.991-.354-5.966-.373-8.925-.014-1.914-.006-3.824.075-5.72.003-.067.002-.131.005-.198l-.002-.01c.002-.04 0-.082.002-.121a5.784 5.784 0 0 0-5.711-6.273 5.997 5.997 0 0 0-6.274 5.71 118.374 118.374 0 0 0 .26 15.22c.027.357.015.742.045 1.091zM399.511 261.616a116.206 116.206 0 0 1-12.89 7.832c-.01.006-.014.018-.025.022-.096.05-.188.11-.284.16a6 6 0 1 0 5.515 10.656 128.824 128.824 0 0 0 14.262-8.61c.03-.02.044-.054.073-.078.078-.052.162-.101.24-.154a6.002 6.002 0 0 0-6.891-9.828zM433.024 108.825c.961 1.645 1.922 3.291 2.8 4.975a5.811 5.811 0 0 0 2.116 2.193c.083.053.162.088.247.135a5.899 5.899 0 0 0 5.723.23 6 6 0 0 0 2.554-8.09c-.01-.021-.025-.043-.036-.064-.008-.016-.006-.035-.014-.05a129.218 129.218 0 0 0-8.645-14.235 6.005 6.005 0 0 0-8.355-1.469 5.887 5.887 0 0 0-2.451 4.828c-.002.065-.046.123-.046.19 0 .123.048.242.056.365a5.798 5.798 0 0 0 .175 1.16 5.908 5.908 0 0 0 .667 1.53c.058.09.063.196.126.286.083.12.157.248.24.367a114.442 114.442 0 0 1 3.928 6.028c.322.531.601 1.086.915 1.621zM323.73 51.94l.007-.002v.004c.102-.008.203-.008.305-.016 2.79-.226 5.565-.322 8.327-.347 2.04-.02 4.076-.018 6.091.066h.007c.035 0 .071 0 .106.002a5.663 5.663 0 0 0 .603-.094 5.58 5.58 0 0 0 3.65-1.427 5.956 5.956 0 0 0 2.013-4.198 5.875 5.875 0 0 0-5.719-6.265c-1.89-.086-3.773-.13-5.672-.13-.337 0-.66.038-.997.042q-3.977.032-8.113.336c-.45.031-.938.02-1.382.056-.086.004-.437.028-.531.035a5.875 5.875 0 0 0-5.328 5.934c0 .184.008.367.023.555a6.12 6.12 0 0 0 6.61 5.449zM342.91 282.054c-3.007.252-6 .355-8.975.375-1.63.01-3.256-.008-4.873-.065-.414-.015-.833-.01-1.246-.029a5.553 5.553 0 0 0-.698.105 5.394 5.394 0 0 0-3.567 1.409 5.964 5.964 0 0 0-2.017 4.193c-.007.098-.007.195-.007.29a5.997 5.997 0 0 0 5.71 5.987c.032.002.063 0 .094.002.017 0 .03.012.047.012a119.514 119.514 0 0 0 15.618-.285c.333-.025.65-.014.984-.041l.484-.043a5.77 5.77 0 0 0 5.18-6.473 6.228 6.228 0 0 0-6.735-5.437zM333.324 86.661a80.34 80.34 0 1 0 80.34 80.344 80.43 80.43 0 0 0-80.34-80.344zm0 148.68a68.34 68.34 0 1 1 68.34-68.336 68.415 68.415 0 0 1-68.34 68.336z" fill="#3265ab" opacity="1" data-original="#000000"></path><path d="M333.324 126.661a40.34 40.34 0 1 0 40.34 40.344 40.39 40.39 0 0 0-40.34-40.344zm0 68.68a28.34 28.34 0 1 1 28.34-28.336 28.37 28.37 0 0 1-28.34 28.336zM269.96 247.638l-44.414 16.843a44.471 44.471 0 0 0-28.698 45.247l-29.677 29.675a29.07 29.07 0 0 0-5.15 33.9 112.31 112.31 0 0 0-14.647 12.553c-12.707 12.703-17.219 21.648-21.234 29.61-4.067 8.077-7.579 15.054-18.88 26.351-10.757 10.766-17.866 14.61-25.39 18.688l-1.277.687a6 6 0 0 0 5.727 10.547l1.262-.687a104.922 104.922 0 0 0 28.164-20.75c12.668-12.664 16.96-21.196 21.144-29.508 3.922-7.773 7.625-15.11 18.973-26.453a98.787 98.787 0 0 1 13.795-11.713 28.83 28.83 0 0 0 38.693-2.045l29.794-29.797c1.072.076 2.121.313 3.202.313a45.367 45.367 0 0 0 9.465-1 44.607 44.607 0 0 0 32.46-27.899l16.848-44.414a23.38 23.38 0 0 0-30.16-30.148zm-70.094 124.46a17.528 17.528 0 0 1-24.21 0 17.145 17.145 0 0 1 0-24.21l24.434-24.434a44.716 44.716 0 0 0 24.182 24.236zm89.036-98.562-16.848 44.414a32.76 32.76 0 1 1-42.25-42.25l44.414-16.844a11.698 11.698 0 0 1 4.156-.781 11.443 11.443 0 0 1 10.528 15.46zM94.695 345.474a56.974 56.974 0 0 1 12.324-17.204 65.286 65.286 0 0 1 7.82-6.675 21.403 21.403 0 0 0 27.258-2.512l19.257-19.262c.468.022.921.137 1.391.137a32.474 32.474 0 0 0 6.742-.71 31.774 31.774 0 0 0 23.137-19.884l11.262-29.687a17.616 17.616 0 0 0-22.723-22.719l-29.683 11.258a31.886 31.886 0 0 0-20.548 31.357l-19.17 19.174a21.46 21.46 0 0 0-4.537 23.557 78.516 78.516 0 0 0-8.69 7.482 68.781 68.781 0 0 0-14.578 20.336 55.872 55.872 0 0 1-12.238 17.07 60.089 60.089 0 0 1-16.509 12.149l-.856.46a6 6 0 0 0 5.727 10.548l.84-.453a71.907 71.907 0 0 0 19.285-14.22 67.533 67.533 0 0 0 14.489-20.202zm48.64-81.602a19.586 19.586 0 0 1 12.402-14.437l29.684-11.258a5.46 5.46 0 0 1 5.961 1.281 5.53 5.53 0 0 1 1.285 5.969l-11.262 29.687a19.834 19.834 0 0 1-14.437 12.399 19.907 19.907 0 0 1-23.633-23.64zm-23.09 33.36 14.355-14.358a29.976 29.976 0 0 0 13.435 13.299l-14.422 14.426a9.452 9.452 0 0 1-13.368-13.368z" fill="#3265ab" opacity="1" data-original="#000000"></path></g></svg>