<svg xmlns="http://www.w3.org/2000/svg" version="1.1" xmlns:xlink="http://www.w3.org/1999/xlink" width="512" height="512" x="0" y="0" viewBox="0 0 512 512" style="enable-background:new 0 0 512 512" xml:space="preserve"><g><path d="M8 280h304c4.424 0 8-3.576 8-8v-32c0-4.424-3.576-8-8-8H8c-4.424 0-8 3.576-8 8v32c0 4.424 3.576 8 8 8zm8-32h288v16H16v-16zM8 224h200a8.037 8.037 0 0 0 6.392-3.176 8.031 8.031 0 0 0 1.304-7.016l-8.432-29.496c-5.4-18.896-24.224-31.256-43.632-28.68L6.968 176.072A7.994 7.994 0 0 0 0 184v32c0 4.424 3.576 8 8 8zm8-32.976 149.704-19.528c11.704-1.528 22.944 5.88 26.176 17.208L197.392 208H16v-16.976zM296 184c0-22.056-17.944-40-40-40s-40 17.944-40 40 17.944 40 40 40 40-17.944 40-40zm-64 0c0-13.232 10.768-24 24-24s24 10.768 24 24-10.768 24-24 24-24-10.768-24-24z" fill="#3265ab" opacity="1" data-original="#000000"></path><path d="M512 216C512 101.304 418.696 8 304 8c-75.947 0-145.773 41.34-182.301 107.896a7.99 7.99 0 0 0 5.364 11.96 7.784 7.784 0 0 0 1.532.144h78.929a7.949 7.949 0 0 0 3.959-.958c.051-.027.098-.06.148-.088.168-.096.336-.193.499-.303.193-.129.378-.269.559-.414.016-.013.034-.024.051-.038.228-.186.444-.385.65-.595C237.584 101.352 269.765 88 304 88c70.576 0 128 57.424 128 128s-57.424 128-128 128c-31.428 0-61.388-11.49-84.589-32H310c4.424 0 8-3.576 8-8s-3.576-8-8-8H124.73c-.061-.003-.123.001-.185 0H8c-4.424 0-8 3.576-8 8s3.576 8 8 8h111.48c7.369 14.191 16.177 27.272 26.204 39.099l22.412 146.109A7.987 7.987 0 0 0 176 504h256a7.987 7.987 0 0 0 7.904-6.784l22.479-146.545C493.306 314.357 512 267.325 512 216zm-315.237 96c27.281 30.559 66.147 48 107.237 48 79.4 0 144-64.6 144-144S383.4 72 304 72c-37.414 0-72.647 14.179-99.582 40h-61.797C177.784 57.398 238.423 24 304 24c105.864 0 192 86.136 192 192s-86.136 192-192 192c-56.317 0-108.096-23.949-143.92-64.724a7.994 7.994 0 0 0-1.817-2.102A193.413 193.413 0 0 1 137.712 312h59.051zm228.365 176H182.864l-17.951-117.067C202.302 404.653 251.317 424 304 424c53.465 0 102.275-20.28 139.16-53.544L425.128 488z" fill="#3265ab" opacity="1" data-original="#000000"></path><path d="M298.32 458.32c-1.448 1.512-2.32 3.6-2.32 5.68 0 2.08.872 4.16 2.32 5.68 1.512 1.44 3.6 2.32 5.68 2.32 2.08 0 4.16-.88 5.68-2.32 1.44-1.52 2.32-3.6 2.32-5.68 0-2.08-.88-4.168-2.32-5.68-2.96-2.96-8.4-2.96-11.36 0zM330.32 458.32c-1.448 1.512-2.32 3.6-2.32 5.68 0 2.08.872 4.16 2.32 5.68 1.512 1.44 3.6 2.32 5.68 2.32 2.08 0 4.16-.88 5.68-2.32 1.44-1.52 2.32-3.6 2.32-5.68 0-2.08-.88-4.168-2.32-5.68-2.96-2.96-8.4-2.96-11.36 0zM266.32 458.32c-1.448 1.512-2.32 3.6-2.32 5.68 0 2.08.872 4.16 2.32 5.68 1.512 1.44 3.6 2.32 5.68 2.32 2.08 0 4.16-.88 5.68-2.32 1.44-1.52 2.32-3.6 2.32-5.68 0-2.08-.88-4.168-2.32-5.68-2.96-2.96-8.4-2.96-11.36 0z" fill="#3265ab" opacity="1" data-original="#000000"></path></g></svg>