<svg xmlns="http://www.w3.org/2000/svg" version="1.1" xmlns:xlink="http://www.w3.org/1999/xlink" width="512" height="512" x="0" y="0" viewBox="0 0 512 512" style="enable-background:new 0 0 512 512" xml:space="preserve"><g><path d="M415.08 415.66c-4.46-16.28-13.32-30.92-25.61-42.34-6.81-6.32-14.62-11.65-23.35-16a30.45 30.45 0 0 0-1.49-16.73c-3.3-8.57-10.19-15.14-18.92-18.01-.26-.08-.52-.14-.77-.22-3.32-30.27-20.2-58.31-47.11-75.42-19.21-12.22-33.13-25.44-42.87-40.83l9.96 2.19c10.53 2.32 21.39-.74 29.05-8.17 13.96-13.54 21.42-29.76 22.81-49.58l6.11-2.37c4-1.55 7.02-4.79 8.29-8.89 1.27-4.09.62-8.48-1.78-12.02l-6.06-8.93a32.961 32.961 0 0 1-5.42-22.71l2.42-18.81a67.268 67.268 0 0 0-14.47-50.92 7.98 7.98 0 0 0-1.62-1.95c-.04-.04-.07-.09-.11-.13A67.305 67.305 0 0 0 253.64 1H206.5c-27.92 0-52.52 16.81-62.66 42.83a91.944 91.944 0 0 0-5.71 23.29C111.3 68.87 90 91.24 90 118.5c0 28.4 23.1 51.5 51.5 51.5 9.5 0 18.39-2.6 26.04-7.1l-.22 1.56a646.655 646.655 0 0 0-6.04 74.73 39.756 39.756 0 0 0-5.28 19.82v78.17c0 32.32 9.33 63.38 26.68 89.95-.42 22.81-8.26 45.35-23.12 63.7l-5.78 7.14c-2.78 3.43-2.25 8.47 1.18 11.25a7.956 7.956 0 0 0 5.03 1.78 7.96 7.96 0 0 0 6.22-2.97l5.78-7.14c13.11-16.2 21.47-35.22 24.9-55.04 1.52 1.74 3.08 3.45 4.68 5.13l54.91 57.54c3.05 3.2 8.12 3.32 11.31.27 3.2-3.05 3.32-8.11.27-11.31l-54.91-57.54C186.62 412.12 172 375.62 172 337.17V259c0-13.23 10.77-24 24-24s24 10.77 24 24v102.54c0 21.47 7.43 42.49 20.91 59.19l70.48 87.3a7.975 7.975 0 0 0 6.23 2.98c1.76 0 3.54-.58 5.02-1.78a8.003 8.003 0 0 0 1.2-11.25l-70.48-87.3c-11.2-13.87-17.36-31.32-17.36-49.14V259c0-2.05-.16-4.06-.45-6.03 15.05 5.74 30 8.59 45.16 8.59 3.2 0 6.41-.13 9.64-.38 21.48 14.11 35.17 36.53 38.44 60.85-6.28 1.57-12.07 5.1-16.3 10.31l-5.89 7.25a30.482 30.482 0 0 0-5.49 28.15A30.459 30.459 0 0 0 321.4 388l1.5.46c2.98.91 6 1.34 8.97 1.34 10.72 0 20.84-5.67 26.4-15.43l1.35-2.37c20.34 10.33 34.23 26.76 40.02 47.91 7.54 27.53-.72 59.29-20.08 77.24-3.24 3-3.43 8.07-.43 11.31a7.986 7.986 0 0 0 5.87 2.56c1.95 0 3.9-.71 5.44-2.13 23.93-22.2 33.83-59.66 24.64-93.23zM158.75 49.64C166.48 29.81 185.22 17 206.5 17h47.14c13.58 0 26.56 5.41 36.13 14.92-5.88 13.34-18.73 20.9-34.54 19.94-7.56-.45-14.47 4.49-16.44 11.76-3 11.09-9.01 21.64-18.35 32.25-10.28-7.25-19.31-5.12-25.08-2.04-9.63 5.14-15.23 15.78-14.27 27.1.49 5.79 1.79 10.26 3.96 13.61-1.62 2.01-3.86 3.64-6.87 5.05l-13.36-21.82c-12.48-20.39-14.75-45.86-6.07-68.13zM106 118.5c0-18.3 13.92-33.41 31.73-35.3.92 15.04 5.44 29.84 13.44 42.92l12.35 20.18c-6.06 4.81-13.71 7.7-22.02 7.7-19.57 0-35.5-15.93-35.5-35.5zm71.85 104.87c.92-18.96 2.69-37.96 5.31-56.7l.45-3.21c.41-2.93.43-5.89.09-8.8 4.05-1.74 8.48-4.31 12.26-8.33 5.96 4.37 13.03 6.9 21.34 7.63a8.007 8.007 0 0 0 8.67-7.27c.39-4.4-2.87-8.28-7.27-8.67-8.62-.76-14.62-4.17-19.37-11-.25-.38-.51-.74-.79-1.1-.04-.05-1.09-1.4-1.51-6.35-.42-4.94 1.88-9.5 5.86-11.63 2.38-1.27 4.71-1.58 8.39 1.04 6.63 4.72 15.72 3.64 21.14-2.5 11.03-12.51 18.17-25.17 21.87-38.66 19.24 1.15 35.91-6.98 45.7-21.44a51.202 51.202 0 0 1 4.49 28.38l-2.42 18.81a48.894 48.894 0 0 0 8.04 33.73l4.65 6.86-4.4 1.71c-5.4 2.1-9.12 7.22-9.5 13.06-1.02 15.94-6.91 28.92-18.02 39.7-3.8 3.68-9.21 5.19-14.47 4.03l-38.63-8.5c-4.31-.95-8.58 1.78-9.53 6.09s1.78 8.58 6.09 9.53l7.92 1.74c7.7 16.29 18.62 30.39 33.58 43.16-14.58-1.82-29.12-6.7-43.96-14.75-.22-.12-.45-.23-.68-.33-7.16-6.56-16.69-10.6-27.15-10.6-6.53 0-12.7 1.58-18.15 4.37zm170.91 135.36-4.39 7.7c-3.38 5.93-10.29 8.68-16.82 6.7l-1.5-.46c-4.7-1.43-8.21-4.94-9.65-9.63s-.48-9.57 2.61-13.38l5.89-7.25c2.79-3.44 7-5.35 11.3-5.35a14.454 14.454 0 0 1 13.49 9.28c1.57 4.08 1.23 8.6-.93 12.39z" fill="#3265ab" opacity="1" data-original="#000000"></path></g></svg>