<svg xmlns="http://www.w3.org/2000/svg" version="1.1" xmlns:xlink="http://www.w3.org/1999/xlink" width="512" height="512" x="0" y="0" viewBox="0 0 496 496" style="enable-background:new 0 0 512 512" xml:space="preserve" class=""><g><path fill="#3265ab" d="M136 472a51.776 51.776 0 0 0-28.622-46.311L104 424l-7.357 7.357A29.51 29.51 0 0 1 75.777 440C64.854 440 56 431.146 56 420.223a19.777 19.777 0 0 1 10.932-17.689L72 400c0-7.829-4.311-18.806-7.663-26.159-1.831-4.016-.062-8.634 3.743-10.498l-.756-1.592-.516-.672C54.583 345.141 36.064 336 16 336H5.754l2.485 9.94a105.096 105.096 0 0 1-2.259 58.821l-2.744 8.231A62.981 62.981 0 0 0 0 432.936C0 467.709 28.291 496 63.064 496h20.091c19.712 0 38.824-5.57 55.419-16.131l-2.634.006z" opacity="1" data-original="#f0bc5e" class=""></path><path d="M480 352h-96v-44.734c0-18.196-6.809-35.569-19.172-48.92s-29.164-21.473-47.306-22.868l-30.135-2.317c-4.142-.318-7.387-3.822-7.387-7.977v-8.711c16.62-8.283 29.603-22.798 35.872-40.472H320c17.645 0 32-14.355 32-32s-14.355-32-32-32V56c0-22.056-17.944-40-40-40h-64c-22.056 0-40 17.944-40 40v56c-17.645 0-32 14.355-32 32s14.355 32 32 32h4.128c6.269 17.675 19.251 32.189 35.872 40.472v8.711c0 4.154-3.245 7.658-7.386 7.977l-30.137 2.317c-.827.064-1.652.153-2.477.245v-10.738a50.171 50.171 0 0 0-38.06-48.745l-9.94-2.485v83.622c-9.311 3.303-16 12.195-16 22.624v32c0 10.429 6.689 19.321 16 22.624V352c0 .819.081 1.617.201 2.403A55.813 55.813 0 0 0 112 352H89.889a83.816 83.816 0 0 0-22.595 3.104 15.972 15.972 0 0 0-10.19 8.658 15.998 15.998 0 0 0-.046 13.396c3.214 7.05 5.429 13.381 6.396 18.171l-.098.049C53.884 400.113 48 409.634 48 420.223 48 435.539 60.461 448 75.777 448c10.018 0 19.437-3.901 26.523-10.986l3.247-3.247C119.447 441.499 128 455.973 128 472v8h36.305c5.542 9.555 15.876 16 27.695 16h288c8.822 0 16-7.178 16-16V368c0-8.822-7.178-16-16-16zm-144 0v-16h32v16zm-96-224v16h-48v-40h112v40h-48v-16zm96 16c0 8.822-7.178 16-16 16h-.455c.292-2.628.455-5.295.455-8v-24c8.822 0 16 7.178 16 16zM216 32h64c13.233 0 24 10.767 24 24v32H192V56c0-13.233 10.767-24 24-24zm-40 128c-8.822 0-16-7.178-16-16s7.178-16 16-16v24c0 2.705.163 5.372.455 8zm16.581 0H303.42c-3.895 27.102-27.258 48-55.419 48s-51.526-20.898-55.42-48zM248 224c5.5 0 10.85-.641 16-1.814v2.998c0 9.48 5.635 17.826 13.801 21.701L248 276.687l-29.801-29.802C226.365 243.01 232 234.664 232 225.184v-2.998A71.947 71.947 0 0 0 248 224zM144 335.195a39.835 39.835 0 0 0 16-7.217V352h-16zm16-110.211v39.038a39.835 39.835 0 0 0-16-7.217v-60.813a34.194 34.194 0 0 1 16 28.992zM128 280c0-4.411 3.589-8 8-8 13.233 0 24 10.767 24 24s-10.767 24-24 24c-4.411 0-8-3.589-8-8zm32 88c8.822 0 16-7.178 16-16v-33.376a23.885 23.885 0 0 0 8 1.376h8c8.822 0 16-7.178 16-16v-16c0-8.822-7.178-16-16-16h-8c-2.805 0-5.496.488-8 1.376v-21.524a56.81 56.81 0 0 1 3.705-.422l18.955-1.458 49.34 49.34 49.34-49.34 18.955 1.458C345.289 253.66 368 278.186 368 307.265V320h-32v-20.687a19.183 19.183 0 0 1 5.657-13.656l-11.313-11.314c-6.67 6.67-10.343 15.537-10.343 24.971V352h-32c-8.822 0-16 7.178-16 16h-16c-28.368 0-53.898 12.372-71.488 32H167.43c-1.789-12.455-7.7-23.592-16.292-32zm16-72c0-4.411 3.589-8 8-8h8l.01 16H184c-4.411 0-8-3.589-8-8zm80 88h16v48h-80c-3.487 0-6.841.568-9.985 1.604C194.006 404.526 222.645 384 256 384zm-112.526 80c-2.587-19.504-14.554-36.484-32.517-45.466l-8.536-4.269L90.987 425.7a21.37 21.37 0 0 1-15.21 6.3C69.283 432 64 426.717 64 420.223c0-4.489 2.495-8.525 6.511-10.533L80 404.944V400c0-7.357-2.821-17.275-8.392-29.488A67.77 67.77 0 0 1 89.889 368H112c22.056 0 40 17.944 40 40v8h20.887C164.695 430.129 160 446.526 160 464zM192 480c-8.822 0-16-7.178-16-16s7.178-16 16-16h80v32zm288 0H288V368h192l.01 112H480z" fill="#3265ab" opacity="1" data-original="#000000" class=""></path><circle cx="216" cy="120" r="8" fill="#3265ab" opacity="1" data-original="#000000" class=""></circle><circle cx="280" cy="120" r="8" fill="#3265ab" opacity="1" data-original="#000000" class=""></circle><path d="M240 80h16v-8h8V56h-8v-8h-16v8h-8v16h8zM384 144h24v8c0 13.233 10.766 24 24 24s24-10.767 24-24v-8h24c8.822 0 16-7.178 16-16 0-26.805-16.571-49.798-40-59.313V56c0-10.429-6.689-19.321-16-22.624V0h-16v33.376c-9.311 3.303-16 12.195-16 22.624v12.687c-23.429 9.515-40 32.509-40 59.313 0 8.822 7.178 16 16 16zm56 8c0 4.411-3.589 8-8 8s-8-3.589-8-8v-8h16zm-16-96c0-4.411 3.589-8 8-8s8 3.589 8 8v8.518c-2.623-.329-5.289-.518-8-.518s-5.377.189-8 .518zm8 24c26.467 0 48 21.532 48.01 48H384c0-26.468 21.533-48 48-48zM88 152v-8h24c8.822 0 16-7.178 16-16 0-26.805-16.571-49.798-40-59.313V56c0-10.429-6.689-19.321-16-22.624V0H56v33.376C46.689 36.679 40 45.571 40 56v12.687C16.571 78.202 0 101.195 0 128c0 8.822 7.178 16 16 16h24v8c0 13.233 10.766 24 24 24s24-10.767 24-24zM56 56c0-4.411 3.589-8 8-8s8 3.589 8 8v8.518c-2.623-.329-5.289-.518-8-.518s-5.377.189-8 .518zm8 24c26.467 0 48 21.532 48.01 48H16c0-26.468 21.533-48 48-48zm-8 72v-8h16v8c0 4.411-3.589 8-8 8s-8-3.589-8-8z" fill="#3265ab" opacity="1" data-original="#000000" class=""></path></g></svg>