<svg xmlns="http://www.w3.org/2000/svg" version="1.1" xmlns:xlink="http://www.w3.org/1999/xlink" width="512" height="512" x="0" y="0" viewBox="0 0 173.397 173.397" style="enable-background:new 0 0 512 512" xml:space="preserve" fill-rule="evenodd" class=""><g><path d="M69.8 13.497c-10.474 0-21.548 3.94-23.601 8.87-.114.27-.297.51-.532.688-2.189 1.66-3.53 4.245-3.878 7.473-.535 4.953 1.341 10.695 5.198 16.125 1.587-7.666 1.9-13.304.934-16.792a1.671 1.671 0 0 1 2.681-1.729c8.44 7.045 15.576 10.28 22.156 9.986-1.818-2.101-3.513-4.77-5.062-7.976a1.672 1.672 0 0 1 2.067-2.3c1.007.359 1.96.696 2.86 1.014 7.356 2.599 11.407 4.03 13.535 7.033 1.44 2.031 1.83 4.478 1.55 8.18 2.715-4.636 3.975-9.368 3.525-13.541-.348-3.229-1.69-5.812-3.878-7.473a1.672 1.672 0 0 1-.64-1.07c-.949-5.985-8.191-7.725-12.424-8.23a38.072 38.072 0 0 0-4.49-.258zm15.37 38.645a1.67 1.67 0 0 1-1.648-1.945c1.116-6.724 1.386-10.291-.09-12.375-1.419-2.002-4.75-3.274-10.678-5.375 1.466 2.368 3.023 4.237 4.653 5.578a1.671 1.671 0 0 1-.693 2.92c-1.587.358-3.19.54-4.813.54-6.226 0-12.775-2.662-20.121-8.158.201 4.382-.563 10.173-2.303 17.529a1.672 1.672 0 0 1-2.898.7c-5.88-6.888-8.837-14.682-8.113-21.387.425-3.94 2.137-7.297 4.836-9.505 3.625-7.47 19.645-11.626 31.384-10.228 8.602 1.026 13.97 4.698 15.207 10.372 2.6 2.208 4.247 5.505 4.663 9.361.723 6.705-2.234 14.5-8.114 21.387a1.67 1.67 0 0 1-1.271.586z" fill="#3265ab" opacity="1" data-original="#000000"></path><path d="M66.588 78.292c-10.469 0-19.36-7.243-22.864-18.553-6.27-2.671-8.477-8.263-7.33-12.354.95-3.387 4.002-5.185 7.59-4.474a1.67 1.67 0 1 1-.649 3.279c-1.887-.373-3.245.39-3.724 2.097-.789 2.816 1.066 6.798 6.06 8.63a1.67 1.67 0 0 1 1.033 1.114C49.612 68.317 57.412 74.95 66.589 74.95h.08c9.133-.038 16.844-6.674 19.645-16.906.143-.522.529-.942 1.037-1.128 5.339-1.957 6.752-6.27 6.05-8.706-.484-1.683-1.83-2.42-3.691-2.025a1.671 1.671 0 1 1-.694-3.27c3.573-.758 6.625.997 7.597 4.37 1.188 4.124-1 9.76-7.308 12.45-3.393 11.26-12.195 18.514-22.622 18.557h-.095zM105.536 97.07c-.27 0-.542-.064-.796-.201-2.802-1.52-5.764-2.909-8.628-4.251-1.234-.578-2.451-1.148-3.633-1.718a1.671 1.671 0 0 1 1.452-3.01 381.13 381.13 0 0 0 3.598 1.702c2.909 1.362 5.916 2.772 8.805 4.339a1.67 1.67 0 0 1-.798 3.14zm-89.527 46.512c-2.668 0-5.849-1.278-5.849-7.37v-20.46c0-14.262 13.489-20.581 25.39-26.157 1.224-.574 2.432-1.14 3.605-1.705a1.67 1.67 0 1 1 1.452 3.01c-1.184.57-2.404 1.142-3.64 1.722-11.536 5.404-23.464 10.993-23.464 23.13v20.46c0 3.717 1.237 4.028 2.506 4.028h72.337a1.671 1.671 0 0 1 0 3.342z" fill="#3265ab" opacity="1" data-original="#000000"></path><path d="m51.518 83.387-8.95 3.216a1.762 1.762 0 0 0-1.162 1.256 1.762 1.762 0 0 0 .361 1.67l7.102 8.564a1.672 1.672 0 0 1-.738 2.646l-6.712 2.33c-.57.198-.944.571-1.143 1.14a1.753 1.753 0 0 0 .185 1.603L58.656 134.5zm9.86 60.195c-.559 0-1.098-.281-1.411-.776l-22.328-35.204a5.102 5.102 0 0 1-.518-4.494 5.1 5.1 0 0 1 3.201-3.196l4.436-1.54-5.563-6.71c-1.112-1.34-1.472-3.004-1.013-4.685.46-1.681 1.616-2.93 3.255-3.52l10.887-3.91a1.67 1.67 0 0 1 2.22 1.342l8.489 60.79a1.672 1.672 0 0 1-1.655 1.903zM81.504 83.387 74.366 134.5l18.194-28.687a1.75 1.75 0 0 0 .185-1.603 1.75 1.75 0 0 0-1.142-1.14l-6.712-2.33a1.672 1.672 0 0 1-.738-2.646l7.101-8.563c.409-.493.53-1.055.362-1.672a1.76 1.76 0 0 0-1.161-1.255zm-9.86 60.195a1.668 1.668 0 0 1-1.655-1.902l8.49-60.792a1.67 1.67 0 0 1 2.22-1.34l10.886 3.91c1.64.589 2.795 1.839 3.254 3.52.46 1.68.1 3.344-1.012 4.685l-5.563 6.709 4.435 1.54a5.102 5.102 0 0 1 3.201 3.196 5.101 5.101 0 0 1-.517 4.494l-22.328 35.203a1.67 1.67 0 0 1-1.412.777z" fill="#3265ab" opacity="1" data-original="#000000"></path><path d="M66.49 97.2c-4.991 0-9.791-2.06-13.514-5.801a1.671 1.671 0 0 1 2.368-2.358c3.092 3.106 7.05 4.818 11.146 4.818 4.11 0 8.084-1.72 11.191-4.842a1.67 1.67 0 1 1 2.37 2.357c-3.74 3.757-8.555 5.827-13.56 5.827zM52.889 82.79a1.67 1.67 0 0 1-1.672-1.67v-9.743a1.67 1.67 0 1 1 3.343 0v9.742a1.67 1.67 0 0 1-1.671 1.671zM80.133 82.79a1.67 1.67 0 0 1-1.671-1.67v-9.642a1.67 1.67 0 1 1 3.342 0v9.641a1.67 1.67 0 0 1-1.67 1.671zM39.038 132.649h-4.041a1.671 1.671 0 1 1 0-3.342h2.37v-6.5a4.667 4.667 0 0 0-4.662-4.661h-3.229a4.668 4.668 0 0 0-4.661 4.662v6.5h2.37a1.67 1.67 0 1 1 0 3.342l-4.042-.001c-.922 0-1.67-.748-1.67-1.67v-8.171c0-4.414 3.59-8.004 8.003-8.004h3.229c4.414 0 8.004 3.59 8.004 8.004v8.17a1.67 1.67 0 0 1-1.67 1.671z" fill="#3265ab" opacity="1" data-original="#000000"></path><path d="M31.091 118.145a1.67 1.67 0 0 1-1.671-1.67V93.571a1.67 1.67 0 1 1 3.341 0v22.902a1.67 1.67 0 0 1-1.67 1.671zM158.764 163.236H90.959c-1.67 0-4.472-.714-4.472-5.492v-13.718c0-9.703 10.127-16.937 27.088-19.355a1.67 1.67 0 1 1 .472 3.308c-7.134 1.017-13.158 2.98-17.422 5.677-4.509 2.852-6.795 6.342-6.795 10.37v13.718c0 2.15.574 2.15 1.13 2.15h67.804c.557 0 1.131 0 1.131-2.15v-13.718c0-11.686-18.537-15.236-24.218-16.047a1.671 1.671 0 0 1 .471-3.308c6.355.905 27.09 4.98 27.09 19.356v13.717c0 4.778-2.803 5.492-4.474 5.492zM107.465 96.457c-.774 0-1.282.401-1.51 1.198-.456 1.58.505 4.393 4.066 5.698.507.186.893.607 1.036 1.128 2.379 8.687 8.633 11.804 13.693 11.825h.054c6.392 0 11.83-4.64 13.865-11.838.146-.516.53-.93 1.033-1.115 3.736-1.37 4.48-4.19 4.072-5.646-.194-.692-.724-1.457-2.138-1.177a1.673 1.673 0 0 1-1.777-2.466c3.134-5.503 3.257-10.222.366-14.028-4.62-6.083-15.889-8.299-23.113-6.483-2.144.538-5.818 1.926-6.332 5.168a1.67 1.67 0 0 1-.64 1.07c-3.456 2.622-3.57 8.491-.276 14.273a1.672 1.672 0 0 1-1.8 2.462 2.886 2.886 0 0 0-.599-.07zm17.34 23.19-.069.001c-7.654-.032-14.12-5.294-16.668-13.483-4.634-2.075-6.225-6.314-5.326-9.435.48-1.666 1.597-2.836 3.053-3.337-2.717-6.268-2.056-12.464 1.815-15.85.844-3.475 3.9-6.029 8.688-7.232 8.41-2.114 21.1.478 26.588 7.704 2.355 3.098 4.29 8.194 1.05 15.405 1.466.517 2.585 1.705 3.056 3.385.869 3.096-.738 7.303-5.345 9.364-2.628 8.224-9.158 13.48-16.841 13.479z" fill="#3265ab" opacity="1" data-original="#000000"></path><path d="M124.862 129.863c-3.93 0-7.861-.653-11.602-1.96a1.671 1.671 0 0 1-1.12-1.578v-13.26a1.67 1.67 0 1 1 3.342.001v12.05a31.996 31.996 0 0 0 18.76 0v-12.129a1.67 1.67 0 1 1 3.342 0v13.338a1.67 1.67 0 0 1-1.12 1.578 35.196 35.196 0 0 1-11.602 1.96zM125.479 13.502c-10.497 0-19.037 8.541-19.037 19.038s8.54 19.037 19.037 19.037 19.037-8.54 19.037-19.037-8.54-19.037-19.037-19.038zm0 41.417c-12.34 0-22.38-10.039-22.38-22.379 0-12.34 10.04-22.38 22.38-22.38s22.38 10.04 22.38 22.38-10.04 22.38-22.38 22.379z" fill="#3265ab" opacity="1" data-original="#000000"></path><path d="M125.479 45.039c-.923 0-1.67-.748-1.67-1.671V21.712a1.67 1.67 0 1 1 3.34 0v21.655c0 .923-.747 1.672-1.67 1.672z" fill="#3265ab" opacity="1" data-original="#000000"></path><path d="M136.307 34.21h-21.656a1.67 1.67 0 1 1 0-3.34l21.656-.001a1.671 1.671 0 0 1 0 3.341z" fill="#3265ab" opacity="1" data-original="#000000"></path></g></svg>